font.ufo
<glyph name="exclam" format="1">
  <advance width="202"/>
  <unicode hex="0021"/>
  <outline>
    <contour>
      <point x="81" y="684" type="line"/>
      <point x="81" y="520" type="line"/>
      <point x="85" y="197" type="line"/>
      <point x="117" y="197" type="line"/>
      <point x="121" y="520" type="line"/>
      <point x="121" y="684" type="line"/>
    </contour>
    <contour>
      <point x="67" y="28" type="curve" smooth="yes"/>
      <point x="67" y="9"/>
      <point x="82" y="-7"/>
      <point x="101" y="-7" type="curve" smooth="yes"/>
      <point x="120" y="-7"/>
      <point x="135" y="9"/>
      <point x="135" y="28" type="curve" smooth="yes"/>
      <point x="135" y="48"/>
      <point x="120" y="64"/>
      <point x="101" y="64" type="curve" smooth="yes"/>
      <point x="82" y="64"/>
      <point x="67" y="48"/>
    </contour>
  </outline>
</glyph>
<glyph name="dollar" format="1">
  <advance width="599"/>
  <unicode hex="0024"/>
  <note>
    dollar
  </note>
  <outline>
    <contour>
      <point x="279" y="657" type="curve"/>
      <point x="279" y="389" type="line"/>
      <point x="194" y="416"/>
      <point x="121" y="448"/>
      <point x="121" y="538" type="curve" smooth="yes"/>
      <point x="121" y="606"/>
      <point x="183" y="650"/>
    </contour>
    <contour>
      <point x="314" y="43" type="curve"/>
      <point x="314" y="333" type="line"/>
      <point x="404" y="305"/>
      <point x="486" y="273"/>
      <point x="485" y="176" type="curve" smooth="yes"/>
      <point x="485" y="100"/>
      <point x="420" y="50"/>
    </contour>
    <contour>
      <point x="314" y="657" type="line"/>
      <point x="372" y="656"/>
      <point x="438" y="638"/>
      <point x="487" y="606" type="curve"/>
      <point x="506" y="644" type="line"/>
      <point x="456" y="677"/>
      <point x="383" y="699"/>
      <point x="314" y="701" type="curve"/>
      <point x="314" y="811" type="line"/>
      <point x="279" y="811" type="line"/>
      <point x="279" y="700" type="line"/>
      <point x="156" y="692"/>
      <point x="76" y="629"/>
      <point x="76" y="535" type="curve" smooth="yes"/>
      <point x="76" y="410"/>
      <point x="177" y="374"/>
      <point x="279" y="344" type="curve"/>
      <point x="279" y="42" type="line"/>
      <point x="199" y="44"/>
      <point x="115" y="80"/>
      <point x="60" y="137" type="curve"/>
      <point x="38" y="100" type="line"/>
      <point x="97" y="42"/>
      <point x="189" y="1"/>
      <point x="279" y="-1" type="curve"/>
      <point x="279" y="-125" type="line"/>
      <point x="314" y="-125" type="line"/>
      <point x="314" y="0" type="line"/>
      <point x="445" y="8"/>
      <point x="530" y="76"/>
      <point x="530" y="177" type="curve" smooth="yes"/>
      <point x="531" y="311"/>
      <point x="420" y="346"/>
      <point x="314" y="378" type="curve"/>
    </contour>
  </outline>
</glyph>
<glyph name="ampersand" format="1">
  <advance width="634"/>
  <unicode hex="0026"/>
  <outline>
    <contour>
      <point x="604.0" y="-5.0" type="curve"/>
      <point x="627" y="20" type="line"/>
      <point x="581.38970252" y="65.6102974804"/>
      <point x="538.688875706" y="107.701520916"/>
      <point x="499.19272" y="146.72118" type="curve"/>
      <point x="530.753262082" y="188.835029267"/>
      <point x="559.603266039" y="239.012206721"/>
      <point x="585.0" y="296.0" type="curve"/>
      <point x="554" y="319" type="line"/>
      <point x="529.637589628" y="262.681700699"/>
      <point x="502.372112274" y="213.571015973"/>
      <point x="472.8687" y="172.75083" type="curve"/>
      <point x="391.723940433" y="253.088045712"/>
      <point x="325.473058716" y="319.902490449"/>
      <point x="276.9836" y="377.54372" type="curve"/>
      <point x="366.236351683" y="425.283151455"/>
      <point x="455.0" y="473.523466765"/>
      <point x="455.0" y="568.0" type="curve" smooth="yes"/>
      <point x="455" y="646"/>
      <point x="397" y="700"/>
      <point x="308" y="700" type="curve" smooth="yes"/>
      <point x="214" y="700"/>
      <point x="149" y="639"/>
      <point x="149" y="558" type="curve" smooth="yes"/>
      <point x="149.0" y="506.409651312"/>
      <point x="176.141408637" y="451.872521114"/>
      <point x="226.1487" y="387.49125" type="curve"/>
      <point x="140.56171879" y="342.131036521"/>
      <point x="59.0" y="289.095917771"/>
      <point x="59.0" y="185.0" type="curve" smooth="yes"/>
      <point x="59" y="78"/>
      <point x="147" y="-1"/>
      <point x="256" y="-1" type="curve" smooth="yes"/>
      <point x="336.361061061" y="-1.0"/>
      <point x="412.453334099" y="42.8520951404"/>
      <point x="478.23305" y="120.40522" type="curve"/>
      <point x="517.290504637" y="81.6600762264"/>
      <point x="559.307706968" y="40.0115236965"/>
    </contour>
    <contour>
      <point x="184.0" y="558.0" type="curve" smooth="yes"/>
      <point x="184" y="619"/>
      <point x="234" y="668"/>
      <point x="308" y="668" type="curve" smooth="yes"/>
      <point x="376" y="668"/>
      <point x="420" y="628"/>
      <point x="420" y="568" type="curve" smooth="yes"/>
      <point x="420.0" y="487.770386929"/>
      <point x="340.533446746" y="446.723728093"/>
      <point x="256.16842" y="403.13488" type="curve"/>
      <point x="209.29118392" y="462.987827029"/>
      <point x="184.0" y="512.738693153"/>
    </contour>
    <contour>
      <point x="257.0" y="35.0" type="curve" smooth="yes"/>
      <point x="167" y="35"/>
      <point x="96" y="98"/>
      <point x="96" y="187" type="curve" smooth="yes"/>
      <point x="96.0" y="271.058178949"/>
      <point x="167.769299002" y="318.132178747"/>
      <point x="247.12921" y="361.47062" type="curve"/>
      <point x="298.10535789" y="300.347846432"/>
      <point x="367.582847557" y="230.301188554"/>
      <point x="452.33105" y="146.11372" type="curve"/>
      <point x="393.411124122" y="74.6252835831"/>
      <point x="326.700855781" y="35.0"/>
    </contour>
  </outline>
</glyph>
<glyph name="parenright" format="1">
  <advance width="283"/>
  <unicode hex="0029"/>
  <outline>
    <contour>
      <point x="40" y="742" type="line"/>
      <point x="113" y="632"/>
      <point x="154" y="479"/>
      <point x="154" y="309" type="curve" smooth="yes"/>
      <point x="154" y="139"/>
      <point x="113" y="-14"/>
      <point x="40" y="-124" type="curve"/>
      <point x="79" y="-124" type="line"/>
      <point x="153" y="-14"/>
      <point x="194" y="139"/>
      <point x="194" y="309" type="curve" smooth="yes"/>
      <point x="194" y="479"/>
      <point x="153" y="632"/>
      <point x="79" y="742" type="curve"/>
    </contour>
  </outline>
</glyph>
<glyph name="plus" format="1">
  <advance width="484"/>
  <unicode hex="002B"/>
  <outline>
    <contour>
      <point x="445.0" y="304" type="line"/>
      <point x="445.0" y="338" type="line"/>
      <point x="258" y="338" type="line"/>
      <point x="258" y="525" type="line"/>
      <point x="226.0" y="525" type="line"/>
      <point x="226.0" y="338" type="line"/>
      <point x="39" y="338" type="line"/>
      <point x="39" y="304" type="line"/>
      <point x="226.0" y="304" type="line"/>
      <point x="226.0" y="117.0" type="line"/>
      <point x="258" y="117.0" type="line"/>
      <point x="258" y="304" type="line"/>
    </contour>
  </outline>
</glyph>
<glyph name="hyphen" format="1">
  <advance width="359"/>
  <unicode hex="002D"/>
  <outline>
    <contour>
      <point x="68" y="318" type="line"/>
      <point x="68" y="284" type="line"/>
      <point x="291" y="284" type="line"/>
      <point x="291" y="318" type="line"/>
    </contour>
  </outline>
</glyph>
<glyph name="zero" format="1">
  <advance width="617"/>
  <unicode hex="0030"/>
  <note>
    zero
  </note>
  <outline>
    <contour>
      <point x="54" y="351" type="curve" smooth="yes"/>
      <point x="54" y="124"/>
      <point x="144" y="-1"/>
      <point x="308" y="-1" type="curve" smooth="yes"/>
      <point x="473" y="-1"/>
      <point x="563" y="124"/>
      <point x="563" y="351" type="curve" smooth="yes"/>
      <point x="563" y="576"/>
      <point x="473" y="701"/>
      <point x="308" y="701" type="curve" smooth="yes"/>
      <point x="144" y="701"/>
      <point x="54" y="576"/>
    </contour>
    <contour>
      <point x="522" y="351" type="curve" smooth="yes"/>
      <point x="522" y="147"/>
      <point x="446" y="37"/>
      <point x="308" y="37" type="curve" smooth="yes"/>
      <point x="170" y="37"/>
      <point x="95" y="147"/>
      <point x="95" y="351" type="curve" smooth="yes"/>
      <point x="95" y="554"/>
      <point x="170" y="663"/>
      <point x="308" y="663" type="curve" smooth="yes"/>
      <point x="446" y="663"/>
      <point x="522" y="554"/>
    </contour>
  </outline>
</glyph>
<glyph name="two" format="1">
  <advance width="617"/>
  <unicode hex="0032"/>
  <note>
    two
  </note>
  <outline>
    <contour>
      <point x="59" y="608" type="curve"/>
      <point x="80" y="575" type="line"/>
      <point x="136" y="629"/>
      <point x="211" y="661"/>
      <point x="281" y="661" type="curve" smooth="yes"/>
      <point x="388" y="661"/>
      <point x="454" y="612"/>
      <point x="454" y="531" type="curve" smooth="yes"/>
      <point x="454" y="480"/>
      <point x="410" y="407"/>
      <point x="342" y="337" type="curve" smooth="yes"/>
      <point x="61" y="43" type="line"/>
      <point x="60" y="0" type="line"/>
      <point x="547" y="0" type="line"/>
      <point x="547" y="42" type="line"/>
      <point x="110" y="42" type="line"/>
      <point x="370" y="311" type="line" smooth="yes"/>
      <point x="447" y="391"/>
      <point x="497" y="472"/>
      <point x="497" y="535" type="curve" smooth="yes"/>
      <point x="497" y="638"/>
      <point x="415" y="702"/>
      <point x="285" y="702" type="curve" smooth="yes"/>
      <point x="204" y="702"/>
      <point x="120" y="667"/>
    </contour>
  </outline>
</glyph>
<glyph name="three" format="1">
  <advance width="617"/>
  <unicode hex="0033"/>
  <note>
    three
  </note>
  <outline>
    <contour>
      <point x="225" y="398" type="line"/>
      <point x="490" y="668" type="line"/>
      <point x="490" y="700" type="line"/>
      <point x="65" y="700" type="line"/>
      <point x="65" y="658" type="line"/>
      <point x="436" y="658" type="line"/>
      <point x="175" y="394" type="line"/>
      <point x="175" y="364" type="line"/>
      <point x="258" y="364" type="line" smooth="yes"/>
      <point x="400" y="364"/>
      <point x="486" y="311"/>
      <point x="486" y="209" type="curve" smooth="yes"/>
      <point x="486" y="109"/>
      <point x="402" y="38"/>
      <point x="261" y="38" type="curve" smooth="yes"/>
      <point x="186" y="38"/>
      <point x="109" y="61"/>
      <point x="54" y="98" type="curve"/>
      <point x="33" y="62" type="line"/>
      <point x="94" y="24"/>
      <point x="179" y="-1"/>
      <point x="262" y="-1" type="curve" smooth="yes"/>
      <point x="425" y="-1"/>
      <point x="527" y="86"/>
      <point x="527" y="213" type="curve" smooth="yes"/>
      <point x="527" y="327"/>
      <point x="425" y="395"/>
      <point x="272" y="398" type="curve" smooth="yes"/>
    </contour>
  </outline>
</glyph>
<glyph name="four" format="1">
  <advance width="617"/>
  <unicode hex="0034"/>
  <note>
    four
  </note>
  <outline>
    <contour>
      <point x="329" y="700" type="line"/>
      <point x="48" y="240" type="line"/>
      <point x="48" y="199" type="line"/>
      <point x="408" y="199" type="line"/>
      <point x="408" y="0" type="line"/>
      <point x="448" y="0" type="line"/>
      <point x="448" y="199" type="line"/>
      <point x="566" y="199" type="line"/>
      <point x="566" y="241" type="line"/>
      <point x="449" y="241" type="line"/>
      <point x="448" y="450" type="line"/>
      <point x="408" y="450" type="line"/>
      <point x="409" y="241" type="line"/>
      <point x="92" y="241" type="line"/>
      <point x="372" y="700" type="line"/>
    </contour>
  </outline>
</glyph>
<glyph name="five" format="1">
  <advance width="617"/>
  <unicode hex="0035"/>
  <note>
    five
  </note>
  <outline>
    <contour>
      <point x="105" y="700" type="line"/>
      <point x="105" y="355" type="line"/>
      <point x="162" y="372"/>
      <point x="240" y="384"/>
      <point x="293" y="384" type="curve" smooth="yes"/>
      <point x="419" y="384"/>
      <point x="501" y="321"/>
      <point x="501" y="224" type="curve" smooth="yes"/>
      <point x="501" y="112"/>
      <point x="419" y="41"/>
      <point x="291" y="41" type="curve" smooth="yes"/>
      <point x="223" y="41"/>
      <point x="138" y="66"/>
      <point x="74" y="107" type="curve"/>
      <point x="56" y="72" type="line"/>
      <point x="124" y="29"/>
      <point x="217" y="0"/>
      <point x="294" y="0" type="curve" smooth="yes"/>
      <point x="446" y="0"/>
      <point x="545" y="89"/>
      <point x="545" y="226" type="curve" smooth="yes"/>
      <point x="545" y="344"/>
      <point x="448" y="425"/>
      <point x="298" y="425" type="curve" smooth="yes"/>
      <point x="254" y="425"/>
      <point x="193" y="417"/>
      <point x="145" y="404" type="curve"/>
      <point x="145" y="659" type="line"/>
      <point x="517" y="659" type="line"/>
      <point x="517" y="700" type="line"/>
    </contour>
  </outline>
</glyph>
<glyph name="six" format="1">
  <advance width="617"/>
  <unicode hex="0036"/>
  <note>
    six
  </note>
  <outline>
    <contour>
      <point x="64" y="332" type="curve" smooth="yes"/>
      <point x="64" y="117"/>
      <point x="165" y="-1"/>
      <point x="332" y="-1" type="curve" smooth="yes"/>
      <point x="473" y="-1"/>
      <point x="565" y="84"/>
      <point x="565" y="224" type="curve" smooth="yes"/>
      <point x="565" y="360"/>
      <point x="479" y="443"/>
      <point x="340" y="443" type="curve" smooth="yes"/>
      <point x="218" y="443"/>
      <point x="133" y="381"/>
      <point x="108" y="276" type="curve"/>
      <point x="88" y="514"/>
      <point x="177" y="662"/>
      <point x="347" y="662" type="curve" smooth="yes"/>
      <point x="403" y="662"/>
      <point x="468" y="646"/>
      <point x="518" y="620" type="curve"/>
      <point x="536" y="655" type="line"/>
      <point x="477" y="684"/>
      <point x="405" y="702"/>
      <point x="344" y="702" type="curve" smooth="yes"/>
      <point x="171" y="702"/>
      <point x="64" y="555"/>
    </contour>
    <contour>
      <point x="525" y="226" type="curve" smooth="yes"/>
      <point x="525" y="110"/>
      <point x="443" y="39"/>
      <point x="327" y="39" type="curve" smooth="yes"/>
      <point x="185" y="39"/>
      <point x="125" y="144"/>
      <point x="125" y="219" type="curve" smooth="yes"/>
      <point x="125" y="315"/>
      <point x="204" y="405"/>
      <point x="335" y="405" type="curve" smooth="yes"/>
      <point x="450" y="405"/>
      <point x="525" y="336"/>
    </contour>
  </outline>
</glyph>
<glyph name="seven" format="1">
  <advance width="617"/>
  <unicode hex="0037"/>
  <note>
    seven
  </note>
  <outline>
    <contour>
      <point x="61" y="700" type="line"/>
      <point x="61" y="550" type="line"/>
      <point x="100" y="550" type="line"/>
      <point x="100" y="659" type="line"/>
      <point x="520" y="659" type="line"/>
      <point x="187" y="0" type="line"/>
      <point x="232" y="0" type="line"/>
      <point x="563" y="659" type="line"/>
      <point x="563" y="700" type="line"/>
    </contour>
  </outline>
</glyph>
<glyph name="eight" format="1">
  <advance width="617"/>
  <unicode hex="0038"/>
  <note>
    eight
  </note>
  <outline>
    <contour>
      <point x="92" y="533" type="curve" smooth="yes"/>
      <point x="92" y="454"/>
      <point x="139" y="401"/>
      <point x="218" y="375" type="curve"/>
      <point x="120" y="350"/>
      <point x="59" y="287"/>
      <point x="59" y="194" type="curve" smooth="yes"/>
      <point x="59" y="71"/>
      <point x="154" y="-1"/>
      <point x="309" y="-1" type="curve" smooth="yes"/>
      <point x="463" y="-1"/>
      <point x="558" y="71"/>
      <point x="558" y="195" type="curve" smooth="yes"/>
      <point x="558" y="287"/>
      <point x="498" y="350"/>
      <point x="400" y="375" type="curve"/>
      <point x="479" y="401"/>
      <point x="525" y="453"/>
      <point x="525" y="532" type="curve" smooth="yes"/>
      <point x="525" y="638"/>
      <point x="443" y="702"/>
      <point x="309" y="702" type="curve" smooth="yes"/>
      <point x="175" y="702"/>
      <point x="92" y="639"/>
    </contour>
    <contour>
      <point x="487" y="529" type="curve" smooth="yes"/>
      <point x="487" y="442"/>
      <point x="420" y="390"/>
      <point x="309" y="390" type="curve" smooth="yes"/>
      <point x="198" y="390"/>
      <point x="130" y="442"/>
      <point x="130" y="529" type="curve" smooth="yes"/>
      <point x="130" y="614"/>
      <point x="198" y="665"/>
      <point x="309" y="665" type="curve" smooth="yes"/>
      <point x="420" y="665"/>
      <point x="487" y="614"/>
    </contour>
    <contour>
      <point x="518" y="198" type="curve" smooth="yes"/>
      <point x="518" y="96"/>
      <point x="438" y="37"/>
      <point x="309" y="37" type="curve" smooth="yes"/>
      <point x="178" y="37"/>
      <point x="99" y="97"/>
      <point x="99" y="199" type="curve" smooth="yes"/>
      <point x="99" y="294"/>
      <point x="179" y="352"/>
      <point x="308" y="352" type="curve" smooth="yes"/>
      <point x="439" y="352"/>
      <point x="518" y="293"/>
    </contour>
  </outline>
</glyph>
<glyph name="nine" format="1">
  <advance width="617"/>
  <unicode hex="0039"/>
  <note>
    nine
  </note>
  <outline>
    <contour>
      <point x="100" y="474" type="curve" smooth="yes"/>
      <point x="100" y="590"/>
      <point x="180" y="661"/>
      <point x="295" y="661" type="curve" smooth="yes"/>
      <point x="435" y="661"/>
      <point x="495" y="556"/>
      <point x="494" y="482" type="curve" smooth="yes"/>
      <point x="495" y="386"/>
      <point x="417" y="296"/>
      <point x="287" y="296" type="curve" smooth="yes"/>
      <point x="173" y="296"/>
      <point x="100" y="364"/>
    </contour>
    <contour>
      <point x="556" y="368" type="curve" smooth="yes"/>
      <point x="556" y="584"/>
      <point x="456" y="702"/>
      <point x="290" y="702" type="curve" smooth="yes"/>
      <point x="150" y="702"/>
      <point x="60" y="616"/>
      <point x="60" y="476" type="curve" smooth="yes"/>
      <point x="60" y="340"/>
      <point x="145" y="258"/>
      <point x="282" y="258" type="curve" smooth="yes"/>
      <point x="403" y="258"/>
      <point x="486" y="320"/>
      <point x="512" y="424" type="curve"/>
      <point x="531" y="186"/>
      <point x="443" y="38"/>
      <point x="274" y="38" type="curve" smooth="yes"/>
      <point x="219" y="38"/>
      <point x="155" y="54"/>
      <point x="106" y="81" type="curve"/>
      <point x="88" y="45" type="line"/>
      <point x="146" y="17"/>
      <point x="217" y="-1"/>
      <point x="278" y="-1" type="curve" smooth="yes"/>
      <point x="450" y="-1"/>
      <point x="556" y="145"/>
    </contour>
  </outline>
</glyph>
<glyph name="less" format="1">
  <advance width="484"/>
  <unicode hex="003C"/>
  <outline>
    <contour>
      <point x="39" y="350" type="line"/>
      <point x="39" y="305" type="line"/>
      <point x="445" y="119" type="line"/>
      <point x="445" y="158" type="line"/>
      <point x="71" y="327" type="line"/>
      <point x="445" y="497" type="line"/>
      <point x="445" y="536" type="line"/>
    </contour>
  </outline>
</glyph>
<glyph name="equal" format="1">
  <advance width="484"/>
  <unicode hex="003D"/>
  <outline>
    <contour>
      <point x="39" y="440" type="line"/>
      <point x="39" y="405" type="line"/>
      <point x="445" y="405" type="line"/>
      <point x="445" y="440" type="line"/>
    </contour>
    <contour>
      <point x="39" y="237" type="line"/>
      <point x="39" y="202" type="line"/>
      <point x="445" y="202" type="line"/>
      <point x="445" y="237" type="line"/>
    </contour>
  </outline>
</glyph>
<glyph name="greater" format="1">
  <advance width="484"/>
  <unicode hex="003E"/>
  <outline>
    <contour>
      <point x="445" y="306" type="line"/>
      <point x="445" y="351" type="line"/>
      <point x="39" y="537" type="line"/>
      <point x="39" y="498" type="line"/>
      <point x="413" y="329" type="line"/>
      <point x="39" y="159" type="line"/>
      <point x="39" y="120" type="line"/>
    </contour>
  </outline>
</glyph>
<glyph name="question" format="1">
  <advance width="406"/>
  <unicode hex="003F"/>
  <outline>
    <contour>
      <point x="43" y="524" type="line"/>
      <point x="48" y="604"/>
      <point x="102" y="644"/>
      <point x="185" y="644" type="curve" smooth="yes"/>
      <point x="268" y="644"/>
      <point x="328" y="605"/>
      <point x="328" y="525" type="curve" smooth="yes"/>
      <point x="328" y="371"/>
      <point x="170" y="382"/>
      <point x="170" y="211" type="curve"/>
      <point x="205" y="211" type="line"/>
      <point x="205" y="369"/>
      <point x="367" y="360"/>
      <point x="367" y="528" type="curve" smooth="yes"/>
      <point x="367" y="633"/>
      <point x="290" y="683"/>
      <point x="188" y="683" type="curve" smooth="yes"/>
      <point x="85" y="683"/>
      <point x="13" y="627"/>
      <point x="7" y="526" type="curve"/>
    </contour>
    <contour>
      <point x="151" y="28" type="curve" smooth="yes"/>
      <point x="151" y="9"/>
      <point x="166" y="-7"/>
      <point x="185" y="-7" type="curve" smooth="yes"/>
      <point x="204" y="-7"/>
      <point x="219" y="9"/>
      <point x="219" y="28" type="curve" smooth="yes"/>
      <point x="219" y="48"/>
      <point x="204" y="64"/>
      <point x="185" y="64" type="curve" smooth="yes"/>
      <point x="166" y="64"/>
      <point x="151" y="48"/>
    </contour>
  </outline>
</glyph>
<glyph name="at" format="1">
  <advance width="999"/>
  <unicode hex="0040"/>
  <outline>
    <contour>
      <point x="46" y="263" type="curve" smooth="yes"/>
      <point x="46" y="12"/>
      <point x="234" y="-172"/>
      <point x="490" y="-172" type="curve" smooth="yes"/>
      <point x="552" y="-172"/>
      <point x="635" y="-150"/>
      <point x="688" y="-119" type="curve"/>
      <point x="673" y="-87" type="line"/>
      <point x="624" y="-116"/>
      <point x="547" y="-135"/>
      <point x="490" y="-135" type="curve" smooth="yes"/>
      <point x="255" y="-135"/>
      <point x="81" y="33"/>
      <point x="81" y="263" type="curve" smooth="yes"/>
      <point x="81" y="503"/>
      <point x="260" y="680"/>
      <point x="503" y="680" type="curve" smooth="yes"/>
      <point x="746" y="680"/>
      <point x="917" y="503"/>
      <point x="917" y="262" type="curve" smooth="yes"/>
      <point x="917" y="120"/>
      <point x="868" y="28"/>
      <point x="796" y="28" type="curve" smooth="yes"/>
      <point x="759" y="28"/>
      <point x="728" y="58"/>
      <point x="728" y="110" type="curve" smooth="yes"/>
      <point x="728" y="518" type="line"/>
      <point x="688" y="518" type="line"/>
      <point x="688" y="389" type="line"/>
      <point x="657" y="463"/>
      <point x="576" y="522"/>
      <point x="472" y="522" type="curve" smooth="yes"/>
      <point x="329" y="522"/>
      <point x="226" y="413"/>
      <point x="226" y="267" type="curve" smooth="yes"/>
      <point x="226" y="119"/>
      <point x="333" y="13"/>
      <point x="474" y="13" type="curve" smooth="yes"/>
      <point x="574" y="13"/>
      <point x="655" y="66"/>
      <point x="694" y="150" type="curve"/>
      <point x="694" y="98" type="line"/>
      <point x="696" y="33"/>
      <point x="739" y="-6"/>
      <point x="792" y="-6" type="curve" smooth="yes"/>
      <point x="889" y="-6"/>
      <point x="952" y="99"/>
      <point x="952" y="262" type="curve" smooth="yes"/>
      <point x="952" y="525"/>
      <point x="763" y="716"/>
      <point x="503" y="716" type="curve" smooth="yes"/>
      <point x="241" y="716"/>
      <point x="46" y="524"/>
    </contour>
    <contour>
      <point x="687" y="268" type="curve" smooth="yes"/>
      <point x="687" y="145"/>
      <point x="600" y="54"/>
      <point x="477" y="54" type="curve" smooth="yes"/>
      <point x="355" y="54"/>
      <point x="268" y="145"/>
      <point x="268" y="268" type="curve" smooth="yes"/>
      <point x="268" y="390"/>
      <point x="355" y="481"/>
      <point x="477" y="481" type="curve" smooth="yes"/>
      <point x="599" y="481"/>
      <point x="687" y="390"/>
    </contour>
  </outline>
</glyph>
<glyph name="A" format="1">
  <advance width="698"/>
  <unicode hex="0041"/>
  <outline>
    <contour>
      <point x="741" y="10" type="move" name="ogonek"/>
    </contour>
    <contour>
      <point x="349" y="699" type="move" name="abvm"/>
    </contour>
    <contour>
      <point x="347" y="651" type="line"/>
      <point x="534.05069" y="241.0" type="line"/>
      <point x="162.46851" y="241.0" type="line"/>
    </contour>
    <contour>
      <point x="644" y="0" type="line"/>
      <point x="690" y="0" type="line"/>
      <point x="370.0" y="699.0" type="line"/>
      <point x="326" y="699.0" type="line"/>
      <point x="8" y="0" type="line"/>
      <point x="54.0" y="0" type="line"/>
      <point x="143.56528" y="199.0" type="line"/>
      <point x="553.21198" y="199.0" type="line"/>
    </contour>
  </outline>
</glyph>
<glyph name="B" format="1">
  <advance width="725"/>
  <unicode hex="0042"/>
  <outline>
    <contour>
      <point x="120" y="699" type="line"/>
      <point x="120" y="0" type="line"/>
      <point x="408" y="0" type="line" smooth="yes"/>
      <point x="567" y="0"/>
      <point x="659" y="69"/>
      <point x="659" y="188" type="curve" smooth="yes"/>
      <point x="659" y="286"/>
      <point x="596" y="352"/>
      <point x="489" y="365" type="curve"/>
      <point x="575" y="381"/>
      <point x="624" y="440"/>
      <point x="624" y="526" type="curve" smooth="yes"/>
      <point x="624" y="635"/>
      <point x="543" y="699"/>
      <point x="406" y="699" type="curve" smooth="yes"/>
    </contour>
    <contour>
      <point x="582" y="521" type="curve" smooth="yes"/>
      <point x="582" y="432"/>
      <point x="517" y="382"/>
      <point x="405" y="382" type="curve" smooth="yes"/>
      <point x="162" y="382" type="line"/>
      <point x="162" y="658" type="line"/>
      <point x="405" y="658" type="line" smooth="yes"/>
      <point x="517" y="658"/>
      <point x="582" y="608"/>
    </contour>
    <contour>
      <point x="617" y="193" type="curve" smooth="yes"/>
      <point x="617" y="96"/>
      <point x="540" y="41"/>
      <point x="405" y="41" type="curve" smooth="yes"/>
      <point x="162" y="41" type="line"/>
      <point x="162" y="341" type="line"/>
      <point x="405" y="341" type="line" smooth="yes"/>
      <point x="540" y="341"/>
      <point x="617" y="287"/>
    </contour>
  </outline>
</glyph>
<glyph name="C" format="1">
  <advance width="703"/>
  <unicode hex="0043"/>
  <outline>
    <contour>
      <point x="394" y="0" type="move" name="blwm"/>
    </contour>
    <contour>
      <point x="357" y="699" type="move" name="abvm"/>
    </contour>
    <contour>
      <point x="46" y="350" type="curve" smooth="yes"/>
      <point x="46" y="156"/>
      <point x="207" y="-1"/>
      <point x="406" y="-1" type="curve" smooth="yes"/>
      <point x="500" y="-1"/>
      <point x="588" y="36"/>
      <point x="654" y="96" type="curve"/>
      <point x="627" y="125" type="line"/>
      <point x="569" y="72"/>
      <point x="491" y="40"/>
      <point x="407" y="40" type="curve" smooth="yes"/>
      <point x="231" y="40"/>
      <point x="87" y="179"/>
      <point x="87" y="351" type="curve" smooth="yes"/>
      <point x="87" y="522"/>
      <point x="231" y="660"/>
      <point x="407" y="660" type="curve" smooth="yes"/>
      <point x="491" y="660"/>
      <point x="569" y="628"/>
      <point x="627" y="574" type="curve"/>
      <point x="653" y="606" type="line"/>
      <point x="588" y="664"/>
      <point x="501" y="700"/>
      <point x="407" y="700" type="curve" smooth="yes"/>
      <point x="208" y="700"/>
      <point x="46" y="544"/>
    </contour>
  </outline>
</glyph>
<glyph name="D" format="1">
  <advance width="803"/>
  <unicode hex="0044"/>
  <outline>
    <contour>
      <point x="401" y="350" type="move" name="center"/>
    </contour>
    <contour>
      <point x="381" y="699" type="move" name="abvm"/>
    </contour>
    <contour>
      <point x="120" y="699" type="line"/>
      <point x="120" y="0" type="line"/>
      <point x="397" y="0" type="line" smooth="yes"/>
      <point x="597" y="0"/>
      <point x="757" y="155"/>
      <point x="757" y="349" type="curve" smooth="yes"/>
      <point x="757" y="545"/>
      <point x="597" y="699"/>
      <point x="398" y="699" type="curve" smooth="yes"/>
    </contour>
    <contour>
      <point x="715" y="349" type="curve" smooth="yes"/>
      <point x="715" y="178"/>
      <point x="574" y="41"/>
      <point x="399" y="41" type="curve" smooth="yes"/>
      <point x="162" y="41" type="line"/>
      <point x="162" y="658" type="line"/>
      <point x="398" y="658" type="line" smooth="yes"/>
      <point x="573" y="658"/>
      <point x="715" y="521"/>
    </contour>
  </outline>
</glyph>
<glyph name="E" format="1">
  <advance width="647"/>
  <unicode hex="0045"/>
  <outline>
    <contour>
      <point x="324" y="0" type="move" name="blwm"/>
    </contour>
    <contour>
      <point x="584" y="10" type="move" name="ogonek"/>
    </contour>
    <contour>
      <point x="350" y="699" type="move" name="abvm"/>
    </contour>
    <contour>
      <point x="120" y="699" type="line"/>
      <point x="120" y="0" type="line"/>
      <point x="584" y="0" type="line"/>
      <point x="584" y="41" type="line"/>
      <point x="162" y="41" type="line"/>
      <point x="162" y="337" type="line"/>
      <point x="526" y="337" type="line"/>
      <point x="526" y="379" type="line"/>
      <point x="162" y="379" type="line"/>
      <point x="162" y="658" type="line"/>
      <point x="571" y="658" type="line"/>
      <point x="571" y="699" type="line"/>
    </contour>
  </outline>
</glyph>
<glyph name="F" format="1">
  <advance width="552"/>
  <unicode hex="0046"/>
  <outline>
    <contour>
      <point x="120" y="699" type="line"/>
      <point x="120" y="0" type="line"/>
      <point x="162" y="0" type="line"/>
      <point x="162" y="314" type="line"/>
      <point x="498" y="314" type="line"/>
      <point x="498" y="356" type="line"/>
      <point x="162" y="356" type="line"/>
      <point x="162" y="658" type="line"/>
      <point x="541" y="658" type="line"/>
      <point x="541" y="699" type="line"/>
    </contour>
  </outline>
</glyph>
<glyph name="G" format="1">
  <advance width="758"/>
  <unicode hex="0047"/>
  <outline>
    <contour>
      <point x="382" y="0" type="move" name="blwm"/>
    </contour>
    <contour>
      <point x="382" y="699" type="move" name="abvm"/>
    </contour>
    <contour>
      <point x="655" y="90" type="curve"/>
      <point x="655" y="343" type="line"/>
      <point x="617" y="343" type="line"/>
      <point x="617" y="111.11826" type="line"/>
      <point x="559.50617142" y="66.0237508185"/>
      <point x="485.560686556" y="39.0"/>
      <point x="409.0" y="39.0" type="curve" smooth="yes"/>
      <point x="232" y="39"/>
      <point x="87" y="178"/>
      <point x="87" y="350" type="curve" smooth="yes"/>
      <point x="87" y="521"/>
      <point x="231" y="660"/>
      <point x="409" y="660" type="curve" smooth="yes"/>
      <point x="492" y="660"/>
      <point x="571" y="629"/>
      <point x="630" y="577" type="curve"/>
      <point x="655" y="608" type="line"/>
      <point x="590" y="665"/>
      <point x="502" y="700"/>
      <point x="409" y="700" type="curve" smooth="yes"/>
      <point x="208" y="700"/>
      <point x="46" y="544"/>
      <point x="46" y="350" type="curve" smooth="yes"/>
      <point x="46" y="156"/>
      <point x="208" y="-1"/>
      <point x="407" y="-1" type="curve" smooth="yes"/>
      <point x="500" y="-1"/>
      <point x="589" y="34"/>
    </contour>
  </outline>
</glyph>
<glyph name="H" format="1">
  <advance width="797"/>
  <unicode hex="0048"/>
  <outline>
    <contour>
      <point x="399" y="350" type="move" name="center"/>
    </contour>
    <contour>
      <point x="400" y="699" type="move" name="abvm"/>
    </contour>
    <contour>
      <point x="635" y="699" type="line"/>
      <point x="635" y="371" type="line"/>
      <point x="162" y="371" type="line"/>
      <point x="162" y="699" type="line"/>
      <point x="120" y="699" type="line"/>
      <point x="120" y="0" type="line"/>
      <point x="162" y="0" type="line"/>
      <point x="162" y="330" type="line"/>
      <point x="635" y="330" type="line"/>
      <point x="635" y="0" type="line"/>
      <point x="677" y="0" type="line"/>
      <point x="677" y="699" type="line"/>
    </contour>
  </outline>
</glyph>
<glyph name="I" format="1">
  <advance width="282"/>
  <unicode hex="0049"/>
  <outline>
    <contour>
      <point x="216" y="10" type="move" name="ogonek"/>
    </contour>
    <contour>
      <point x="141" y="699" type="move" name="abvm"/>
    </contour>
    <contour>
      <point x="120" y="699" type="line"/>
      <point x="120" y="0" type="line"/>
      <point x="162" y="0" type="line"/>
      <point x="162" y="699" type="line"/>
    </contour>
  </outline>
</glyph>
<glyph name="J" format="1">
  <advance width="468"/>
  <unicode hex="004A"/>
  <outline>
    <contour>
      <point x="212" y="699" type="move" name="abvm"/>
    </contour>
    <contour>
      <point x="66" y="699" type="line"/>
      <point x="66" y="658" type="line"/>
      <point x="323" y="658" type="line"/>
      <point x="323" y="203" type="line"/>
      <point x="323" y="99"/>
      <point x="273" y="42"/>
      <point x="183" y="42" type="curve"/>
      <point x="123" y="42"/>
      <point x="67" y="73"/>
      <point x="25" y="130" type="curve"/>
      <point x="2" y="97" type="line"/>
      <point x="48" y="34"/>
      <point x="112" y="-1"/>
      <point x="183" y="-1" type="curve"/>
      <point x="299" y="-1"/>
      <point x="365" y="71"/>
      <point x="365" y="202" type="curve"/>
      <point x="365" y="699" type="line"/>
    </contour>
  </outline>
</glyph>
<glyph name="K" format="1">
  <advance width="681"/>
  <unicode hex="004B"/>
  <outline>
    <contour>
      <point x="339" y="0" type="move" name="blwm"/>
    </contour>
    <contour>
      <point x="339" y="699" type="move" name="abvm"/>
    </contour>
    <contour>
      <point x="162" y="188.0" type="line"/>
      <point x="316.13898" y="355.58514" type="line"/>
      <point x="601" y="0" type="line"/>
      <point x="654" y="0" type="line"/>
      <point x="346.77446" y="388.89309" type="line"/>
      <point x="632" y="699.0" type="line"/>
      <point x="580" y="699.0" type="line"/>
      <point x="162" y="249.0" type="line"/>
      <point x="162" y="699.0" type="line"/>
      <point x="120.0" y="699.0" type="line"/>
      <point x="120.0" y="0" type="line"/>
      <point x="162" y="0" type="line"/>
    </contour>
  </outline>
</glyph>
<glyph name="L" format="1">
  <advance width="501"/>
  <unicode hex="004C"/>
  <outline>
    <contour>
      <point x="288" y="0" type="move" name="blwm"/>
    </contour>
    <contour>
      <point x="149" y="699" type="move" name="abvm"/>
    </contour>
    <contour>
      <point x="120" y="699" type="line"/>
      <point x="120" y="0" type="line"/>
      <point x="473" y="0" type="line"/>
      <point x="473" y="41" type="line"/>
      <point x="162" y="41" type="line"/>
      <point x="162" y="699" type="line"/>
    </contour>
  </outline>
</glyph>
<glyph name="M" format="1">
  <advance width="916"/>
  <unicode hex="004D"/>
  <outline>
    <contour>
      <point x="738" y="699" type="line"/>
      <point x="459" y="149" type="line" smooth="yes"/>
      <point x="178" y="699" type="line"/>
      <point x="120" y="699" type="line"/>
      <point x="120" y="0" type="line"/>
      <point x="160" y="0" type="line"/>
      <point x="160" y="641" type="line"/>
      <point x="449" y="76" type="line"/>
      <point x="468" y="76" type="line"/>
      <point x="755" y="641" type="line"/>
      <point x="756" y="0" type="line"/>
      <point x="796" y="0" type="line"/>
      <point x="796" y="699" type="line"/>
    </contour>
  </outline>
</glyph>
<glyph name="N" format="1">
  <advance width="797"/>
  <unicode hex="004E"/>
  <outline>
    <contour>
      <point x="399" y="0" type="move" name="blwm"/>
    </contour>
    <contour>
      <point x="399" y="699" type="move" name="abvm"/>
    </contour>
    <contour>
      <point x="636" y="699" type="line"/>
      <point x="636" y="64" type="line"/>
      <point x="169" y="699" type="line"/>
      <point x="120" y="699" type="line"/>
      <point x="120" y="0" type="line"/>
      <point x="162" y="0" type="line"/>
      <point x="162" y="635" type="line"/>
      <point x="628" y="0" type="line"/>
      <point x="677" y="0" type="line"/>
      <point x="677" y="699" type="line"/>
    </contour>
  </outline>
</glyph>
<glyph name="O" format="1">
  <advance width="816"/>
  <unicode hex="004F"/>
  <outline>
    <contour>
      <point x="407" y="699" type="move" name="abvm"/>
    </contour>
    <contour>
      <point x="46" y="350" type="curve" smooth="yes"/>
      <point x="46" y="156"/>
      <point x="208" y="-1"/>
      <point x="408" y="-1" type="curve" smooth="yes"/>
      <point x="607" y="-1"/>
      <point x="769" y="156"/>
      <point x="769" y="350" type="curve" smooth="yes"/>
      <point x="769" y="544"/>
      <point x="607" y="700"/>
      <point x="408" y="700" type="curve" smooth="yes"/>
      <point x="208" y="700"/>
      <point x="46" y="544"/>
    </contour>
    <contour>
      <point x="728" y="350" type="curve" smooth="yes"/>
      <point x="728" y="179"/>
      <point x="584" y="40"/>
      <point x="409" y="40" type="curve" smooth="yes"/>
      <point x="234" y="40"/>
      <point x="89" y="179"/>
      <point x="89" y="350" type="curve" smooth="yes"/>
      <point x="89" y="521"/>
      <point x="233" y="659"/>
      <point x="409" y="659" type="curve" smooth="yes"/>
      <point x="584" y="659"/>
      <point x="728" y="521"/>
    </contour>
  </outline>
</glyph>
<glyph name="P" format="1">
  <advance width="664"/>
  <unicode hex="0050"/>
  <outline>
    <contour>
      <point x="120" y="699" type="line"/>
      <point x="120" y="0" type="line"/>
      <point x="162" y="0" type="line"/>
      <point x="162" y="233" type="line"/>
      <point x="366" y="233" type="line" smooth="yes"/>
      <point x="538" y="233"/>
      <point x="635" y="319"/>
      <point x="635" y="469" type="curve" smooth="yes"/>
      <point x="635" y="615"/>
      <point x="538" y="699"/>
      <point x="366" y="699" type="curve" smooth="yes"/>
    </contour>
    <contour>
      <point x="595" y="468" type="curve" smooth="yes"/>
      <point x="595" y="343"/>
      <point x="512" y="274"/>
      <point x="366" y="274" type="curve" smooth="yes"/>
      <point x="162" y="274" type="line"/>
      <point x="162" y="658" type="line"/>
      <point x="366" y="658" type="line" smooth="yes"/>
      <point x="512" y="658"/>
      <point x="595" y="591"/>
    </contour>
  </outline>
</glyph>
<glyph name="Q" format="1">
  <advance width="836"/>
  <unicode hex="0051"/>
  <outline>
    <contour>
      <point x="644" y="-131" type="curve" smooth="yes"/>
      <point x="699" y="-131"/>
      <point x="756" y="-106"/>
      <point x="810" y="-55" type="curve"/>
      <point x="789.0" y="-24.0" type="line"/>
      <point x="740" y="-68"/>
      <point x="692" y="-92"/>
      <point x="647" y="-92" type="curve" smooth="yes"/>
      <point x="591.784802562" y="-92.0"/>
      <point x="535.722739005" y="-58.9722213619"/>
      <point x="473.35849" y="4.7569" type="curve"/>
      <point x="641.287556047" y="34.6676223498"/>
      <point x="769.0" y="177.749365415"/>
      <point x="769.0" y="350.0" type="curve" smooth="yes"/>
      <point x="769" y="544"/>
      <point x="607" y="700"/>
      <point x="408" y="700" type="curve" smooth="yes"/>
      <point x="208" y="700"/>
      <point x="46" y="544"/>
      <point x="46" y="350" type="curve" smooth="yes"/>
      <point x="46" y="156"/>
      <point x="208" y="-1"/>
      <point x="408" y="-1" type="curve" smooth="yes"/>
      <point x="413.769236597" y="-1.0"/>
      <point x="419.507375207" y="-0.86804367887"/>
      <point x="425.21137" y="-0.60484" type="curve"/>
      <point x="497" y="-86"/>
      <point x="570" y="-131"/>
    </contour>
    <contour>
      <point x="728" y="350" type="curve" smooth="yes"/>
      <point x="728" y="179"/>
      <point x="584" y="40"/>
      <point x="409" y="40" type="curve" smooth="yes"/>
      <point x="234" y="40"/>
      <point x="89" y="179"/>
      <point x="89" y="350" type="curve" smooth="yes"/>
      <point x="89" y="521"/>
      <point x="233" y="659"/>
      <point x="409" y="659" type="curve" smooth="yes"/>
      <point x="584" y="659"/>
      <point x="728" y="521"/>
    </contour>
  </outline>
</glyph>
<glyph name="R" format="1">
  <advance width="722"/>
  <unicode hex="0052"/>
  <outline>
    <contour>
      <point x="361" y="0" type="move" name="blwm"/>
    </contour>
    <contour>
      <point x="344" y="699" type="move" name="abvm"/>
    </contour>
    <contour>
      <point x="598" y="468" type="curve" smooth="yes"/>
      <point x="598" y="343"/>
      <point x="514" y="274"/>
      <point x="368" y="274" type="curve" smooth="yes"/>
      <point x="162" y="274" type="line"/>
      <point x="162" y="658" type="line"/>
      <point x="368" y="658" type="line" smooth="yes"/>
      <point x="514" y="658"/>
      <point x="598" y="591"/>
    </contour>
    <contour>
      <point x="162" y="233.0" type="line"/>
      <point x="367.0" y="233.0" type="line" smooth="yes"/>
      <point x="387.710857054" y="233.0"/>
      <point x="407.346821195" y="234.232543874"/>
      <point x="425.86843" y="236.66788" type="curve"/>
      <point x="592" y="0" type="line"/>
      <point x="641" y="0" type="line"/>
      <point x="465.77821" y="244.16152" type="line"/>
      <point x="576.810172432" y="271.906406978"/>
      <point x="638.0" y="350.47285163"/>
      <point x="638.0" y="469.0" type="curve" smooth="yes"/>
      <point x="638" y="615"/>
      <point x="540" y="699"/>
      <point x="367" y="699" type="curve" smooth="yes"/>
      <point x="120.0" y="699.0" type="line"/>
      <point x="120.0" y="0" type="line"/>
      <point x="162" y="0" type="line"/>
    </contour>
  </outline>
</glyph>
<glyph name="S" format="1">
  <advance width="599"/>
  <unicode hex="0053"/>
  <outline>
    <contour>
      <point x="301" y="0" type="move" name="blwm"/>
    </contour>
    <contour>
      <point x="294" y="699" type="move" name="abvm"/>
    </contour>
    <contour>
      <point x="77" y="535" type="curve"/>
      <point x="77" y="283"/>
      <point x="487" y="395"/>
      <point x="486" y="176" type="curve"/>
      <point x="486" y="94"/>
      <point x="409" y="42"/>
      <point x="288" y="42" type="curve"/>
      <point x="206" y="42"/>
      <point x="117" y="78"/>
      <point x="60" y="137" type="curve"/>
      <point x="38" y="100" type="line"/>
      <point x="99" y="40"/>
      <point x="195" y="-1"/>
      <point x="287" y="-1" type="curve"/>
      <point x="434" y="-1"/>
      <point x="530" y="69"/>
      <point x="530" y="177" type="curve"/>
      <point x="532" y="435"/>
      <point x="122" y="325"/>
      <point x="122" y="538" type="curve"/>
      <point x="122" y="611"/>
      <point x="194" y="657"/>
      <point x="305" y="657" type="curve"/>
      <point x="365" y="657"/>
      <point x="435" y="640"/>
      <point x="487" y="606" type="curve"/>
      <point x="506" y="644" type="line"/>
      <point x="454" y="678"/>
      <point x="378" y="701"/>
      <point x="307" y="701" type="curve"/>
      <point x="168" y="701"/>
      <point x="77" y="636"/>
    </contour>
  </outline>
</glyph>
<glyph name="T" format="1">
  <advance width="538"/>
  <unicode hex="0054"/>
  <outline>
    <contour>
      <point x="257" y="0" type="move" name="blwm"/>
    </contour>
    <contour>
      <point x="267" y="350" type="move" name="center"/>
    </contour>
    <contour>
      <point x="271" y="699" type="move" name="abvm"/>
    </contour>
    <contour>
      <point x="12" y="699" type="line"/>
      <point x="12" y="658" type="line"/>
      <point x="248" y="658" type="line"/>
      <point x="248" y="0" type="line"/>
      <point x="290" y="0" type="line"/>
      <point x="290" y="658" type="line"/>
      <point x="526" y="658" type="line"/>
      <point x="526" y="699" type="line"/>
    </contour>
  </outline>
</glyph>
<glyph name="U" format="1">
  <advance width="772"/>
  <unicode hex="0055"/>
  <outline>
    <contour>
      <point x="531" y="10" type="move" name="ogonek"/>
    </contour>
    <contour>
      <point x="386" y="699" type="move" name="abvm"/>
    </contour>
    <contour>
      <point x="627" y="699" type="line"/>
      <point x="627" y="286" type="line"/>
      <point x="627" y="130"/>
      <point x="539" y="40"/>
      <point x="386" y="40" type="curve"/>
      <point x="234" y="40"/>
      <point x="145" y="130"/>
      <point x="145" y="286" type="curve"/>
      <point x="145" y="699" type="line"/>
      <point x="103" y="699" type="line"/>
      <point x="103" y="286" type="line"/>
      <point x="103" y="104"/>
      <point x="207" y="-1"/>
      <point x="386" y="-1" type="curve"/>
      <point x="565" y="-1"/>
      <point x="669" y="104"/>
      <point x="669" y="286" type="curve"/>
      <point x="669" y="699" type="line"/>
    </contour>
  </outline>
</glyph>
<glyph name="V" format="1">
  <advance width="640"/>
  <unicode hex="0056"/>
  <outline>
    <contour>
      <point x="585" y="699" type="line"/>
      <point x="320" y="50" type="line"/>
      <point x="54" y="699" type="line"/>
      <point x="8" y="699" type="line"/>
      <point x="297" y="0" type="line"/>
      <point x="341" y="0" type="line"/>
      <point x="631" y="699" type="line"/>
    </contour>
  </outline>
</glyph>
<glyph name="W" format="1">
  <advance width="998"/>
  <unicode hex="0057"/>
  <outline>
    <contour>
      <point x="500" y="699" type="move" name="abvm"/>
    </contour>
    <contour>
      <point x="947" y="699" type="line"/>
      <point x="735" y="50" type="line"/>
      <point x="522" y="699" type="line"/>
      <point x="479" y="699" type="line"/>
      <point x="267" y="50" type="line"/>
      <point x="54" y="699" type="line"/>
      <point x="8" y="699" type="line"/>
      <point x="244" y="0" type="line"/>
      <point x="287" y="0" type="line"/>
      <point x="500" y="640" type="line"/>
      <point x="712" y="0" type="line"/>
      <point x="756" y="0" type="line"/>
      <point x="992" y="699" type="line"/>
    </contour>
  </outline>
</glyph>
<glyph name="X" format="1">
  <advance width="638"/>
  <unicode hex="0058"/>
  <outline>
    <contour>
      <point x="531" y="699" type="line"/>
      <point x="314" y="398" type="line"/>
      <point x="97" y="699" type="line"/>
      <point x="48" y="699" type="line"/>
      <point x="288" y="361" type="line"/>
      <point x="29" y="0" type="line"/>
      <point x="78" y="0" type="line"/>
      <point x="314" y="326" type="line"/>
      <point x="550" y="0" type="line"/>
      <point x="600" y="0" type="line"/>
      <point x="340" y="363" type="line"/>
      <point x="581" y="699" type="line"/>
    </contour>
  </outline>
</glyph>
<glyph name="Y" format="1">
  <advance width="613"/>
  <unicode hex="0059"/>
  <outline>
    <contour>
      <point x="306" y="699" type="move" name="abvm"/>
    </contour>
    <contour>
      <point x="330" y="0" type="line"/>
      <point x="330" y="257.87372" type="line"/>
      <point x="605" y="699.0" type="line"/>
      <point x="560" y="699.0" type="line"/>
      <point x="308" y="306" type="line"/>
      <point x="53.0" y="699.0" type="line"/>
      <point x="8" y="699.0" type="line"/>
      <point x="288" y="254.40541" type="line"/>
      <point x="288" y="0" type="line"/>
    </contour>
  </outline>
</glyph>
<glyph name="Z" format="1">
  <advance width="654"/>
  <unicode hex="005A"/>
  <outline>
    <contour>
      <point x="329" y="699" type="move" name="abvm"/>
    </contour>
    <contour>
      <point x="63" y="699" type="line"/>
      <point x="63" y="658" type="line"/>
      <point x="551" y="658" type="line"/>
      <point x="49" y="40" type="line"/>
      <point x="49" y="0" type="line"/>
      <point x="605" y="0" type="line"/>
      <point x="605" y="41" type="line"/>
      <point x="100" y="41" type="line"/>
      <point x="602" y="659" type="line"/>
      <point x="602" y="699" type="line"/>
    </contour>
  </outline>
</glyph>
<glyph name="asciicircum" format="1">
  <advance width="495"/>
  <unicode hex="005E"/>
  <outline>
    <contour>
      <point x="270" y="528" type="line"/>
      <point x="225" y="528" type="line"/>
      <point x="39" y="129" type="line"/>
      <point x="78" y="129" type="line"/>
      <point x="247" y="496" type="line"/>
      <point x="417" y="129" type="line"/>
      <point x="456" y="129" type="line"/>
    </contour>
  </outline>
</glyph>
<glyph name="underscore" format="1">
  <advance width="543"/>
  <unicode hex="005F"/>
  <outline>
    <contour>
      <point x="0" y="-172" type="line"/>
      <point x="0" y="-204" type="line"/>
      <point x="543" y="-204" type="line"/>
      <point x="543" y="-172" type="line"/>
    </contour>
  </outline>
</glyph>
<glyph name="grave" format="1">
  <advance width="350"/>
  <unicode hex="0060"/>
  <outline>
    <contour>
      <point x="223" y="521" type="move" name="_abvm"/>
    </contour>
    <contour>
      <point x="86" y="723" type="line"/>
      <point x="213" y="620" type="line"/>
      <point x="261" y="620" type="line"/>
      <point x="127" y="743" type="line"/>
    </contour>
  </outline>
</glyph>
<glyph name="a" format="1">
  <advance width="567"/>
  <unicode hex="0061"/>
  <outline>
    <contour>
      <point x="514" y="10" type="move" name="ogonek"/>
    </contour>
    <contour>
      <point x="278" y="521" type="move" name="abvm"/>
    </contour>
    <contour>
      <point x="236" y="37" type="curve"/>
      <point x="151" y="37"/>
      <point x="98" y="84"/>
      <point x="98" y="153" type="curve"/>
      <point x="98" y="220"/>
      <point x="154" y="255"/>
      <point x="256" y="255" type="curve"/>
      <point x="437.51312" y="255.0" type="line"/>
      <point x="438.00747" y="170.21832" type="line"/>
      <point x="407" y="80"/>
      <point x="334" y="37"/>
    </contour>
    <contour>
      <point x="439.0" y="0" type="line"/>
      <point x="480.0" y="0" type="line"/>
      <point x="478.0" y="346" type="line"/>
      <point x="477" y="454"/>
      <point x="410" y="522"/>
      <point x="287" y="522" type="curve"/>
      <point x="208" y="522"/>
      <point x="148" y="493"/>
      <point x="86" y="448" type="curve"/>
      <point x="106.0" y="416.0" type="line"/>
      <point x="161" y="458"/>
      <point x="216" y="484"/>
      <point x="281" y="484" type="curve"/>
      <point x="385" y="484"/>
      <point x="436" y="431"/>
      <point x="437" y="343" type="curve"/>
      <point x="437.29738" y="292" type="line"/>
      <point x="252.0" y="292" type="line"/>
      <point x="132" y="292"/>
      <point x="58" y="239"/>
      <point x="58" y="152" type="curve"/>
      <point x="58" y="64"/>
      <point x="127" y="-1"/>
      <point x="230" y="-1" type="curve"/>
      <point x="320.288383789" y="-1.0"/>
      <point x="393.570343842" y="30.7946182886"/>
      <point x="438.40129" y="102.6788" type="curve"/>
    </contour>
  </outline>
</glyph>
<glyph name="b" format="1">
  <advance width="671"/>
  <unicode hex="0062"/>
  <outline>
    <contour>
      <point x="372.0" y="-1.0" type="curve" smooth="yes"/>
      <point x="518" y="-1"/>
      <point x="623" y="108"/>
      <point x="623" y="260" type="curve" smooth="yes"/>
      <point x="623" y="413"/>
      <point x="517" y="522"/>
      <point x="371" y="522" type="curve" smooth="yes"/>
      <point x="269.401935132" y="522.0"/>
      <point x="188.711036784" y="468.736504341"/>
      <point x="150" y="382.90021" type="curve"/>
      <point x="150" y="742.0" type="line"/>
      <point x="109.0" y="742.0" type="line"/>
      <point x="109.0" y="0" type="line"/>
      <point x="150" y="0" type="line"/>
      <point x="150" y="137.40054" type="line"/>
      <point x="188.602249636" y="52.1182455625"/>
      <point x="269.131400284" y="-1.0"/>
    </contour>
    <contour>
      <point x="582" y="260" type="curve" smooth="yes"/>
      <point x="582" y="131"/>
      <point x="492" y="38"/>
      <point x="367" y="38" type="curve" smooth="yes"/>
      <point x="241" y="38"/>
      <point x="151" y="131"/>
      <point x="151" y="260" type="curve" smooth="yes"/>
      <point x="151" y="389"/>
      <point x="241" y="483"/>
      <point x="367" y="483" type="curve" smooth="yes"/>
      <point x="492" y="483"/>
      <point x="582" y="389"/>
    </contour>
  </outline>
</glyph>
<glyph name="c" format="1">
  <advance width="559"/>
  <unicode hex="0063"/>
  <outline>
    <contour>
      <point x="289" y="0" type="move" name="blwm"/>
    </contour>
    <contour>
      <point x="281" y="521" type="move" name="abvm"/>
    </contour>
    <contour>
      <point x="48" y="260" type="curve" smooth="yes"/>
      <point x="48" y="107"/>
      <point x="156" y="-1"/>
      <point x="303" y="-1" type="curve" smooth="yes"/>
      <point x="384" y="-1"/>
      <point x="453" y="30"/>
      <point x="498" y="84" type="curve"/>
      <point x="474" y="111" type="line"/>
      <point x="434" y="64"/>
      <point x="374" y="38"/>
      <point x="304" y="38" type="curve" smooth="yes"/>
      <point x="179" y="38"/>
      <point x="88" y="129"/>
      <point x="88" y="261" type="curve" smooth="yes"/>
      <point x="88" y="391"/>
      <point x="179" y="482"/>
      <point x="304" y="482" type="curve" smooth="yes"/>
      <point x="369" y="482"/>
      <point x="423" y="458"/>
      <point x="465" y="419" type="curve"/>
      <point x="488" y="449" type="line"/>
      <point x="443" y="495"/>
      <point x="378" y="522"/>
      <point x="303" y="522" type="curve" smooth="yes"/>
      <point x="156" y="522"/>
      <point x="48" y="413"/>
    </contour>
  </outline>
</glyph>
<glyph name="e" format="1">
  <advance width="589"/>
  <unicode hex="0065"/>
  <outline>
    <contour>
      <point x="296" y="0" type="move" name="blwm"/>
    </contour>
    <contour>
      <point x="513" y="10" type="move" name="ogonek"/>
    </contour>
    <contour>
      <point x="296" y="521" type="move" name="abvm"/>
    </contour>
    <contour>
      <point x="302.0" y="484.0" type="curve" smooth="yes"/>
      <point x="421" y="484"/>
      <point x="498" y="404"/>
      <point x="506" y="286" type="curve"/>
      <point x="89.02657" y="286" type="line"/>
      <point x="99.2463346997" y="404.001494748"/>
      <point x="184.79928719" y="484.0"/>
    </contour>
    <contour>
      <point x="504" y="82" type="curve"/>
      <point x="480.0" y="109.0" type="line"/>
      <point x="438" y="63"/>
      <point x="375" y="37"/>
      <point x="304" y="37" type="curve" smooth="yes"/>
      <point x="182.182641257" y="37.0"/>
      <point x="94.0148718361" y="122.05868412"/>
      <point x="88.29555" y="249.0" type="curve"/>
      <point x="544" y="249.0" type="line"/>
      <point x="546" y="410"/>
      <point x="455" y="522"/>
      <point x="301" y="522" type="curve" smooth="yes"/>
      <point x="155" y="522"/>
      <point x="48" y="413"/>
      <point x="48" y="260" type="curve" smooth="yes"/>
      <point x="48" y="107"/>
      <point x="155" y="-1"/>
      <point x="302" y="-1" type="curve" smooth="yes"/>
      <point x="385" y="-1"/>
      <point x="456" y="30"/>
    </contour>
  </outline>
</glyph>
<glyph name="f" format="1">
  <advance width="306"/>
  <unicode hex="0066"/>
  <outline>
    <contour>
      <point x="318" y="472.0" type="line"/>
      <point x="318" y="508.0" type="line"/>
      <point x="156" y="508.0" type="line"/>
      <point x="156" y="579" type="line"/>
      <point x="156" y="653"/>
      <point x="206" y="704"/>
      <point x="270" y="703" type="curve"/>
      <point x="300" y="703"/>
      <point x="331" y="691"/>
      <point x="356" y="672" type="curve"/>
      <point x="375.0" y="706.0" type="line"/>
      <point x="346" y="729"/>
      <point x="307" y="743"/>
      <point x="269" y="743" type="curve"/>
      <point x="186" y="744"/>
      <point x="115" y="677"/>
      <point x="115" y="576" type="curve"/>
      <point x="115.0" y="508.0" type="line"/>
      <point x="49.0" y="508.0" type="line"/>
      <point x="49.0" y="472.0" type="line"/>
      <point x="115.0" y="472.0" type="line"/>
      <point x="115.0" y="0" type="line"/>
      <point x="156" y="0" type="line"/>
      <point x="156" y="472.0" type="line"/>
    </contour>
  </outline>
</glyph>
<glyph name="g" format="1">
  <advance width="632"/>
  <unicode hex="0067"/>
  <outline>
    <contour>
      <point x="316" y="521" type="move" name="abvm"/>
    </contour>
    <contour>
      <point x="502" y="270" type="curve" smooth="yes"/>
      <point x="502" y="147"/>
      <point x="414" y="57"/>
      <point x="294" y="57" type="curve" smooth="yes"/>
      <point x="173" y="57"/>
      <point x="87" y="147"/>
      <point x="87" y="270" type="curve" smooth="yes"/>
      <point x="87" y="394"/>
      <point x="174" y="484"/>
      <point x="294" y="484" type="curve" smooth="yes"/>
      <point x="414" y="484"/>
      <point x="502" y="394"/>
    </contour>
    <contour>
      <point x="290" y="-194" type="curve" smooth="yes"/>
      <point x="443" y="-195"/>
      <point x="543" y="-97"/>
      <point x="543" y="57" type="curve"/>
      <point x="543" y="521" type="line"/>
      <point x="502.0" y="521" type="line"/>
      <point x="502.0" y="386.625" type="line"/>
      <point x="465.34426993" y="469.930217399"/>
      <point x="387.541070168" y="522.0"/>
      <point x="288.0" y="522.0" type="curve" smooth="yes"/>
      <point x="148" y="522"/>
      <point x="48" y="417"/>
      <point x="48" y="271" type="curve" smooth="yes"/>
      <point x="48" y="126"/>
      <point x="149" y="21"/>
      <point x="289" y="21" type="curve" smooth="yes"/>
      <point x="387.808341405" y="21.0"/>
      <point x="465.393676242" y="72.5415873808"/>
      <point x="502.0" y="155.53803" type="curve"/>
      <point x="502.0" y="57.0" type="line"/>
      <point x="502" y="-73"/>
      <point x="418" y="-156"/>
      <point x="289" y="-155" type="curve" smooth="yes"/>
      <point x="214" y="-153"/>
      <point x="155" y="-129"/>
      <point x="101" y="-78" type="curve"/>
      <point x="79" y="-109.0" type="line"/>
      <point x="140" y="-164"/>
      <point x="207" y="-192"/>
    </contour>
  </outline>
</glyph>
<glyph name="h" format="1">
  <advance width="654"/>
  <unicode hex="0068"/>
  <outline>
    <contour>
      <point x="581" y="0" type="move" name="blwm"/>
    </contour>
    <contour>
      <point x="329" y="261" type="move" name="center"/>
    </contour>
    <contour>
      <point x="130" y="742" type="move" name="abvm"/>
    </contour>
    <contour>
      <point x="231" y="522" type="move" name="topright"/>
    </contour>
    <contour>
      <point x="150" y="255.0" type="line"/>
      <point x="150" y="391"/>
      <point x="226" y="477"/>
      <point x="354" y="480" type="curve"/>
      <point x="461" y="480"/>
      <point x="525" y="417"/>
      <point x="525" y="310" type="curve"/>
      <point x="525" y="0" type="line" smooth="yes"/>
      <point x="566" y="0" type="line"/>
      <point x="566" y="318" type="line"/>
      <point x="566" y="445"/>
      <point x="491" y="522"/>
      <point x="364" y="522" type="curve"/>
      <point x="259.12800879" y="519.859755281"/>
      <point x="184.284706455" y="472.421996838"/>
      <point x="150" y="382.93021" type="curve"/>
      <point x="150" y="742.0" type="line"/>
      <point x="109.0" y="742.0" type="line"/>
      <point x="109.0" y="0" type="line"/>
      <point x="150" y="0" type="line"/>
    </contour>
  </outline>
</glyph>
<glyph name="i" format="1">
  <advance width="250"/>
  <unicode hex="0069"/>
  <outline>
    <contour>
      <point x="125" y="521" type="move" name="_abvm"/>
    </contour>
    <contour>
      <point x="202" y="10" type="move" name="ogonek"/>
    </contour>
    <contour>
      <point x="125" y="521" type="move" name="abvm"/>
    </contour>
    <contour>
      <point x="90" y="671" type="curve" smooth="yes"/>
      <point x="90" y="650"/>
      <point x="106" y="634"/>
      <point x="125" y="634" type="curve" smooth="yes"/>
      <point x="144" y="634"/>
      <point x="160" y="650"/>
      <point x="160" y="671" type="curve" smooth="yes"/>
      <point x="160" y="691"/>
      <point x="144" y="707"/>
      <point x="125" y="707" type="curve" smooth="yes"/>
      <point x="106" y="707"/>
      <point x="90" y="691"/>
    </contour>
    <contour>
      <point x="104" y="521" type="line"/>
      <point x="104" y="0" type="line"/>
      <point x="145" y="0" type="line"/>
      <point x="145" y="521" type="line"/>
    </contour>
  </outline>
</glyph>
<glyph name="j" format="1">
  <advance width="247"/>
  <unicode hex="006A"/>
  <outline>
    <contour>
      <point x="85" y="671" type="curve" smooth="yes"/>
      <point x="85" y="650"/>
      <point x="101" y="634"/>
      <point x="121" y="634" type="curve" smooth="yes"/>
      <point x="141" y="634"/>
      <point x="157" y="650"/>
      <point x="157" y="671" type="curve" smooth="yes"/>
      <point x="157" y="691"/>
      <point x="141" y="707"/>
      <point x="121" y="707" type="curve" smooth="yes"/>
      <point x="101" y="707"/>
      <point x="85" y="691"/>
    </contour>
    <contour>
      <point x="100" y="521" type="line"/>
      <point x="100" y="-30" type="line"/>
      <point x="100" y="-113"/>
      <point x="68" y="-155"/>
      <point x="11" y="-154" type="curve"/>
      <point x="-18" y="-154"/>
      <point x="-49" y="-143"/>
      <point x="-74" y="-123" type="curve"/>
      <point x="-91" y="-158" type="line"/>
      <point x="-61" y="-181"/>
      <point x="-25" y="-194"/>
      <point x="13" y="-195" type="curve"/>
      <point x="91" y="-195"/>
      <point x="141" y="-140"/>
      <point x="141" y="-27" type="curve"/>
      <point x="141" y="521" type="line"/>
    </contour>
  </outline>
</glyph>
<glyph name="k" format="1">
  <advance width="551"/>
  <unicode hex="006B"/>
  <outline>
    <contour>
      <point x="109" y="0" type="move" name="blwm"/>
    </contour>
    <contour>
      <point x="130" y="742" type="move" name="abvm"/>
    </contour>
    <contour>
      <point x="233" y="521" type="move" name="topright"/>
    </contour>
    <contour>
      <point x="487.0" y="0" type="line"/>
      <point x="536" y="0" type="line"/>
      <point x="312.75643" y="318.91939" type="line"/>
      <point x="510.0" y="521" type="line"/>
      <point x="459.0" y="521" type="line"/>
      <point x="150" y="212.0" type="line"/>
      <point x="150" y="742.0" type="line"/>
      <point x="109.0" y="742.0" type="line"/>
      <point x="109.0" y="0" type="line"/>
      <point x="150" y="0" type="line"/>
      <point x="150" y="152.17166" type="line"/>
      <point x="283.16714" y="288.60448" type="line"/>
    </contour>
  </outline>
</glyph>
<glyph name="l" format="1">
  <advance width="260"/>
  <unicode hex="006C"/>
  <outline>
    <contour>
      <point x="130" y="0" type="move" name="blwm"/>
    </contour>
    <contour>
      <point x="130" y="742" type="move" name="abvm"/>
    </contour>
    <contour>
      <point x="233" y="521" type="move" name="topright"/>
    </contour>
    <contour>
      <point x="109" y="742" type="line"/>
      <point x="109" y="0" type="line"/>
      <point x="150" y="0" type="line"/>
      <point x="150" y="742" type="line"/>
    </contour>
  </outline>
</glyph>
<glyph name="m" format="1">
  <advance width="1045"/>
  <unicode hex="006D"/>
  <outline>
    <contour>
      <point x="145" y="255.0" type="line"/>
      <point x="145" y="391"/>
      <point x="219" y="477"/>
      <point x="344" y="480" type="curve"/>
      <point x="448" y="480"/>
      <point x="511" y="417"/>
      <point x="511" y="310" type="curve"/>
      <point x="511.0" y="0" type="line" smooth="yes"/>
      <point x="552" y="0" type="line"/>
      <point x="552" y="255.0" type="line"/>
      <point x="552" y="391"/>
      <point x="625" y="477"/>
      <point x="750" y="480" type="curve"/>
      <point x="855" y="480"/>
      <point x="917" y="417"/>
      <point x="917" y="310" type="curve"/>
      <point x="917.0" y="0" type="line" smooth="yes"/>
      <point x="958.0" y="0" type="line"/>
      <point x="958.0" y="318" type="line"/>
      <point x="958" y="445"/>
      <point x="885" y="522"/>
      <point x="761" y="522" type="curve"/>
      <point x="653.675214038" y="519.764066959"/>
      <point x="578.568761484" y="468.089656793"/>
      <point x="547.27297" y="370.68996" type="curve"/>
      <point x="529.148057344" y="465.986614517"/>
      <point x="459.76019279" y="522.0"/>
      <point x="354.0" y="522.0" type="curve"/>
      <point x="251.744940481" y="519.86968626"/>
      <point x="178.736294804" y="472.861254727"/>
      <point x="145" y="384.1599" type="curve"/>
      <point x="145" y="521" type="line"/>
      <point x="104.0" y="521" type="line"/>
      <point x="104.0" y="0" type="line"/>
      <point x="145" y="0" type="line"/>
    </contour>
  </outline>
</glyph>
<glyph name="n" format="1">
  <advance width="648"/>
  <unicode hex="006E"/>
  <outline>
    <contour>
      <point x="327" y="0" type="move" name="blwm"/>
    </contour>
    <contour>
      <point x="335" y="521" type="move" name="abvm"/>
    </contour>
    <contour>
      <point x="348.0" y="480.0" type="curve"/>
      <point x="455" y="480"/>
      <point x="519" y="417"/>
      <point x="519" y="310" type="curve"/>
      <point x="519" y="0" type="line" smooth="yes"/>
      <point x="560" y="0" type="line"/>
      <point x="560" y="318" type="line"/>
      <point x="560" y="445"/>
      <point x="485" y="522"/>
      <point x="358" y="522" type="curve"/>
      <point x="254.136171828" y="519.880330037"/>
      <point x="179.726459689" y="473.329874873"/>
      <point x="145" y="385.49128" type="curve"/>
      <point x="145" y="521" type="line"/>
      <point x="104.0" y="521" type="line"/>
      <point x="104.0" y="0" type="line"/>
      <point x="145" y="0" type="line"/>
      <point x="145" y="281.3004" type="line"/>
      <point x="154.331519777" y="402.064432967"/>
      <point x="228.506815025" y="477.199378477"/>
    </contour>
  </outline>
</glyph>
<glyph name="o" format="1">
  <advance width="610"/>
  <unicode hex="006F"/>
  <outline>
    <contour>
      <point x="305" y="521" type="move" name="abvm"/>
    </contour>
    <contour>
      <point x="48" y="261" type="curve" smooth="yes"/>
      <point x="48" y="107"/>
      <point x="156" y="-1"/>
      <point x="305" y="-1" type="curve" smooth="yes"/>
      <point x="453" y="-1"/>
      <point x="562" y="107"/>
      <point x="562" y="261" type="curve" smooth="yes"/>
      <point x="562" y="413"/>
      <point x="453" y="522"/>
      <point x="305" y="522" type="curve" smooth="yes"/>
      <point x="156" y="522"/>
      <point x="48" y="413"/>
    </contour>
    <contour>
      <point x="520" y="260" type="curve" smooth="yes"/>
      <point x="520" y="129"/>
      <point x="430" y="38"/>
      <point x="305" y="38" type="curve" smooth="yes"/>
      <point x="179" y="38"/>
      <point x="89" y="129"/>
      <point x="89" y="260" type="curve" smooth="yes"/>
      <point x="89" y="391"/>
      <point x="179" y="482"/>
      <point x="305" y="482" type="curve" smooth="yes"/>
      <point x="430" y="482"/>
      <point x="520" y="391"/>
    </contour>
  </outline>
</glyph>
<glyph name="q" format="1">
  <advance width="675"/>
  <unicode hex="0071"/>
  <outline>
    <contour>
      <point x="565" y="-194.0" type="line"/>
      <point x="565" y="521" type="line"/>
      <point x="524" y="521" type="line"/>
      <point x="524" y="383.64265" type="line"/>
      <point x="485.186680203" y="470.191554502"/>
      <point x="404.05431974" y="524.0"/>
      <point x="301.0" y="524.0" type="curve" smooth="yes"/>
      <point x="154" y="524"/>
      <point x="48" y="414"/>
      <point x="48" y="260" type="curve" smooth="yes"/>
      <point x="48" y="107"/>
      <point x="154" y="-3"/>
      <point x="301" y="-3" type="curve" smooth="yes"/>
      <point x="404.05431974" y="-3.0"/>
      <point x="485.186680203" y="50.8084454982"/>
      <point x="524" y="136.97755" type="curve"/>
      <point x="524" y="-194.0" type="line"/>
    </contour>
    <contour>
      <point x="524" y="260" type="curve" smooth="yes"/>
      <point x="524" y="130"/>
      <point x="433" y="36"/>
      <point x="307" y="36" type="curve" smooth="yes"/>
      <point x="180" y="36"/>
      <point x="89" y="130"/>
      <point x="89" y="260" type="curve" smooth="yes"/>
      <point x="89" y="389"/>
      <point x="180" y="484"/>
      <point x="307" y="484" type="curve" smooth="yes"/>
      <point x="433" y="484"/>
      <point x="524" y="390"/>
    </contour>
  </outline>
</glyph>
<glyph name="r" format="1">
  <advance width="350"/>
  <unicode hex="0072"/>
  <outline>
    <contour>
      <point x="124" y="0" type="move" name="blwm"/>
    </contour>
    <contour>
      <point x="174" y="521" type="move" name="abvm"/>
    </contour>
    <contour>
      <point x="145" y="0" type="line"/>
      <point x="145" y="281.3723" type="line"/>
      <point x="154.071340639" y="403.471451778"/>
      <point x="224.463920276" y="479.0"/>
      <point x="340.0" y="479.0" type="curve"/>
      <point x="340" y="522" type="line"/>
      <point x="245.103457579" y="519.921973524"/>
      <point x="177.555477389" y="472.742809333"/>
      <point x="145" y="388.40838" type="curve"/>
      <point x="145" y="521" type="line"/>
      <point x="104.0" y="521" type="line"/>
      <point x="104.0" y="0" type="line"/>
    </contour>
  </outline>
</glyph>
<glyph name="s" format="1">
  <advance width="437"/>
  <unicode hex="0073"/>
  <outline>
    <contour>
      <point x="215" y="0" type="move" name="blwm"/>
    </contour>
    <contour>
      <point x="219" y="521" type="move" name="abvm"/>
    </contour>
    <contour>
      <point x="56" y="391" type="curve" smooth="yes"/>
      <point x="56" y="212"/>
      <point x="364" y="279"/>
      <point x="360" y="132" type="curve" smooth="yes"/>
      <point x="357" y="66"/>
      <point x="294" y="37"/>
      <point x="221" y="37" type="curve" smooth="yes"/>
      <point x="155" y="37"/>
      <point x="92" y="61"/>
      <point x="47" y="103" type="curve"/>
      <point x="28" y="71" type="line"/>
      <point x="76" y="25"/>
      <point x="146" y="-1"/>
      <point x="219" y="-1" type="curve" smooth="yes"/>
      <point x="313" y="-1"/>
      <point x="400" y="42"/>
      <point x="400" y="139" type="curve" smooth="yes"/>
      <point x="400" y="323"/>
      <point x="96" y="254"/>
      <point x="96" y="394" type="curve" smooth="yes"/>
      <point x="96" y="456"/>
      <point x="153" y="484"/>
      <point x="226" y="484" type="curve" smooth="yes"/>
      <point x="276" y="484"/>
      <point x="322" y="470"/>
      <point x="358" y="447" type="curve"/>
      <point x="376" y="481" type="line"/>
      <point x="335" y="506"/>
      <point x="285" y="522"/>
      <point x="227" y="522" type="curve" smooth="yes"/>
      <point x="135" y="522"/>
      <point x="56" y="482"/>
    </contour>
  </outline>
</glyph>
<glyph name="t" format="1">
  <advance width="372"/>
  <unicode hex="0074"/>
  <outline>
    <contour>
      <point x="226" y="0" type="move" name="blwm"/>
    </contour>
    <contour>
      <point x="186" y="261" type="move" name="center"/>
    </contour>
    <contour>
      <point x="241" y="-1" type="curve"/>
      <point x="279" y="-1"/>
      <point x="316" y="13"/>
      <point x="349" y="36" type="curve"/>
      <point x="333" y="70" type="line"/>
      <point x="306" y="51"/>
      <point x="276" y="40"/>
      <point x="246" y="40" type="curve"/>
      <point x="192" y="39"/>
      <point x="163" y="75"/>
      <point x="163" y="149" type="curve"/>
      <point x="163" y="472.0" type="line"/>
      <point x="339" y="472.0" type="line"/>
      <point x="339" y="508.0" type="line"/>
      <point x="163" y="508.0" type="line"/>
      <point x="163" y="637" type="line"/>
      <point x="122.0" y="637" type="line"/>
      <point x="122.0" y="508.0" type="line"/>
      <point x="46.0" y="508.0" type="line"/>
      <point x="46.0" y="472.0" type="line"/>
      <point x="122.0" y="472.0" type="line"/>
      <point x="122.0" y="144" type="line"/>
      <point x="122" y="46"/>
      <point x="167" y="-2"/>
    </contour>
  </outline>
</glyph>
<glyph name="u" format="1">
  <advance width="641"/>
  <unicode hex="0075"/>
  <outline>
    <contour>
      <point x="573" y="10" type="move" name="ogonek"/>
    </contour>
    <contour>
      <point x="318" y="521" type="move" name="abvm"/>
    </contour>
    <contour>
      <point x="495.0" y="0" type="line"/>
      <point x="536" y="0" type="line"/>
      <point x="536" y="521" type="line"/>
      <point x="495.0" y="521" type="line"/>
      <point x="495.0" y="266" type="line"/>
      <point x="495" y="130"/>
      <point x="421" y="44"/>
      <point x="296" y="41" type="curve"/>
      <point x="191" y="41"/>
      <point x="128" y="104"/>
      <point x="128" y="211" type="curve"/>
      <point x="128" y="521" type="line" smooth="yes"/>
      <point x="87.0" y="521" type="line"/>
      <point x="87.0" y="203.0" type="line"/>
      <point x="87" y="75"/>
      <point x="161" y="-1"/>
      <point x="286" y="-1" type="curve"/>
      <point x="389.074613352" y="0.431591852106"/>
      <point x="461.919762046" y="48.4882902098"/>
      <point x="495.0" y="138.79217" type="curve"/>
    </contour>
  </outline>
</glyph>
<glyph name="v" format="1">
  <advance width="471"/>
  <unicode hex="0076"/>
  <outline>
    <contour>
      <point x="428" y="521" type="line"/>
      <point x="241" y="45" type="line"/>
      <point x="53" y="521" type="line"/>
      <point x="8" y="521" type="line"/>
      <point x="219" y="0" type="line"/>
      <point x="262" y="0" type="line"/>
      <point x="472" y="521" type="line"/>
    </contour>
  </outline>
</glyph>
<glyph name="w" format="1">
  <advance width="835"/>
  <unicode hex="0077"/>
  <outline>
    <contour>
      <point x="417" y="521" type="move" name="abvm"/>
    </contour>
    <contour>
      <point x="792" y="521" type="line"/>
      <point x="619" y="45" type="line"/>
      <point x="445" y="521" type="line"/>
      <point x="400" y="521" type="line"/>
      <point x="227" y="45" type="line"/>
      <point x="53" y="521" type="line"/>
      <point x="8" y="521" type="line"/>
      <point x="205" y="0" type="line"/>
      <point x="248" y="0" type="line"/>
      <point x="423" y="466" type="line"/>
      <point x="596" y="0" type="line"/>
      <point x="639" y="0" type="line"/>
      <point x="836" y="521" type="line"/>
    </contour>
  </outline>
</glyph>
<glyph name="x" format="1">
  <advance width="503"/>
  <unicode hex="0078"/>
  <outline>
    <contour>
      <point x="42" y="521" type="line"/>
      <point x="224" y="269" type="line"/>
      <point x="27" y="0" type="line"/>
      <point x="75" y="0" type="line"/>
      <point x="250" y="237" type="line"/>
      <point x="423" y="0" type="line"/>
      <point x="472" y="0" type="line"/>
      <point x="277" y="269" type="line"/>
      <point x="459" y="521" type="line"/>
      <point x="412" y="521" type="line"/>
      <point x="251" y="300" type="line"/>
      <point x="90" y="521" type="line"/>
    </contour>
  </outline>
</glyph>
<glyph name="y" format="1">
  <advance width="473"/>
  <unicode hex="0079"/>
  <outline>
    <contour>
      <point x="241" y="521" type="move" name="abvm"/>
    </contour>
    <contour>
      <point x="430" y="521" type="line"/>
      <point x="243" y="49" type="line"/>
      <point x="51" y="521" type="line"/>
      <point x="7" y="521" type="line"/>
      <point x="223" y="0" type="line"/>
      <point x="198" y="-59" type="line" smooth="yes"/>
      <point x="173" y="-120"/>
      <point x="134" y="-153"/>
      <point x="86" y="-153" type="curve" smooth="yes"/>
      <point x="57" y="-153"/>
      <point x="30" y="-145"/>
      <point x="8" y="-129" type="curve"/>
      <point x="-10" y="-165" type="line"/>
      <point x="17" y="-185"/>
      <point x="50" y="-195"/>
      <point x="89" y="-195" type="curve" smooth="yes"/>
      <point x="149" y="-195"/>
      <point x="200" y="-153"/>
      <point x="232" y="-75" type="curve" smooth="yes"/>
      <point x="474" y="521" type="line"/>
    </contour>
  </outline>
</glyph>
<glyph name="z" format="1">
  <advance width="516"/>
  <unicode hex="007A"/>
  <outline>
    <contour>
      <point x="258" y="521" type="move" name="abvm"/>
    </contour>
    <contour>
      <point x="67" y="521" type="line"/>
      <point x="67" y="482" type="line"/>
      <point x="413" y="482" type="line"/>
      <point x="58" y="38" type="line"/>
      <point x="58" y="0" type="line"/>
      <point x="468" y="-1" type="line"/>
      <point x="468" y="37" type="line"/>
      <point x="105" y="38" type="line"/>
      <point x="461" y="482" type="line"/>
      <point x="461" y="520" type="line"/>
    </contour>
  </outline>
</glyph>
<glyph name="braceleft" format="1">
  <advance width="294"/>
  <unicode hex="007B"/>
  <outline>
    <contour>
      <point x="268" y="-126.0" type="line"/>
      <point x="268" y="-88.0" type="line"/>
      <point x="195" y="-88"/>
      <point x="163" y="-64"/>
      <point x="163" y="-9" type="curve" smooth="yes"/>
      <point x="163" y="220.0" type="line" smooth="yes"/>
      <point x="163.0" y="270.954222432"/>
      <point x="149.753404165" y="297.071077673"/>
      <point x="116.48038" y="308.10716" type="curve"/>
      <point x="149.753404165" y="319.928922327"/>
      <point x="163.0" y="346.045777568"/>
      <point x="163.0" y="397.0" type="curve" smooth="yes"/>
      <point x="163" y="625" type="line" smooth="yes"/>
      <point x="163" y="680"/>
      <point x="195" y="704"/>
      <point x="268" y="704" type="curve"/>
      <point x="268" y="742.0" type="line"/>
      <point x="254.0" y="742.0" type="line" smooth="yes"/>
      <point x="164" y="742"/>
      <point x="124" y="710"/>
      <point x="124" y="634" type="curve" smooth="yes"/>
      <point x="124.0" y="395.0" type="line" smooth="yes"/>
      <point x="124" y="349"/>
      <point x="107" y="327"/>
      <point x="72" y="327" type="curve" smooth="yes"/>
      <point x="50.0" y="327" type="line"/>
      <point x="50.0" y="289" type="line"/>
      <point x="72" y="289" type="line" smooth="yes"/>
      <point x="107" y="289"/>
      <point x="124" y="268"/>
      <point x="124" y="222" type="curve" smooth="yes"/>
      <point x="124.0" y="-18" type="line" smooth="yes"/>
      <point x="124" y="-93"/>
      <point x="164" y="-126"/>
      <point x="254" y="-126" type="curve" smooth="yes"/>
    </contour>
  </outline>
</glyph>
<glyph name="bar" format="1">
  <advance width="231"/>
  <unicode hex="007C"/>
  <outline>
    <contour>
      <point x="98" y="821" type="line"/>
      <point x="98" y="-126" type="line"/>
      <point x="133" y="-126" type="line"/>
      <point x="133" y="821" type="line"/>
    </contour>
  </outline>
</glyph>
<glyph name="braceright" format="1">
  <advance width="296"/>
  <unicode hex="007D"/>
  <outline>
    <contour>
      <point x="32" y="-126.0" type="line"/>
      <point x="46.0" y="-126.0" type="line" smooth="yes"/>
      <point x="136" y="-126"/>
      <point x="176" y="-93"/>
      <point x="176" y="-18" type="curve" smooth="yes"/>
      <point x="176.0" y="222.0" type="line" smooth="yes"/>
      <point x="176" y="268"/>
      <point x="193" y="289"/>
      <point x="228" y="289" type="curve" smooth="yes"/>
      <point x="250.0" y="289" type="line"/>
      <point x="250.0" y="327" type="line"/>
      <point x="228.0" y="327" type="line"/>
      <point x="193" y="327"/>
      <point x="176" y="349"/>
      <point x="176" y="395" type="curve" smooth="yes"/>
      <point x="176.0" y="634" type="line" smooth="yes"/>
      <point x="176" y="710"/>
      <point x="136" y="742"/>
      <point x="46" y="742" type="curve" smooth="yes"/>
      <point x="32" y="742.0" type="line"/>
      <point x="32" y="704.0" type="line"/>
      <point x="105" y="704"/>
      <point x="137" y="680"/>
      <point x="137" y="625" type="curve" smooth="yes"/>
      <point x="137" y="397.0" type="line" smooth="yes"/>
      <point x="137.0" y="346.045777568"/>
      <point x="150.246595835" y="319.928922327"/>
      <point x="183.51962" y="308.10716" type="curve"/>
      <point x="150.246595835" y="297.071077673"/>
      <point x="137.0" y="270.954222432"/>
      <point x="137.0" y="220.0" type="curve" smooth="yes"/>
      <point x="137" y="-9" type="line" smooth="yes"/>
      <point x="137" y="-64"/>
      <point x="105" y="-88"/>
      <point x="32" y="-88" type="curve"/>
    </contour>
  </outline>
</glyph>
<glyph name="asciitilde" format="1">
  <advance width="484"/>
  <unicode hex="007E"/>
  <outline>
    <contour>
      <point x="79" y="274" type="curve"/>
      <point x="112" y="274" type="line"/>
      <point x="112" y="310"/>
      <point x="129" y="331"/>
      <point x="160" y="331" type="curve" smooth="yes"/>
      <point x="211" y="331"/>
      <point x="262" y="265"/>
      <point x="330" y="265" type="curve" smooth="yes"/>
      <point x="378" y="265"/>
      <point x="405" y="299"/>
      <point x="405" y="359" type="curve"/>
      <point x="372" y="359" type="line"/>
      <point x="372" y="323"/>
      <point x="355" y="302"/>
      <point x="325" y="302" type="curve" smooth="yes"/>
      <point x="274" y="302"/>
      <point x="215" y="369"/>
      <point x="155" y="369" type="curve" smooth="yes"/>
      <point x="107" y="369"/>
      <point x="79" y="334"/>
    </contour>
  </outline>
</glyph>
<glyph name="exclamdown" format="1">
  <advance width="202"/>
  <unicode hex="00A1"/>
  <outline>
    <contour>
      <point x="135" y="492" type="curve" smooth="yes"/>
      <point x="135" y="511"/>
      <point x="120" y="527"/>
      <point x="101" y="527" type="curve" smooth="yes"/>
      <point x="82" y="527"/>
      <point x="67" y="511"/>
      <point x="67" y="492" type="curve" smooth="yes"/>
      <point x="67" y="472"/>
      <point x="82" y="456"/>
      <point x="101" y="456" type="curve" smooth="yes"/>
      <point x="120" y="456"/>
      <point x="135" y="472"/>
    </contour>
    <contour>
      <point x="121" y="-164" type="line"/>
      <point x="121" y="0" type="line"/>
      <point x="117" y="323" type="line"/>
      <point x="85" y="323" type="line"/>
      <point x="81" y="0" type="line"/>
      <point x="81" y="-164" type="line"/>
    </contour>
  </outline>
</glyph>
<glyph name="cent" format="1">
  <advance width="559"/>
  <unicode hex="00A2"/>
  <note>
    cent
  </note>
  <outline>
    <contour>
      <point x="474" y="111" type="line"/>
      <point x="436" y="66"/>
      <point x="379" y="41"/>
      <point x="313" y="39" type="curve"/>
      <point x="313" y="482" type="line"/>
      <point x="374" y="480"/>
      <point x="425" y="456"/>
      <point x="465" y="419" type="curve"/>
      <point x="489" y="449" type="line"/>
      <point x="445" y="493"/>
      <point x="384" y="519"/>
      <point x="313" y="522" type="curve"/>
      <point x="313" y="661" type="line"/>
      <point x="278" y="661" type="line"/>
      <point x="278" y="521" type="line"/>
      <point x="144" y="509"/>
      <point x="48" y="405"/>
      <point x="48" y="260" type="curve" smooth="yes"/>
      <point x="48" y="116"/>
      <point x="144" y="11"/>
      <point x="278" y="0" type="curve"/>
      <point x="278" y="-125" type="line"/>
      <point x="313" y="-125" type="line"/>
      <point x="313" y="-1" type="line"/>
      <point x="390" y="2"/>
      <point x="455" y="33"/>
      <point x="499" y="84" type="curve"/>
    </contour>
    <contour>
      <point x="278" y="480" type="curve"/>
      <point x="278" y="40" type="line"/>
      <point x="167" y="51"/>
      <point x="89" y="139"/>
      <point x="89" y="261" type="curve" smooth="yes"/>
      <point x="89" y="382"/>
      <point x="167" y="469"/>
    </contour>
  </outline>
</glyph>
<glyph name="sterling" format="1">
  <advance width="535"/>
  <unicode hex="00A3"/>
  <note>
    sterling
  </note>
  <outline>
    <contour>
      <point x="490.0" y="39" type="line"/>
      <point x="182.0" y="39" type="line"/>
      <point x="182.0" y="322" type="line"/>
      <point x="370.0" y="322" type="line"/>
      <point x="370.0" y="358.0" type="line"/>
      <point x="182.0" y="358.0" type="line"/>
      <point x="182.0" y="497.0" type="line" smooth="yes"/>
      <point x="182" y="603"/>
      <point x="232" y="659"/>
      <point x="324" y="659" type="curve" smooth="yes"/>
      <point x="384" y="659"/>
      <point x="438" y="629"/>
      <point x="479" y="571" type="curve"/>
      <point x="501.0" y="604" type="line"/>
      <point x="455" y="666"/>
      <point x="391" y="701"/>
      <point x="321" y="701" type="curve" smooth="yes"/>
      <point x="205" y="701"/>
      <point x="140" y="628"/>
      <point x="140" y="497" type="curve" smooth="yes"/>
      <point x="140" y="358.0" type="line"/>
      <point x="49.0" y="358.0" type="line"/>
      <point x="49.0" y="322" type="line"/>
      <point x="140" y="322" type="line"/>
      <point x="140" y="39" type="line"/>
      <point x="49.0" y="39" type="line"/>
      <point x="49.0" y="0" type="line"/>
      <point x="490.0" y="0" type="line"/>
    </contour>
  </outline>
</glyph>
<glyph name="currency" format="1">
  <advance width="723"/>
  <unicode hex="00A4"/>
  <note>
    currency
  </note>
  <outline>
    <contour>
      <point x="569" y="498" type="curve"/>
      <point x="674" y="604" type="line"/>
      <point x="649" y="631" type="line"/>
      <point x="541" y="524" type="line"/>
      <point x="493" y="564"/>
      <point x="430" y="588"/>
      <point x="361" y="588" type="curve" smooth="yes"/>
      <point x="293" y="588"/>
      <point x="231" y="563"/>
      <point x="182" y="523" type="curve"/>
      <point x="74" y="631" type="line"/>
      <point x="48" y="604" type="line"/>
      <point x="155" y="497" type="line"/>
      <point x="111" y="449"/>
      <point x="84" y="386"/>
      <point x="84" y="317" type="curve" smooth="yes"/>
      <point x="84" y="249"/>
      <point x="111" y="186"/>
      <point x="155" y="138" type="curve"/>
      <point x="48" y="31" type="line"/>
      <point x="74" y="4" type="line"/>
      <point x="183" y="112" type="line"/>
      <point x="231" y="73"/>
      <point x="293" y="49"/>
      <point x="361" y="49" type="curve" smooth="yes"/>
      <point x="429" y="49"/>
      <point x="492" y="72"/>
      <point x="541" y="112" type="curve"/>
      <point x="649" y="4" type="line"/>
      <point x="674" y="31" type="line"/>
      <point x="569" y="137" type="line"/>
      <point x="614" y="185"/>
      <point x="641" y="248"/>
      <point x="641" y="317" type="curve" smooth="yes"/>
      <point x="641" y="386"/>
      <point x="614" y="450"/>
    </contour>
    <contour>
      <point x="361" y="549" type="curve" smooth="yes"/>
      <point x="496" y="549"/>
      <point x="605" y="444"/>
      <point x="605" y="317" type="curve" smooth="yes"/>
      <point x="605" y="191"/>
      <point x="496" y="88"/>
      <point x="361" y="88" type="curve" smooth="yes"/>
      <point x="228" y="88"/>
      <point x="120" y="191"/>
      <point x="120" y="317" type="curve" smooth="yes"/>
      <point x="120" y="444"/>
      <point x="228" y="549"/>
    </contour>
  </outline>
</glyph>
<glyph name="yen" format="1">
  <advance width="611"/>
  <unicode hex="00A5"/>
  <note>
    yen
  </note>
  <outline>
    <contour>
      <point x="605" y="699" type="line"/>
      <point x="560" y="699" type="line"/>
      <point x="308" y="306" type="line"/>
      <point x="53" y="699" type="line"/>
      <point x="8" y="699" type="line"/>
      <point x="261" y="297" type="line"/>
      <point x="81" y="297" type="line"/>
      <point x="81" y="270" type="line"/>
      <point x="278" y="270" type="line"/>
      <point x="288" y="255" type="line"/>
      <point x="288" y="159" type="line"/>
      <point x="81" y="159" type="line"/>
      <point x="81" y="131" type="line"/>
      <point x="288" y="131" type="line"/>
      <point x="288" y="0" type="line"/>
      <point x="329" y="0" type="line"/>
      <point x="329" y="131" type="line"/>
      <point x="535" y="131" type="line"/>
      <point x="535" y="159" type="line"/>
      <point x="329" y="159" type="line"/>
      <point x="329" y="256" type="line"/>
      <point x="338" y="270" type="line"/>
      <point x="535" y="270" type="line"/>
      <point x="535" y="297" type="line"/>
      <point x="355" y="297" type="line"/>
    </contour>
  </outline>
</glyph>
<glyph name="brokenbar" format="1">
  <advance width="231"/>
  <unicode hex="00A6"/>
  <outline>
    <contour>
      <point x="98" y="821" type="line"/>
      <point x="98" y="469" type="line"/>
      <point x="133" y="469" type="line"/>
      <point x="133" y="821" type="line"/>
    </contour>
    <contour>
      <point x="98" y="225" type="line"/>
      <point x="98" y="-126" type="line"/>
      <point x="133" y="-126" type="line"/>
      <point x="133" y="225" type="line"/>
    </contour>
  </outline>
</glyph>
<glyph name="section" format="1">
  <advance width="447"/>
  <unicode hex="00A7"/>
  <outline>
    <contour>
      <point x="372" y="307" type="curve" smooth="yes"/>
      <point x="372" y="248"/>
      <point x="317" y="206"/>
      <point x="246" y="206" type="curve" smooth="yes"/>
      <point x="166" y="206"/>
      <point x="92" y="259"/>
      <point x="92" y="319" type="curve" smooth="yes"/>
      <point x="92" y="372"/>
      <point x="146" y="407"/>
      <point x="229" y="407" type="curve" smooth="yes"/>
      <point x="318" y="407"/>
      <point x="372" y="366"/>
    </contour>
    <contour>
      <point x="61" y="566" type="curve" smooth="yes"/>
      <point x="61" y="508"/>
      <point x="99" y="467"/>
      <point x="197" y="435" type="curve"/>
      <point x="109" y="426"/>
      <point x="55" y="383"/>
      <point x="55" y="312" type="curve" smooth="yes"/>
      <point x="55" y="136"/>
      <point x="366" y="198"/>
      <point x="366" y="55" type="curve" smooth="yes"/>
      <point x="366" y="-9"/>
      <point x="299" y="-46"/>
      <point x="220" y="-46" type="curve" smooth="yes"/>
      <point x="155" y="-46"/>
      <point x="94" y="-22"/>
      <point x="47" y="21" type="curve"/>
      <point x="28" y="-8" type="line"/>
      <point x="74" y="-52"/>
      <point x="143" y="-81"/>
      <point x="222" y="-81" type="curve" smooth="yes"/>
      <point x="327" y="-81"/>
      <point x="403" y="-28"/>
      <point x="403" y="55" type="curve" smooth="yes"/>
      <point x="403" y="113"/>
      <point x="369" y="154"/>
      <point x="291" y="181" type="curve"/>
      <point x="346" y="190"/>
      <point x="410" y="238"/>
      <point x="410" y="312" type="curve" smooth="yes"/>
      <point x="410" y="488"/>
      <point x="98" y="424"/>
      <point x="98" y="568" type="curve" smooth="yes"/>
      <point x="98" y="626"/>
      <point x="153" y="659"/>
      <point x="234" y="659" type="curve" smooth="yes"/>
      <point x="283" y="659"/>
      <point x="329" y="646"/>
      <point x="366" y="622" type="curve"/>
      <point x="383" y="652" type="line"/>
      <point x="339" y="680"/>
      <point x="288" y="694"/>
      <point x="233" y="694" type="curve" smooth="yes"/>
      <point x="131" y="694"/>
      <point x="61" y="645"/>
    </contour>
  </outline>
</glyph>
<glyph name="dieresis" format="1">
  <advance width="358"/>
  <unicode hex="00A8"/>
  <outline>
    <contour>
      <point x="175" y="521" type="move" name="_abvm"/>
    </contour>
    <contour>
      <point x="63.2" y="674.58" type="curve" smooth="yes"/>
      <point x="63.2" y="654.0"/>
      <point x="78.88" y="638.32"/>
      <point x="97.5" y="638.32" type="curve" smooth="yes"/>
      <point x="116.12" y="638.32"/>
      <point x="131.8" y="654.0"/>
      <point x="131.8" y="674.58" type="curve" smooth="yes"/>
      <point x="131.8" y="694.18"/>
      <point x="116.12" y="709.86"/>
      <point x="97.5" y="709.86" type="curve" smooth="yes"/>
      <point x="78.88" y="709.86"/>
      <point x="63.2" y="694.18"/>
    </contour>
    <contour>
      <point x="219.2" y="674.58" type="curve" smooth="yes"/>
      <point x="219.2" y="654.0"/>
      <point x="234.88" y="638.32"/>
      <point x="253.5" y="638.32" type="curve" smooth="yes"/>
      <point x="272.12" y="638.32"/>
      <point x="287.8" y="654.0"/>
      <point x="287.8" y="674.58" type="curve" smooth="yes"/>
      <point x="287.8" y="694.18"/>
      <point x="272.12" y="709.86"/>
      <point x="253.5" y="709.86" type="curve" smooth="yes"/>
      <point x="234.88" y="709.86"/>
      <point x="219.2" y="694.18"/>
    </contour>
  </outline>
</glyph>
<glyph name="copyright" format="1">
  <advance width="770"/>
  <unicode hex="00A9"/>
  <outline>
    <contour>
      <point x="46" y="348" type="curve" smooth="yes"/>
      <point x="46" y="163"/>
      <point x="193" y="9"/>
      <point x="383" y="9" type="curve" smooth="yes"/>
      <point x="574" y="9"/>
      <point x="723" y="165"/>
      <point x="723" y="350" type="curve" smooth="yes"/>
      <point x="723" y="536"/>
      <point x="575" y="689"/>
      <point x="385" y="689" type="curve" smooth="yes"/>
      <point x="194" y="689"/>
      <point x="46" y="533"/>
    </contour>
    <contour>
      <point x="696" y="350" type="curve" smooth="yes"/>
      <point x="696" y="180"/>
      <point x="560" y="39"/>
      <point x="384" y="39" type="curve" smooth="yes"/>
      <point x="208" y="39"/>
      <point x="75" y="178"/>
      <point x="75" y="348" type="curve" smooth="yes"/>
      <point x="75" y="518"/>
      <point x="209" y="659"/>
      <point x="386" y="659" type="curve" smooth="yes"/>
      <point x="561" y="659"/>
      <point x="696" y="520"/>
    </contour>
    <contour>
      <point x="203" y="349" type="curve" smooth="yes"/>
      <point x="203" y="249"/>
      <point x="286" y="168"/>
      <point x="388" y="168" type="curve" smooth="yes"/>
      <point x="437" y="168"/>
      <point x="484" y="188"/>
      <point x="518" y="220" type="curve"/>
      <point x="500" y="239" type="line"/>
      <point x="470" y="213"/>
      <point x="430" y="197"/>
      <point x="389" y="197" type="curve" smooth="yes"/>
      <point x="302" y="197"/>
      <point x="232" y="265"/>
      <point x="232" y="349" type="curve" smooth="yes"/>
      <point x="232" y="432"/>
      <point x="302" y="500"/>
      <point x="389" y="500" type="curve" smooth="yes"/>
      <point x="431" y="500"/>
      <point x="470" y="484"/>
      <point x="500" y="457" type="curve"/>
      <point x="518" y="478" type="line"/>
      <point x="484" y="509"/>
      <point x="437" y="528"/>
      <point x="389" y="528" type="curve" smooth="yes"/>
      <point x="286" y="528"/>
      <point x="203" y="448"/>
    </contour>
  </outline>
</glyph>
<glyph name="ordfeminine" format="1">
  <advance width="375"/>
  <unicode hex="00AA"/>
  <outline>
    <contour>
      <point x="160" y="483" type="curve"/>
      <point x="111" y="483"/>
      <point x="80" y="510"/>
      <point x="80" y="549" type="curve"/>
      <point x="80" y="586"/>
      <point x="113" y="606"/>
      <point x="171" y="606" type="curve"/>
      <point x="276.25628" y="606" type="line"/>
      <point x="276.51768" y="553.98194" type="line"/>
      <point x="254" y="504"/>
      <point x="213" y="483"/>
    </contour>
    <contour>
      <point x="277" y="458.0" type="line"/>
      <point x="311" y="458.0" type="line"/>
      <point x="310" y="660" type="line"/>
      <point x="310" y="724"/>
      <point x="267" y="764"/>
      <point x="191" y="764" type="curve"/>
      <point x="145" y="764"/>
      <point x="103" y="748"/>
      <point x="64" y="723" type="curve"/>
      <point x="76" y="697.0" type="line"/>
      <point x="111" y="720"/>
      <point x="146" y="734"/>
      <point x="184" y="734" type="curve"/>
      <point x="245" y="734"/>
      <point x="276" y="706"/>
      <point x="276" y="657" type="curve"/>
      <point x="276.14573" y="628" type="line"/>
      <point x="166" y="628" type="line"/>
      <point x="92" y="628"/>
      <point x="47" y="598"/>
      <point x="47" y="546" type="curve"/>
      <point x="47" y="494"/>
      <point x="88" y="457"/>
      <point x="151" y="457" type="curve"/>
      <point x="205.755409124" y="457.0"/>
      <point x="249.531247343" y="476.763227628"/>
      <point x="276.69135" y="519.42108" type="curve"/>
    </contour>
  </outline>
</glyph>
<glyph name="logicalnot" format="1">
  <advance width="540"/>
  <unicode hex="00AC"/>
  <outline>
    <contour>
      <point x="450.0" y="156" type="line"/>
      <point x="450.0" y="371.0" type="line"/>
      <point x="39" y="371.0" type="line"/>
      <point x="39" y="336" type="line"/>
      <point x="416.0" y="336" type="line"/>
      <point x="416.0" y="156" type="line"/>
    </contour>
  </outline>
</glyph>
<glyph name="registered" format="1">
  <advance width="770"/>
  <unicode hex="00AE"/>
  <outline>
    <contour>
      <point x="46" y="348" type="curve" smooth="yes"/>
      <point x="46" y="163"/>
      <point x="193" y="9"/>
      <point x="383" y="9" type="curve" smooth="yes"/>
      <point x="574" y="9"/>
      <point x="723" y="165"/>
      <point x="723" y="350" type="curve" smooth="yes"/>
      <point x="723" y="536"/>
      <point x="575" y="689"/>
      <point x="385" y="689" type="curve" smooth="yes"/>
      <point x="194" y="689"/>
      <point x="46" y="533"/>
    </contour>
    <contour>
      <point x="696" y="350" type="curve" smooth="yes"/>
      <point x="696" y="180"/>
      <point x="560" y="39"/>
      <point x="384" y="39" type="curve" smooth="yes"/>
      <point x="208" y="39"/>
      <point x="75" y="178"/>
      <point x="75" y="348" type="curve" smooth="yes"/>
      <point x="75" y="518"/>
      <point x="209" y="659"/>
      <point x="386" y="659" type="curve" smooth="yes"/>
      <point x="561" y="659"/>
      <point x="696" y="520"/>
    </contour>
    <contour>
      <point x="505" y="419" type="curve" smooth="yes"/>
      <point x="505" y="356"/>
      <point x="462" y="320"/>
      <point x="389" y="320" type="curve" smooth="yes"/>
      <point x="285" y="320" type="line"/>
      <point x="285" y="512" type="line"/>
      <point x="389" y="512" type="line" smooth="yes"/>
      <point x="462" y="512"/>
      <point x="505" y="480"/>
    </contour>
    <contour>
      <point x="285" y="293" type="line"/>
      <point x="389.0" y="293" type="line" smooth="yes"/>
      <point x="398.668264068" y="293.0"/>
      <point x="407.883729397" y="293.51906197"/>
      <point x="416.63479" y="294.55847" type="curve"/>
      <point x="501.0" y="173" type="line"/>
      <point x="535" y="173" type="line"/>
      <point x="444.15386" y="299.80608" type="line"/>
      <point x="501.149714271" y="315.471272262"/>
      <point x="532.0" y="357.557115118"/>
      <point x="532.0" y="419.0" type="curve" smooth="yes"/>
      <point x="532" y="496"/>
      <point x="481" y="539"/>
      <point x="389" y="539" type="curve" smooth="yes"/>
      <point x="257" y="539" type="line"/>
      <point x="257" y="173" type="line"/>
      <point x="285" y="173" type="line"/>
    </contour>
  </outline>
</glyph>
<glyph name="macron" format="1">
  <advance width="350"/>
  <unicode hex="00AF"/>
  <outline>
    <contour>
      <point x="175" y="521" type="move" name="_abvm"/>
    </contour>
    <contour>
      <point x="63" y="689" type="line"/>
      <point x="63" y="653" type="line"/>
      <point x="289" y="653" type="line"/>
      <point x="289" y="689" type="line"/>
    </contour>
  </outline>
</glyph>
<glyph name="degree" format="1">
  <advance width="310"/>
  <unicode hex="00B0"/>
  <outline>
    <contour>
      <point x="77" y="689" type="curve" smooth="yes"/>
      <point x="77" y="630"/>
      <point x="129" y="579"/>
      <point x="190" y="579" type="curve" smooth="yes"/>
      <point x="252" y="579"/>
      <point x="304" y="630"/>
      <point x="304" y="689" type="curve" smooth="yes"/>
      <point x="304" y="748"/>
      <point x="252" y="799"/>
      <point x="190" y="799" type="curve" smooth="yes"/>
      <point x="129" y="799"/>
      <point x="77" y="748"/>
    </contour>
    <contour>
      <point x="277" y="689" type="curve" smooth="yes"/>
      <point x="277" y="645"/>
      <point x="237" y="607"/>
      <point x="189" y="607" type="curve" smooth="yes"/>
      <point x="143" y="607"/>
      <point x="103" y="645"/>
      <point x="103" y="689" type="curve" smooth="yes"/>
      <point x="103" y="733"/>
      <point x="143" y="772"/>
      <point x="189" y="772" type="curve" smooth="yes"/>
      <point x="237" y="772"/>
      <point x="277" y="733"/>
    </contour>
  </outline>
</glyph>
<glyph name="threesuperior" format="1">
  <advance width="342"/>
  <unicode hex="00B3"/>
  <outline>
    <contour>
      <point x="136" y="525" type="line"/>
      <point x="273" y="675" type="line"/>
      <point x="273" y="698" type="line"/>
      <point x="38" y="698" type="line"/>
      <point x="38" y="669" type="line"/>
      <point x="232" y="669" type="line"/>
      <point x="96" y="521" type="line"/>
      <point x="96" y="498" type="line"/>
      <point x="145" y="498" type="line" smooth="yes"/>
      <point x="216" y="498"/>
      <point x="259" y="469"/>
      <point x="259" y="414" type="curve" smooth="yes"/>
      <point x="259" y="359"/>
      <point x="217" y="320"/>
      <point x="146" y="320" type="curve" smooth="yes"/>
      <point x="106" y="320"/>
      <point x="66" y="334"/>
      <point x="36" y="357" type="curve"/>
      <point x="20" y="328" type="line"/>
      <point x="53" y="306"/>
      <point x="102" y="291"/>
      <point x="148" y="291" type="curve" smooth="yes"/>
      <point x="237" y="291"/>
      <point x="293" y="342"/>
      <point x="293" y="416" type="curve" smooth="yes"/>
      <point x="293" y="482"/>
      <point x="240" y="522"/>
      <point x="161" y="524" type="curve" smooth="yes"/>
    </contour>
  </outline>
</glyph>
<glyph name="acute" format="1">
  <advance width="350"/>
  <unicode hex="00B4"/>
  <outline>
    <contour>
      <point x="128" y="521" type="move" name="_abvm"/>
    </contour>
    <contour>
      <point x="88" y="620" type="line"/>
      <point x="136" y="620" type="line"/>
      <point x="263" y="723" type="line"/>
      <point x="222" y="743" type="line"/>
    </contour>
  </outline>
</glyph>
<glyph name="mu" format="1">
  <advance width="663"/>
  <unicode hex="00B5"/>
  <outline>
    <contour>
      <point x="308.0" y="-1.0" type="curve"/>
      <point x="411.074613352" y="0.431591852106"/>
      <point x="483.919762046" y="48.4882902098"/>
      <point x="517" y="138.79217" type="curve"/>
      <point x="517" y="0" type="line"/>
      <point x="558" y="0" type="line"/>
      <point x="558" y="521" type="line"/>
      <point x="517" y="521" type="line"/>
      <point x="517" y="266" type="line"/>
      <point x="517" y="130"/>
      <point x="443" y="44"/>
      <point x="318" y="41" type="curve"/>
      <point x="213" y="41"/>
      <point x="150" y="104"/>
      <point x="150" y="211" type="curve"/>
      <point x="150" y="521" type="line" smooth="yes"/>
      <point x="109.0" y="521" type="line"/>
      <point x="109.0" y="-194.0" type="line"/>
      <point x="150" y="-194.0" type="line"/>
      <point x="150" y="66.32937" type="line"/>
      <point x="183.972436663" y="22.842940792"/>
      <point x="237.98628425" y="-1.0"/>
    </contour>
  </outline>
</glyph>
<glyph name="paragraph" format="1">
  <advance width="570"/>
  <unicode hex="00B6"/>
  <outline>
    <contour>
      <point x="207" y="742" type="line"/>
      <point x="62" y="742"/>
      <point x="5" y="656"/>
      <point x="5" y="568" type="curve" smooth="yes"/>
      <point x="5" y="503"/>
      <point x="39" y="402"/>
      <point x="173" y="402" type="curve" smooth="yes"/>
      <point x="184" y="402"/>
      <point x="196" y="403"/>
      <point x="209" y="404" type="curve"/>
      <point x="209" y="-111" type="line"/>
      <point x="244" y="-111" type="line"/>
      <point x="244" y="709" type="line"/>
      <point x="415" y="709" type="line"/>
      <point x="415" y="-111" type="line"/>
      <point x="450" y="-111" type="line"/>
      <point x="450" y="742" type="line"/>
    </contour>
  </outline>
</glyph>
<glyph name="periodcentered" format="1">
  <advance width="180"/>
  <unicode hex="00B7"/>
  <outline>
    <contour>
      <point x="56" y="269" type="curve" smooth="yes"/>
      <point x="56" y="250"/>
      <point x="71" y="234"/>
      <point x="90" y="234" type="curve" smooth="yes"/>
      <point x="109" y="234"/>
      <point x="124" y="250"/>
      <point x="124" y="269" type="curve" smooth="yes"/>
      <point x="124" y="289"/>
      <point x="109" y="305"/>
      <point x="90" y="305" type="curve" smooth="yes"/>
      <point x="71" y="305"/>
      <point x="56" y="289"/>
    </contour>
  </outline>
</glyph>
<glyph name="cedilla" format="1">
  <advance width="350"/>
  <unicode hex="00B8"/>
  <outline>
    <contour>
      <point x="175" y="0" type="move" name="_blwm"/>
    </contour>
    <contour>
      <point x="206" y="6" type="line"/>
      <point x="176" y="6" type="line"/>
      <point x="143" y="-73" type="line"/>
      <point x="149" y="-72"/>
      <point x="164" y="-72"/>
      <point x="173" y="-72" type="curve" smooth="yes"/>
      <point x="204" y="-72"/>
      <point x="225" y="-93"/>
      <point x="225" y="-119" type="curve" smooth="yes"/>
      <point x="227" y="-151"/>
      <point x="202" y="-175"/>
      <point x="165" y="-175" type="curve" smooth="yes"/>
      <point x="145" y="-175"/>
      <point x="120" y="-168"/>
      <point x="104" y="-156" type="curve"/>
      <point x="93" y="-184" type="line"/>
      <point x="111" y="-197"/>
      <point x="141" y="-206"/>
      <point x="167" y="-206" type="curve" smooth="yes"/>
      <point x="220" y="-206"/>
      <point x="258" y="-171"/>
      <point x="256" y="-121" type="curve" smooth="yes"/>
      <point x="255" y="-80"/>
      <point x="224" y="-51"/>
      <point x="183" y="-49" type="curve"/>
    </contour>
  </outline>
</glyph>
<glyph name="onesuperior" format="1">
  <advance width="246"/>
  <unicode hex="00B9"/>
  <outline>
    <contour>
      <point x="148" y="699" type="line"/>
      <point x="25" y="699" type="line"/>
      <point x="25" y="668" type="line"/>
      <point x="113" y="668" type="line"/>
      <point x="113" y="291" type="line"/>
      <point x="148" y="291" type="line"/>
    </contour>
  </outline>
</glyph>
<glyph name="ordmasculine" format="1">
  <advance width="398"/>
  <unicode hex="00BA"/>
  <outline>
    <contour>
      <point x="42" y="611" type="curve" smooth="yes"/>
      <point x="42" y="520"/>
      <point x="107" y="457"/>
      <point x="200" y="457" type="curve" smooth="yes"/>
      <point x="291" y="457"/>
      <point x="357" y="520"/>
      <point x="357" y="611" type="curve" smooth="yes"/>
      <point x="357" y="701"/>
      <point x="291" y="764"/>
      <point x="200" y="764" type="curve" smooth="yes"/>
      <point x="107" y="764"/>
      <point x="42" y="701"/>
    </contour>
    <contour>
      <point x="322" y="610" type="curve" smooth="yes"/>
      <point x="322" y="537"/>
      <point x="271" y="487"/>
      <point x="199" y="487" type="curve" smooth="yes"/>
      <point x="127" y="487"/>
      <point x="75" y="537"/>
      <point x="75" y="610" type="curve" smooth="yes"/>
      <point x="75" y="683"/>
      <point x="127" y="733"/>
      <point x="199" y="733" type="curve" smooth="yes"/>
      <point x="271" y="733"/>
      <point x="322" y="683"/>
    </contour>
  </outline>
</glyph>
<glyph name="questiondown" format="1">
  <advance width="406"/>
  <unicode hex="00BF"/>
  <outline>
    <contour>
      <point x="255" y="492" type="curve" smooth="yes"/>
      <point x="255" y="511"/>
      <point x="240" y="527"/>
      <point x="221" y="527" type="curve" smooth="yes"/>
      <point x="202" y="527"/>
      <point x="187" y="511"/>
      <point x="187" y="492" type="curve" smooth="yes"/>
      <point x="187" y="472"/>
      <point x="202" y="456"/>
      <point x="221" y="456" type="curve" smooth="yes"/>
      <point x="240" y="456"/>
      <point x="255" y="472"/>
    </contour>
    <contour>
      <point x="363" y="-4" type="line"/>
      <point x="358" y="-84"/>
      <point x="304" y="-124"/>
      <point x="221" y="-124" type="curve" smooth="yes"/>
      <point x="138" y="-124"/>
      <point x="78" y="-85"/>
      <point x="78" y="-5" type="curve" smooth="yes"/>
      <point x="78" y="149"/>
      <point x="236" y="138"/>
      <point x="236" y="309" type="curve"/>
      <point x="201" y="309" type="line"/>
      <point x="201" y="151"/>
      <point x="39" y="160"/>
      <point x="39" y="-8" type="curve" smooth="yes"/>
      <point x="39" y="-113"/>
      <point x="116" y="-163"/>
      <point x="218" y="-163" type="curve" smooth="yes"/>
      <point x="321" y="-163"/>
      <point x="393" y="-107"/>
      <point x="399" y="-6" type="curve"/>
    </contour>
  </outline>
</glyph>
<glyph name="Aring" format="1">
  <advance width="698"/>
  <unicode hex="00C5"/>
  <outline>
    <contour>
      <point x="437" y="784" type="curve" smooth="yes"/>
      <point x="437" y="739"/>
      <point x="396" y="701"/>
      <point x="349" y="701" type="curve" smooth="yes"/>
      <point x="302" y="701"/>
      <point x="262" y="739"/>
      <point x="262" y="784" type="curve" smooth="yes"/>
      <point x="262" y="829"/>
      <point x="302" y="867"/>
      <point x="349" y="867" type="curve" smooth="yes"/>
      <point x="396" y="867"/>
      <point x="437" y="829"/>
    </contour>
    <contour>
      <point x="347" y="651" type="line"/>
      <point x="534.05069" y="241.0" type="line"/>
      <point x="162.46851" y="241.0" type="line"/>
    </contour>
    <contour>
      <point x="644" y="0" type="line"/>
      <point x="690" y="0" type="line"/>
      <point x="379.96143" y="677.2405" type="line"/>
      <point x="428.170542482" y="690.591997571"/>
      <point x="464.0" y="734.195372654"/>
      <point x="464.0" y="784.0" type="curve" smooth="yes"/>
      <point x="464" y="844"/>
      <point x="412" y="896"/>
      <point x="349" y="896" type="curve" smooth="yes"/>
      <point x="287" y="896"/>
      <point x="235" y="844"/>
      <point x="235" y="784" type="curve" smooth="yes"/>
      <point x="235.0" y="734.927506104"/>
      <point x="269.783806159" y="691.875286351"/>
      <point x="316.37354" y="677.83996" type="curve"/>
      <point x="8" y="0" type="line"/>
      <point x="54.0" y="0" type="line"/>
      <point x="143.56528" y="199.0" type="line"/>
      <point x="553.21198" y="199.0" type="line"/>
    </contour>
  </outline>
</glyph>
<glyph name="AE" format="1">
  <advance width="1002"/>
  <unicode hex="00C6"/>
  <outline>
    <contour>
      <point x="679" y="0" type="move" name="blwm"/>
    </contour>
    <contour>
      <point x="939" y="10" type="move" name="ogonek"/>
    </contour>
    <contour>
      <point x="604" y="699" type="move" name="abvm"/>
    </contour>
    <contour>
      <point x="447.0" y="660" type="line"/>
      <point x="475.0" y="660" type="line"/>
      <point x="475.0" y="249.0" type="line"/>
      <point x="202.26818" y="249.0" type="line"/>
    </contour>
    <contour>
      <point x="475.0" y="0" type="line"/>
      <point x="939.0" y="0" type="line"/>
      <point x="939.0" y="42" type="line"/>
      <point x="517" y="42" type="line"/>
      <point x="517" y="337" type="line"/>
      <point x="881.0" y="337" type="line"/>
      <point x="881.0" y="379.0" type="line"/>
      <point x="517" y="379.0" type="line"/>
      <point x="517" y="658" type="line"/>
      <point x="926.0" y="658" type="line"/>
      <point x="926.0" y="699.0" type="line"/>
      <point x="426.0" y="699.0" type="line"/>
      <point x="8" y="0" type="line"/>
      <point x="54.0" y="0" type="line"/>
      <point x="179.64091" y="211.0" type="line"/>
      <point x="475.0" y="211.0" type="line"/>
    </contour>
  </outline>
</glyph>
<glyph name="Eth" format="1">
  <advance width="807"/>
  <unicode hex="00D0"/>
  <outline>
    <contour>
      <point x="401.0" y="0" type="line" smooth="yes"/>
      <point x="601" y="0"/>
      <point x="761" y="155"/>
      <point x="761" y="349" type="curve" smooth="yes"/>
      <point x="761" y="545"/>
      <point x="601" y="699"/>
      <point x="402" y="699" type="curve" smooth="yes"/>
      <point x="124.0" y="699.0" type="line"/>
      <point x="124.0" y="368.0" type="line"/>
      <point x="0" y="368.0" type="line"/>
      <point x="0" y="336" type="line"/>
      <point x="124.0" y="336" type="line"/>
      <point x="124.0" y="0" type="line"/>
    </contour>
    <contour>
      <point x="166" y="41" type="line"/>
      <point x="166" y="336" type="line"/>
      <point x="414.0" y="336" type="line"/>
      <point x="414.0" y="368.0" type="line"/>
      <point x="166" y="368.0" type="line"/>
      <point x="166" y="658" type="line"/>
      <point x="402.0" y="658" type="line" smooth="yes"/>
      <point x="577" y="658"/>
      <point x="719" y="521"/>
      <point x="719" y="349" type="curve" smooth="yes"/>
      <point x="719" y="178"/>
      <point x="578" y="41"/>
      <point x="403" y="41" type="curve" smooth="yes"/>
    </contour>
  </outline>
</glyph>
<glyph name="multiply" format="1">
  <advance width="484"/>
  <unicode hex="00D7"/>
  <outline>
    <contour>
      <point x="373.0" y="165" type="line"/>
      <point x="396.0" y="190.0" type="line"/>
      <point x="265.18609" y="321.2713" type="line"/>
      <point x="396.0" y="453.0" type="line"/>
      <point x="373.0" y="477.0" type="line"/>
      <point x="241.5" y="345.04021" type="line"/>
      <point x="110.0" y="477.0" type="line"/>
      <point x="87.0" y="453.0" type="line"/>
      <point x="217.81391" y="321.2713" type="line"/>
      <point x="87.0" y="190.0" type="line"/>
      <point x="110.0" y="165" type="line"/>
      <point x="241.5" y="297.41958" type="line"/>
    </contour>
  </outline>
</glyph>
<glyph name="Oslash" format="1">
  <advance width="816"/>
  <unicode hex="00D8"/>
  <outline>
    <contour>
      <point x="406" y="699" type="move" name="abvm"/>
    </contour>
    <contour>
      <point x="89.0" y="350.0" type="curve" smooth="yes"/>
      <point x="89" y="521"/>
      <point x="233" y="659"/>
      <point x="409" y="659" type="curve" smooth="yes"/>
      <point x="433.340108874" y="659.0"/>
      <point x="457.080522469" y="656.330388761"/>
      <point x="479.9172" y="651.27059" type="curve"/>
      <point x="289.13063" y="62.80551" type="line"/>
      <point x="172.445264205" y="108.971912521"/>
      <point x="89.0" y="220.278202969"/>
    </contour>
    <contour>
      <point x="409" y="40" type="curve" smooth="yes"/>
      <point x="377.443694397" y="40.0"/>
      <point x="346.862866759" y="44.5197145744"/>
      <point x="317.9318" y="52.93901" type="curve"/>
      <point x="509.32792" y="643.28416" type="line"/>
      <point x="635.816640618" y="602.509318694"/>
      <point x="728.0" y="486.817335943"/>
      <point x="728.0" y="350.0" type="curve" smooth="yes"/>
      <point x="728" y="179"/>
      <point x="584" y="40"/>
    </contour>
    <contour>
      <point x="408.0" y="-1.0" type="curve" smooth="yes"/>
      <point x="607" y="-1"/>
      <point x="769" y="156"/>
      <point x="769" y="350" type="curve" smooth="yes"/>
      <point x="769.0" y="505.203190012"/>
      <point x="665.315737838" y="636.085380257"/>
      <point x="521.95116" y="682.21949" type="curve"/>
      <point x="565" y="815.0" type="line"/>
      <point x="533" y="815.0" type="line"/>
      <point x="492.58572" y="690.34556" type="line"/>
      <point x="465.443707682" y="696.660052341"/>
      <point x="437.117937378" y="700.0"/>
      <point x="408.0" y="700.0" type="curve" smooth="yes"/>
      <point x="208" y="700"/>
      <point x="46" y="544"/>
      <point x="46" y="350" type="curve" smooth="yes"/>
      <point x="46.0" y="201.108492145"/>
      <point x="141.422636307" y="74.0110431991"/>
      <point x="276.21137" y="22.95714" type="curve"/>
      <point x="225.0" y="-135" type="line"/>
      <point x="257" y="-135" type="line"/>
      <point x="305.1036" y="13.3715" type="line"/>
      <point x="337.716217601" y="4.01609635595"/>
      <point x="372.251065292" y="-1.0"/>
    </contour>
  </outline>
</glyph>
<glyph name="Thorn" format="1">
  <advance width="666"/>
  <unicode hex="00DE"/>
  <outline>
    <contour>
      <point x="339" y="551" type="line" smooth="yes"/>
      <point x="510" y="551"/>
      <point x="594" y="490"/>
      <point x="594" y="366" type="curve" smooth="yes"/>
      <point x="594" y="239"/>
      <point x="510" y="176"/>
      <point x="339" y="176" type="curve" smooth="yes"/>
      <point x="162" y="176.0" type="line"/>
      <point x="162" y="551" type="line"/>
    </contour>
    <contour>
      <point x="340" y="137" type="line" smooth="yes"/>
      <point x="537" y="137"/>
      <point x="637" y="215"/>
      <point x="637" y="367" type="curve" smooth="yes"/>
      <point x="637" y="515"/>
      <point x="537" y="590"/>
      <point x="340" y="590" type="curve" smooth="yes"/>
      <point x="162" y="590" type="line"/>
      <point x="162" y="699.0" type="line"/>
      <point x="120.0" y="699.0" type="line"/>
      <point x="120.0" y="0" type="line"/>
      <point x="162" y="0" type="line"/>
      <point x="162" y="137" type="line"/>
    </contour>
  </outline>
</glyph>
<glyph name="germandbls" format="1">
  <advance width="643"/>
  <unicode hex="00DF"/>
  <outline>
    <contour>
      <point x="103" y="494" type="curve" smooth="yes"/>
      <point x="103" y="0" type="line"/>
      <point x="144" y="0" type="line"/>
      <point x="144" y="496" type="line" smooth="yes"/>
      <point x="144" y="623"/>
      <point x="217" y="705"/>
      <point x="331" y="705" type="curve" smooth="yes"/>
      <point x="433" y="705"/>
      <point x="499" y="646"/>
      <point x="499" y="554" type="curve" smooth="yes"/>
      <point x="499" y="456"/>
      <point x="427" y="392"/>
      <point x="316" y="392" type="curve"/>
      <point x="316" y="355" type="line"/>
      <point x="322" y="355" type="line"/>
      <point x="452" y="355"/>
      <point x="536" y="295"/>
      <point x="536" y="199" type="curve" smooth="yes"/>
      <point x="536" y="102"/>
      <point x="457" y="37"/>
      <point x="335" y="37" type="curve" smooth="yes"/>
      <point x="279" y="37" type="line"/>
      <point x="279" y="0" type="line"/>
      <point x="333" y="0" type="line" smooth="yes"/>
      <point x="481" y="0"/>
      <point x="577" y="80"/>
      <point x="577" y="200" type="curve" smooth="yes"/>
      <point x="577" y="297"/>
      <point x="505" y="364"/>
      <point x="398" y="378" type="curve"/>
      <point x="484" y="397"/>
      <point x="540" y="468"/>
      <point x="540" y="558" type="curve" smooth="yes"/>
      <point x="540" y="671"/>
      <point x="457" y="743"/>
      <point x="332" y="743" type="curve" smooth="yes"/>
      <point x="192" y="743"/>
      <point x="103" y="645"/>
    </contour>
  </outline>
</glyph>
<glyph name="ae" format="1">
  <advance width="985"/>
  <unicode hex="00E6"/>
  <outline>
    <contour>
      <point x="493" y="521" type="move" name="abvm"/>
    </contour>
    <contour>
      <point x="695.0" y="486.0" type="curve" smooth="yes"/>
      <point x="813" y="486"/>
      <point x="892" y="403"/>
      <point x="899" y="285" type="curve"/>
      <point x="481.95255" y="285" type="line"/>
      <point x="491.87974464" y="403.784679021"/>
      <point x="578.411265259" y="486.0"/>
    </contour>
    <contour>
      <point x="237" y="34" type="curve"/>
      <point x="153" y="34"/>
      <point x="98" y="83"/>
      <point x="98" y="153" type="curve"/>
      <point x="98" y="220"/>
      <point x="156" y="257"/>
      <point x="258" y="257" type="curve"/>
      <point x="439.73737" y="257" type="line"/>
      <point x="440.0" y="244.0" type="line"/>
      <point x="444.46885" y="243.34602" type="line"/>
      <point x="445.454896771" y="224.876032824"/>
      <point x="447.984011981" y="207.163055631"/>
      <point x="451.93993" y="190.34835" type="curve"/>
      <point x="411" y="75"/>
      <point x="336" y="34"/>
    </contour>
    <contour>
      <point x="898" y="82" type="curve"/>
      <point x="873.0" y="109.0" type="line"/>
      <point x="831" y="63"/>
      <point x="769" y="37"/>
      <point x="698" y="37" type="curve" smooth="yes"/>
      <point x="574.64517715" y="37.0"/>
      <point x="484.836236841" y="124.219294605"/>
      <point x="481.1198" y="254.0" type="curve"/>
      <point x="940.0" y="254.0" type="line"/>
      <point x="942" y="411"/>
      <point x="843" y="522"/>
      <point x="695" y="522" type="curve" smooth="yes"/>
      <point x="596.256939221" y="522.0"/>
      <point x="515.599847052" y="471.452036448"/>
      <point x="474.1875" y="391.19585" type="curve"/>
      <point x="456.655690104" y="472.647346279"/>
      <point x="391.786638836" y="522.0"/>
      <point x="287.0" y="522.0" type="curve"/>
      <point x="212" y="522"/>
      <point x="148" y="493"/>
      <point x="85" y="449" type="curve"/>
      <point x="101.0" y="416.0" type="line"/>
      <point x="158" y="458"/>
      <point x="214" y="484"/>
      <point x="281" y="484" type="curve"/>
      <point x="385" y="484"/>
      <point x="437" y="431"/>
      <point x="438" y="343" type="curve"/>
      <point x="439.11111" y="288" type="line"/>
      <point x="253.0" y="288" type="line"/>
      <point x="133" y="288"/>
      <point x="58" y="238"/>
      <point x="58" y="151" type="curve"/>
      <point x="58" y="62"/>
      <point x="128" y="-1"/>
      <point x="231" y="-1" type="curve"/>
      <point x="338.037243244" y="-1.0"/>
      <point x="421.403057891" y="44.4491429077"/>
      <point x="465.43442" y="148.26852" type="curve"/>
      <point x="503.330349161" y="56.846050329"/>
      <point x="588.417331461" y="-1.0"/>
      <point x="696.0" y="-1.0" type="curve" smooth="yes"/>
      <point x="778" y="-1"/>
      <point x="849" y="30"/>
    </contour>
  </outline>
</glyph>
<glyph name="eth" format="1">
  <advance width="572"/>
  <unicode hex="00F0"/>
  <outline>
    <contour>
      <point x="282" y="-1" type="curve" smooth="yes"/>
      <point x="430" y="-1"/>
      <point x="525" y="92"/>
      <point x="525" y="236" type="curve" smooth="yes"/>
      <point x="525.0" y="370.789084441"/>
      <point x="456.273884344" y="509.562291528"/>
      <point x="341.31448" y="620.68456" type="curve"/>
      <point x="444.0" y="652" type="line"/>
      <point x="436.0" y="682" type="line"/>
      <point x="315.21643" y="644.73698" type="line"/>
      <point x="273.433877026" y="681.457194612"/>
      <point x="226.391176736" y="714.637888311"/>
      <point x="175.0" y="743.0" type="curve"/>
      <point x="149" y="716.0" type="line"/>
      <point x="193.043946475" y="692.601653435"/>
      <point x="234.890384848" y="664.050529252"/>
      <point x="273.28776" y="631.80154" type="curve"/>
      <point x="154" y="595" type="line"/>
      <point x="162" y="566" type="line"/>
      <point x="300.14629" y="608.12972" type="line"/>
      <point x="387.973777101" y="526.915637728"/>
      <point x="454.317991348" y="426.523412059"/>
      <point x="482.0" y="327.0" type="curve"/>
      <point x="450" y="395"/>
      <point x="371" y="439"/>
      <point x="282" y="439" type="curve" smooth="yes"/>
      <point x="144" y="439"/>
      <point x="55" y="354"/>
      <point x="55" y="223" type="curve" smooth="yes"/>
      <point x="55" y="87"/>
      <point x="144" y="-1"/>
    </contour>
    <contour>
      <point x="482" y="219" type="curve"/>
      <point x="482" y="110"/>
      <point x="406" y="39"/>
      <point x="287" y="39" type="curve" smooth="yes"/>
      <point x="170" y="39"/>
      <point x="95" y="112"/>
      <point x="95" y="226" type="curve" smooth="yes"/>
      <point x="95" y="334"/>
      <point x="170" y="403"/>
      <point x="288" y="403" type="curve" smooth="yes"/>
      <point x="406" y="403"/>
      <point x="482" y="331"/>
    </contour>
  </outline>
</glyph>
<glyph name="divide" format="1">
  <advance width="484"/>
  <unicode hex="00F7"/>
  <outline>
    <contour>
      <point x="210.2" y="500.58" type="curve" smooth="yes"/>
      <point x="210.2" y="480.0"/>
      <point x="225.88" y="464.32"/>
      <point x="244.5" y="464.32" type="curve" smooth="yes"/>
      <point x="263.12" y="464.32"/>
      <point x="278.8" y="480.0"/>
      <point x="278.8" y="500.58" type="curve" smooth="yes"/>
      <point x="278.8" y="520.18"/>
      <point x="263.12" y="535.86"/>
      <point x="244.5" y="535.86" type="curve" smooth="yes"/>
      <point x="225.88" y="535.86"/>
      <point x="210.2" y="520.18"/>
    </contour>
    <contour>
      <point x="39" y="338" type="line"/>
      <point x="39" y="304" type="line"/>
      <point x="445" y="304" type="line"/>
      <point x="445" y="338" type="line"/>
    </contour>
    <contour>
      <point x="210.2" y="149.58" type="curve" smooth="yes"/>
      <point x="210.2" y="129.0"/>
      <point x="225.88" y="113.32"/>
      <point x="244.5" y="113.32" type="curve" smooth="yes"/>
      <point x="263.12" y="113.32"/>
      <point x="278.8" y="129.0"/>
      <point x="278.8" y="149.58" type="curve" smooth="yes"/>
      <point x="278.8" y="169.18"/>
      <point x="263.12" y="184.86"/>
      <point x="244.5" y="184.86" type="curve" smooth="yes"/>
      <point x="225.88" y="184.86"/>
      <point x="210.2" y="169.18"/>
    </contour>
  </outline>
</glyph>
<glyph name="oslash" format="1">
  <advance width="610"/>
  <unicode hex="00F8"/>
  <outline>
    <contour>
      <point x="305" y="521" type="move" name="abvm"/>
    </contour>
    <contour>
      <point x="88.0" y="260.0" type="curve" smooth="yes"/>
      <point x="88" y="393"/>
      <point x="179" y="485"/>
      <point x="305" y="485" type="curve" smooth="yes"/>
      <point x="324.346614047" y="485.0"/>
      <point x="342.857807851" y="482.865037156"/>
      <point x="360.33915" y="478.77014" type="curve"/>
      <point x="223.33005" y="50.21842" type="line"/>
      <point x="141.532266776" y="80.6890725435"/>
      <point x="88.0" y="157.990936247"/>
    </contour>
    <contour>
      <point x="305" y="36" type="curve" smooth="yes"/>
      <point x="285.362251894" y="36.0"/>
      <point x="266.574682691" y="38.2104651495"/>
      <point x="248.8493" y="42.45887" type="curve"/>
      <point x="385.89944" y="471.13895" type="line"/>
      <point x="468.894813886" y="440.729893571"/>
      <point x="523.0" y="362.553477723"/>
      <point x="523.0" y="260.0" type="curve" smooth="yes"/>
      <point x="523" y="127"/>
      <point x="432" y="36"/>
    </contour>
    <contour>
      <point x="305.0" y="-1.0" type="curve" smooth="yes"/>
      <point x="453" y="-1"/>
      <point x="562" y="107"/>
      <point x="562" y="261" type="curve" smooth="yes"/>
      <point x="562.0" y="379.184039161"/>
      <point x="496.10431461" y="471.372532709"/>
      <point x="397.21657" y="506.53787" type="curve"/>
      <point x="445.0" y="656" type="line"/>
      <point x="417.0" y="656" type="line"/>
      <point x="371.65485" y="514.16459" type="line"/>
      <point x="350.582446217" y="519.304596475"/>
      <point x="328.273428326" y="522.0"/>
      <point x="305.0" y="522.0" type="curve" smooth="yes"/>
      <point x="156" y="522"/>
      <point x="48" y="413"/>
      <point x="48" y="261" type="curve" smooth="yes"/>
      <point x="48.0" y="141.446738553"/>
      <point x="113.088635978" y="49.6164146519"/>
      <point x="211.91884" y="14.5252" type="curve"/>
      <point x="159" y="-151" type="line"/>
      <point x="187.0" y="-151" type="line"/>
      <point x="237.48368" y="6.90826" type="line"/>
      <point x="258.780290284" y="1.71521211579"/>
      <point x="281.374757657" y="-1.0"/>
    </contour>
  </outline>
</glyph>
<glyph name="thorn" format="1">
  <advance width="671"/>
  <unicode hex="00FE"/>
  <outline>
    <contour>
      <point x="130" y="0" type="move" name="blwm"/>
    </contour>
    <contour>
      <point x="130" y="742" type="move" name="abvm"/>
    </contour>
    <contour>
      <point x="233" y="521" type="move" name="topright"/>
    </contour>
    <contour>
      <point x="582" y="260" type="curve" smooth="yes"/>
      <point x="582" y="131"/>
      <point x="492" y="38"/>
      <point x="367" y="38" type="curve" smooth="yes"/>
      <point x="241" y="38"/>
      <point x="151" y="131"/>
      <point x="151" y="260" type="curve" smooth="yes"/>
      <point x="151" y="389"/>
      <point x="241" y="483"/>
      <point x="367" y="483" type="curve" smooth="yes"/>
      <point x="492" y="483"/>
      <point x="582" y="389"/>
    </contour>
    <contour>
      <point x="150" y="-194.0" type="line"/>
      <point x="150" y="137.40054" type="line"/>
      <point x="188.602249636" y="52.1182455625"/>
      <point x="269.131400284" y="-1.0"/>
      <point x="372.0" y="-1.0" type="curve" smooth="yes"/>
      <point x="518" y="-1"/>
      <point x="623" y="108"/>
      <point x="623" y="260" type="curve" smooth="yes"/>
      <point x="623" y="413"/>
      <point x="517" y="522"/>
      <point x="371" y="522" type="curve" smooth="yes"/>
      <point x="269.401935132" y="522.0"/>
      <point x="188.711036784" y="468.736504341"/>
      <point x="150" y="382.90021" type="curve"/>
      <point x="150" y="742.0" type="line"/>
      <point x="109.0" y="742.0" type="line"/>
      <point x="109.0" y="-194.0" type="line"/>
    </contour>
  </outline>
</glyph>
<glyph name="Aogonek" format="1">
  <advance width="698"/>
  <unicode hex="0104"/>
  <outline>
    <contour>
      <point x="326" y="699" type="line"/>
      <point x="8" y="0" type="line"/>
      <point x="54" y="0" type="line"/>
      <point x="144" y="199" type="line"/>
      <point x="552" y="199" type="line"/>
      <point x="644" y="0" type="line"/>
      <point x="652" y="0" type="line"/>
      <point x="612" y="-58"/>
      <point x="595" y="-96"/>
      <point x="595" y="-129" type="curve" smooth="yes"/>
      <point x="595" y="-174"/>
      <point x="626" y="-200"/>
      <point x="662" y="-200" type="curve" smooth="yes"/>
      <point x="691" y="-200"/>
      <point x="721" y="-181"/>
      <point x="741" y="-155" type="curve"/>
      <point x="723" y="-135" type="line"/>
      <point x="705" y="-155"/>
      <point x="686" y="-169"/>
      <point x="665" y="-169" type="curve" smooth="yes"/>
      <point x="642" y="-169"/>
      <point x="624" y="-153"/>
      <point x="624" y="-125" type="curve" smooth="yes"/>
      <point x="624" y="-97"/>
      <point x="634" y="-64"/>
      <point x="682" y="0" type="curve"/>
      <point x="690" y="0" type="line"/>
      <point x="370" y="699" type="line"/>
    </contour>
    <contour>
      <point x="536" y="241" type="line"/>
      <point x="161" y="241" type="line"/>
      <point x="347" y="651" type="line"/>
    </contour>
  </outline>
</glyph>
<glyph name="aogonek" format="1">
  <advance width="571"/>
  <unicode hex="0105"/>
  <outline>
    <contour>
      <point x="86" y="448" type="curve"/>
      <point x="106" y="416" type="line"/>
      <point x="162" y="458"/>
      <point x="216" y="484"/>
      <point x="285" y="484" type="curve" smooth="yes"/>
      <point x="386" y="484"/>
      <point x="439" y="431"/>
      <point x="440" y="343" type="curve" smooth="yes"/>
      <point x="440" y="292" type="line"/>
      <point x="253" y="292" type="line" smooth="yes"/>
      <point x="133" y="292"/>
      <point x="58" y="240"/>
      <point x="58" y="150" type="curve" smooth="yes"/>
      <point x="58" y="66"/>
      <point x="124" y="-1"/>
      <point x="236" y="-1" type="curve" smooth="yes"/>
      <point x="316" y="-1"/>
      <point x="395" y="29"/>
      <point x="440" y="102" type="curve"/>
      <point x="440" y="5" type="line"/>
      <point x="446" y="5" type="line"/>
      <point x="385" y="-54"/>
      <point x="363" y="-94"/>
      <point x="363" y="-130" type="curve" smooth="yes"/>
      <point x="363" y="-173"/>
      <point x="394" y="-200"/>
      <point x="430" y="-200" type="curve" smooth="yes"/>
      <point x="459" y="-200"/>
      <point x="488" y="-182"/>
      <point x="509" y="-155" type="curve"/>
      <point x="491" y="-135" type="line"/>
      <point x="474" y="-155"/>
      <point x="454" y="-169"/>
      <point x="433" y="-169" type="curve" smooth="yes"/>
      <point x="410" y="-169"/>
      <point x="392" y="-153"/>
      <point x="392" y="-125" type="curve" smooth="yes"/>
      <point x="392" y="-95"/>
      <point x="409" y="-61"/>
      <point x="473" y="0" type="curve"/>
      <point x="481" y="0" type="line"/>
      <point x="481" y="346" type="line"/>
      <point x="480" y="454"/>
      <point x="411" y="522"/>
      <point x="291" y="522" type="curve" smooth="yes"/>
      <point x="207" y="522"/>
      <point x="148" y="493"/>
    </contour>
    <contour>
      <point x="441" y="167" type="line"/>
      <point x="407" y="77"/>
      <point x="326" y="37"/>
      <point x="243" y="37" type="curve" smooth="yes"/>
      <point x="146" y="37"/>
      <point x="98" y="88"/>
      <point x="98" y="151" type="curve" smooth="yes"/>
      <point x="98" y="220"/>
      <point x="154" y="255"/>
      <point x="258" y="255" type="curve" smooth="yes"/>
      <point x="441" y="255" type="line"/>
    </contour>
  </outline>
</glyph>
<glyph name="Eogonek" format="1">
  <advance width="649"/>
  <unicode hex="0118"/>
  <outline>
    <contour>
      <point x="120" y="699" type="line"/>
      <point x="120" y="0" type="line"/>
      <point x="499" y="0" type="line"/>
      <point x="457" y="-59"/>
      <point x="441" y="-96"/>
      <point x="441" y="-129" type="curve" smooth="yes"/>
      <point x="441" y="-174"/>
      <point x="471" y="-200"/>
      <point x="508" y="-200" type="curve" smooth="yes"/>
      <point x="537" y="-200"/>
      <point x="567" y="-181"/>
      <point x="587" y="-155" type="curve"/>
      <point x="568" y="-135" type="line"/>
      <point x="551" y="-155"/>
      <point x="532" y="-169"/>
      <point x="511" y="-169" type="curve" smooth="yes"/>
      <point x="487" y="-169"/>
      <point x="470" y="-153"/>
      <point x="470" y="-125" type="curve" smooth="yes"/>
      <point x="470" y="-95"/>
      <point x="482" y="-62"/>
      <point x="528" y="0" type="curve"/>
      <point x="586" y="0" type="line"/>
      <point x="586" y="39" type="line"/>
      <point x="162" y="39" type="line"/>
      <point x="162" y="339" type="line"/>
      <point x="528" y="339" type="line"/>
      <point x="528" y="378" type="line"/>
      <point x="162" y="378" type="line"/>
      <point x="162" y="660" type="line"/>
      <point x="573" y="660" type="line"/>
      <point x="573" y="699" type="line"/>
    </contour>
  </outline>
</glyph>
<glyph name="eogonek" format="1">
  <advance width="589"/>
  <unicode hex="0119"/>
  <outline>
    <contour>
      <point x="48" y="261" type="curve" smooth="yes"/>
      <point x="48" y="107"/>
      <point x="155" y="-1"/>
      <point x="301" y="-1" type="curve" smooth="yes"/>
      <point x="357" y="-1"/>
      <point x="407" y="15"/>
      <point x="449" y="45" type="curve"/>
      <point x="397" y="-28"/>
      <point x="377" y="-83"/>
      <point x="377" y="-129" type="curve" smooth="yes"/>
      <point x="377" y="-174"/>
      <point x="408" y="-200"/>
      <point x="444" y="-200" type="curve" smooth="yes"/>
      <point x="473" y="-200"/>
      <point x="502" y="-180"/>
      <point x="522" y="-155" type="curve"/>
      <point x="504" y="-135" type="line"/>
      <point x="487" y="-154"/>
      <point x="468" y="-169"/>
      <point x="447" y="-169" type="curve" smooth="yes"/>
      <point x="424" y="-169"/>
      <point x="406" y="-153"/>
      <point x="406" y="-124" type="curve" smooth="yes"/>
      <point x="406" y="-75"/>
      <point x="429" y="-14"/>
      <point x="504" y="82" type="curve"/>
      <point x="480" y="109" type="line"/>
      <point x="438" y="63"/>
      <point x="375" y="37"/>
      <point x="304" y="37" type="curve" smooth="yes"/>
      <point x="181" y="37"/>
      <point x="93" y="124"/>
      <point x="89" y="249" type="curve"/>
      <point x="544" y="249" type="line"/>
      <point x="547" y="411"/>
      <point x="453" y="523"/>
      <point x="301" y="522" type="curve" smooth="yes"/>
      <point x="152" y="520"/>
      <point x="48" y="411"/>
    </contour>
    <contour>
      <point x="506" y="286" type="curve"/>
      <point x="90" y="286" type="line"/>
      <point x="98" y="403"/>
      <point x="185" y="484"/>
      <point x="302" y="484" type="curve" smooth="yes"/>
      <point x="421" y="484"/>
      <point x="498" y="403"/>
    </contour>
  </outline>
</glyph>
<glyph name="gcommaaccent" format="1">
  <advance width="632"/>
  <unicode hex="0123"/>
  <outline>
    <contour>
      <point x="311" y="582" type="curve" smooth="yes"/>
      <point x="329" y="582"/>
      <point x="345" y="597"/>
      <point x="345" y="617" type="curve" smooth="yes"/>
      <point x="345.0" y="631.147606624"/>
      <point x="338.204621898" y="643.441928311"/>
      <point x="325.58496" y="649.42215" type="curve"/>
      <point x="354.0" y="707.0" type="line"/>
      <point x="325" y="707.0" type="line"/>
      <point x="289" y="650" type="line" smooth="yes"/>
      <point x="282" y="639"/>
      <point x="277" y="630"/>
      <point x="277" y="618" type="curve" smooth="yes"/>
      <point x="277" y="597"/>
      <point x="293" y="582"/>
    </contour>
    <contour>
      <point x="502" y="270" type="curve" smooth="yes"/>
      <point x="502" y="147"/>
      <point x="414" y="57"/>
      <point x="294" y="57" type="curve" smooth="yes"/>
      <point x="173" y="57"/>
      <point x="87" y="147"/>
      <point x="87" y="270" type="curve" smooth="yes"/>
      <point x="87" y="394"/>
      <point x="174" y="484"/>
      <point x="294" y="484" type="curve" smooth="yes"/>
      <point x="414" y="484"/>
      <point x="502" y="394"/>
    </contour>
    <contour>
      <point x="290" y="-194" type="curve" smooth="yes"/>
      <point x="443" y="-195"/>
      <point x="543" y="-97"/>
      <point x="543" y="57" type="curve"/>
      <point x="543" y="521" type="line"/>
      <point x="502.0" y="521" type="line"/>
      <point x="502.0" y="386.625" type="line"/>
      <point x="465.34426993" y="469.930217399"/>
      <point x="387.541070168" y="522.0"/>
      <point x="288.0" y="522.0" type="curve" smooth="yes"/>
      <point x="148" y="522"/>
      <point x="48" y="417"/>
      <point x="48" y="271" type="curve" smooth="yes"/>
      <point x="48" y="126"/>
      <point x="149" y="21"/>
      <point x="289" y="21" type="curve" smooth="yes"/>
      <point x="387.808341405" y="21.0"/>
      <point x="465.393676242" y="72.5415873808"/>
      <point x="502.0" y="155.53803" type="curve"/>
      <point x="502.0" y="57.0" type="line"/>
      <point x="502" y="-73"/>
      <point x="418" y="-156"/>
      <point x="289" y="-155" type="curve" smooth="yes"/>
      <point x="214" y="-153"/>
      <point x="155" y="-129"/>
      <point x="101" y="-78" type="curve"/>
      <point x="79" y="-109.0" type="line"/>
      <point x="140" y="-164"/>
      <point x="207" y="-192"/>
    </contour>
  </outline>
</glyph>
<glyph name="Hbar" format="1">
  <advance width="826"/>
  <unicode hex="0126"/>
  <outline>
    <contour>
      <point x="176.0" y="371.0" type="line"/>
      <point x="176.0" y="525" type="line"/>
      <point x="649" y="525" type="line"/>
      <point x="649" y="371.0" type="line"/>
    </contour>
    <contour>
      <point x="176.0" y="330" type="line"/>
      <point x="649" y="330" type="line"/>
      <point x="649" y="0" type="line"/>
      <point x="691" y="0" type="line"/>
      <point x="691" y="525" type="line"/>
      <point x="774.0" y="525" type="line"/>
      <point x="774.0" y="561" type="line"/>
      <point x="691" y="561" type="line"/>
      <point x="691" y="699.0" type="line"/>
      <point x="649" y="699.0" type="line"/>
      <point x="649" y="561" type="line"/>
      <point x="176.0" y="561" type="line"/>
      <point x="176.0" y="699.0" type="line"/>
      <point x="134" y="699.0" type="line"/>
      <point x="134" y="561" type="line"/>
      <point x="52.0" y="561" type="line"/>
      <point x="52.0" y="525" type="line"/>
      <point x="134" y="525" type="line"/>
      <point x="134" y="0" type="line"/>
      <point x="176.0" y="0" type="line"/>
    </contour>
  </outline>
</glyph>
<glyph name="hbar" format="1">
  <advance width="680"/>
  <unicode hex="0127"/>
  <outline>
    <contour>
      <point x="150" y="255.0" type="line"/>
      <point x="150" y="391"/>
      <point x="226" y="477"/>
      <point x="354" y="480" type="curve"/>
      <point x="461" y="480"/>
      <point x="525" y="417"/>
      <point x="525" y="310" type="curve"/>
      <point x="525" y="0" type="line" smooth="yes"/>
      <point x="566" y="0" type="line"/>
      <point x="566" y="318" type="line"/>
      <point x="566" y="445"/>
      <point x="491" y="522"/>
      <point x="364" y="522" type="curve"/>
      <point x="259.12800879" y="519.859755281"/>
      <point x="184.284706455" y="472.421996838"/>
      <point x="150" y="382.93021" type="curve"/>
      <point x="150" y="609" type="line"/>
      <point x="322" y="609" type="line"/>
      <point x="322" y="641" type="line"/>
      <point x="150" y="641" type="line"/>
      <point x="150" y="742.0" type="line"/>
      <point x="109.0" y="742.0" type="line"/>
      <point x="109.0" y="641" type="line"/>
      <point x="21" y="641" type="line"/>
      <point x="21" y="609" type="line"/>
      <point x="109.0" y="609" type="line"/>
      <point x="109.0" y="0" type="line"/>
      <point x="150" y="0" type="line"/>
    </contour>
  </outline>
</glyph>
<glyph name="Iogonek" format="1">
  <advance width="282"/>
  <unicode hex="012E"/>
  <outline>
    <contour>
      <point x="198" y="-135" type="line"/>
      <point x="180" y="-155"/>
      <point x="161" y="-169"/>
      <point x="140" y="-169" type="curve" smooth="yes"/>
      <point x="117" y="-169"/>
      <point x="99" y="-153"/>
      <point x="99" y="-125" type="curve" smooth="yes"/>
      <point x="99" y="-95"/>
      <point x="111" y="-61"/>
      <point x="156" y="0" type="curve"/>
      <point x="162" y="0" type="line"/>
      <point x="162" y="699" type="line"/>
      <point x="120" y="699" type="line"/>
      <point x="120" y="3" type="line"/>
      <point x="129" y="3" type="line"/>
      <point x="87" y="-55"/>
      <point x="70" y="-96"/>
      <point x="70" y="-129" type="curve" smooth="yes"/>
      <point x="70" y="-174"/>
      <point x="101" y="-200"/>
      <point x="137" y="-200" type="curve" smooth="yes"/>
      <point x="167" y="-200"/>
      <point x="196" y="-181"/>
      <point x="216" y="-155" type="curve"/>
    </contour>
  </outline>
</glyph>
<glyph name="iogonek" format="1">
  <advance width="238"/>
  <unicode hex="012F"/>
  <outline>
    <contour>
      <point x="84" y="671" type="curve" smooth="yes"/>
      <point x="84" y="650"/>
      <point x="100" y="634"/>
      <point x="119" y="634" type="curve" smooth="yes"/>
      <point x="139" y="634"/>
      <point x="154" y="650"/>
      <point x="154" y="671" type="curve" smooth="yes"/>
      <point x="154" y="691"/>
      <point x="139" y="707"/>
      <point x="119" y="707" type="curve" smooth="yes"/>
      <point x="100" y="707"/>
      <point x="84" y="691"/>
    </contour>
    <contour>
      <point x="99" y="521" type="line"/>
      <point x="99" y="0" type="line"/>
      <point x="107" y="0" type="line"/>
      <point x="70" y="-58"/>
      <point x="54" y="-96"/>
      <point x="54" y="-129" type="curve" smooth="yes"/>
      <point x="54" y="-174"/>
      <point x="85" y="-200"/>
      <point x="121" y="-200" type="curve" smooth="yes"/>
      <point x="151" y="-200"/>
      <point x="180" y="-181"/>
      <point x="200" y="-155" type="curve"/>
      <point x="182" y="-135" type="line"/>
      <point x="164" y="-155"/>
      <point x="145" y="-169"/>
      <point x="124" y="-169" type="curve" smooth="yes"/>
      <point x="101" y="-169"/>
      <point x="83" y="-153"/>
      <point x="83" y="-125" type="curve" smooth="yes"/>
      <point x="83" y="-95"/>
      <point x="94" y="-61"/>
      <point x="134" y="0" type="curve"/>
      <point x="140" y="0" type="line"/>
      <point x="140" y="521" type="line"/>
    </contour>
  </outline>
</glyph>
<glyph name="idotless" format="1">
  <advance width="250"/>
  <unicode hex="0131"/>
  <outline>
    <contour>
      <point x="202" y="10" type="move" name="ogonek"/>
    </contour>
    <contour>
      <point x="125" y="521" type="move" name="abvm"/>
    </contour>
    <contour>
      <point x="104" y="521" type="line"/>
      <point x="104" y="0" type="line"/>
      <point x="145" y="0" type="line"/>
      <point x="145" y="521" type="line"/>
    </contour>
  </outline>
</glyph>
<glyph name="kgreenlandic" format="1">
  <advance width="548"/>
  <unicode hex="0138"/>
  <outline>
    <contour>
      <point x="272" y="0" type="move" name="blwm"/>
    </contour>
    <contour>
      <point x="202" y="10" type="move" name="ogonek"/>
    </contour>
    <contour>
      <point x="125" y="521" type="move" name="abvm"/>
    </contour>
    <contour>
      <point x="484.0" y="0" type="line"/>
      <point x="533" y="0" type="line"/>
      <point x="309.19464" y="318.34383" type="line"/>
      <point x="507.0" y="521" type="line"/>
      <point x="456.0" y="521" type="line"/>
      <point x="145" y="210.0" type="line"/>
      <point x="145" y="521" type="line"/>
      <point x="104.0" y="521" type="line"/>
      <point x="104.0" y="0" type="line"/>
      <point x="145" y="0" type="line"/>
      <point x="145" y="150.12262" type="line"/>
      <point x="280.16714" y="288.60448" type="line"/>
    </contour>
  </outline>
</glyph>
<glyph name="ldot" format="1">
  <advance width="257"/>
  <unicode hex="0140"/>
  <outline>
    <contour>
      <point x="109" y="742" type="line"/>
      <point x="109" y="0" type="line"/>
      <point x="150" y="0" type="line"/>
      <point x="150" y="742" type="line"/>
    </contour>
    <contour>
      <point x="212" y="306" type="curve" smooth="yes"/>
      <point x="212" y="286"/>
      <point x="227" y="271"/>
      <point x="246" y="271" type="curve" smooth="yes"/>
      <point x="265" y="271"/>
      <point x="280" y="286"/>
      <point x="280" y="306" type="curve" smooth="yes"/>
      <point x="280" y="326"/>
      <point x="265" y="342"/>
      <point x="246" y="342" type="curve" smooth="yes"/>
      <point x="227" y="342"/>
      <point x="212" y="326"/>
    </contour>
  </outline>
</glyph>
<glyph name="Lslash" format="1">
  <advance width="514"/>
  <unicode hex="0141"/>
  <outline>
    <contour>
      <point x="486.0" y="0" type="line"/>
      <point x="486.0" y="41" type="line"/>
      <point x="175.0" y="41" type="line"/>
      <point x="175.0" y="433.03704" type="line"/>
      <point x="361.0" y="487.0" type="line"/>
      <point x="353.0" y="521" type="line"/>
      <point x="175.0" y="468.80864" type="line"/>
      <point x="175.0" y="699.0" type="line"/>
      <point x="133" y="699.0" type="line"/>
      <point x="133" y="456.49383" type="line"/>
      <point x="29.0" y="426.0" type="line"/>
      <point x="37" y="393.0" type="line"/>
      <point x="133" y="420.85185" type="line"/>
      <point x="133" y="0" type="line"/>
    </contour>
  </outline>
</glyph>
<glyph name="lslash" format="1">
  <advance width="325"/>
  <unicode hex="0142"/>
  <outline>
    <contour>
      <point x="190.0" y="0" type="line"/>
      <point x="190.0" y="451.87097" type="line"/>
      <point x="311" y="487.0" type="line"/>
      <point x="303" y="521" type="line"/>
      <point x="190.0" y="487.78853" type="line"/>
      <point x="190.0" y="742.0" type="line"/>
      <point x="149" y="742.0" type="line"/>
      <point x="149" y="475.73835" type="line"/>
      <point x="24.0" y="439.0" type="line"/>
      <point x="32" y="406.0" type="line"/>
      <point x="149" y="439.96774" type="line"/>
      <point x="149" y="0" type="line"/>
    </contour>
  </outline>
</glyph>
<glyph name="Eng" format="1">
  <advance width="797"/>
  <unicode hex="014A"/>
  <outline>
    <contour>
      <point x="399" y="0" type="move" name="blwm"/>
    </contour>
    <contour>
      <point x="399" y="699" type="move" name="abvm"/>
    </contour>
    <contour>
      <point x="495" y="-198" type="curve" smooth="yes"/>
      <point x="611" y="-198"/>
      <point x="677" y="-125"/>
      <point x="677" y="0" type="curve"/>
      <point x="677" y="699.0" type="line"/>
      <point x="636" y="699.0" type="line"/>
      <point x="636" y="64" type="line"/>
      <point x="169" y="699.0" type="line"/>
      <point x="120.0" y="699.0" type="line"/>
      <point x="120.0" y="0" type="line"/>
      <point x="162" y="0" type="line"/>
      <point x="162" y="635" type="line"/>
      <point x="628" y="0" type="line"/>
      <point x="634.89038" y="0" type="line"/>
      <point x="632.238894612" y="-100.960848728"/>
      <point x="581.588437481" y="-154.0"/>
      <point x="494.0" y="-154.0" type="curve" smooth="yes"/>
      <point x="436" y="-154"/>
      <point x="381" y="-126"/>
      <point x="339" y="-71" type="curve"/>
      <point x="316" y="-105.0" type="line"/>
      <point x="361" y="-164"/>
      <point x="424" y="-198"/>
    </contour>
  </outline>
</glyph>
<glyph name="eng" format="1">
  <advance width="648"/>
  <unicode hex="014B"/>
  <outline>
    <contour>
      <point x="327" y="0" type="move" name="blwm"/>
    </contour>
    <contour>
      <point x="335" y="521" type="move" name="abvm"/>
    </contour>
    <contour>
      <point x="431" y="-195" type="curve" smooth="yes"/>
      <point x="509" y="-195"/>
      <point x="560" y="-141"/>
      <point x="560" y="-27" type="curve" smooth="yes"/>
      <point x="560" y="318" type="line" smooth="yes"/>
      <point x="560" y="445"/>
      <point x="485" y="522"/>
      <point x="358" y="522" type="curve" smooth="yes"/>
      <point x="254.136171828" y="519.880330037"/>
      <point x="179.726459689" y="473.329874873"/>
      <point x="145" y="385.49128" type="curve"/>
      <point x="145" y="521" type="line"/>
      <point x="104.0" y="521" type="line"/>
      <point x="104.0" y="0" type="line"/>
      <point x="145" y="0" type="line"/>
      <point x="145" y="281.3004" type="line"/>
      <point x="154.331519777" y="402.064432967"/>
      <point x="228.506815025" y="477.199378477"/>
      <point x="348.0" y="480.0" type="curve" smooth="yes"/>
      <point x="455" y="480"/>
      <point x="519" y="417"/>
      <point x="519" y="310" type="curve" smooth="yes"/>
      <point x="519" y="-31.0" type="line" smooth="yes"/>
      <point x="519" y="-114"/>
      <point x="487" y="-155"/>
      <point x="430" y="-154" type="curve" smooth="yes"/>
      <point x="401" y="-154"/>
      <point x="370" y="-143"/>
      <point x="345" y="-123" type="curve"/>
      <point x="327" y="-158" type="line"/>
      <point x="358" y="-181"/>
      <point x="394" y="-194"/>
    </contour>
  </outline>
</glyph>
<glyph name="OE" format="1">
  <advance width="1092"/>
  <unicode hex="0152"/>
  <outline>
    <contour>
      <point x="768" y="0" type="move" name="blwm"/>
    </contour>
    <contour>
      <point x="1029" y="10" type="move" name="ogonek"/>
    </contour>
    <contour>
      <point x="546" y="699" type="move" name="abvm"/>
    </contour>
    <contour>
      <point x="408.0" y="41" type="line"/>
      <point x="231" y="41"/>
      <point x="87" y="178"/>
      <point x="87" y="350" type="curve" smooth="yes"/>
      <point x="87" y="521"/>
      <point x="231" y="658"/>
      <point x="408" y="658" type="curve"/>
      <point x="564" y="658" type="line"/>
      <point x="564" y="39.14286" type="line"/>
    </contour>
    <contour>
      <point x="407" y="0" type="curve"/>
      <point x="1029" y="0" type="line"/>
      <point x="1029" y="42" type="line"/>
      <point x="606" y="42" type="line"/>
      <point x="606" y="337" type="line"/>
      <point x="970.0" y="337" type="line"/>
      <point x="970.0" y="379.0" type="line"/>
      <point x="606" y="379.0" type="line"/>
      <point x="606" y="658" type="line"/>
      <point x="1015.0" y="658" type="line"/>
      <point x="1015.0" y="699.0" type="line"/>
      <point x="407.0" y="699.0" type="line"/>
      <point x="208" y="699"/>
      <point x="46" y="543"/>
      <point x="46" y="350" type="curve" smooth="yes"/>
      <point x="46" y="156"/>
      <point x="208" y="0"/>
    </contour>
  </outline>
</glyph>
<glyph name="oe" format="1">
  <advance width="1068"/>
  <unicode hex="0153"/>
  <outline>
    <contour>
      <point x="535" y="521" type="move" name="abvm"/>
    </contour>
    <contour>
      <point x="776.0" y="486.0" type="curve" smooth="yes"/>
      <point x="895" y="486"/>
      <point x="974" y="404"/>
      <point x="982" y="285" type="curve"/>
      <point x="561.95224" y="285" type="line"/>
      <point x="571.880273398" y="403.781789185"/>
      <point x="658.468967997" y="486.0"/>
    </contour>
    <contour>
      <point x="520" y="260" type="curve" smooth="yes"/>
      <point x="520" y="129"/>
      <point x="430" y="38"/>
      <point x="305" y="38" type="curve" smooth="yes"/>
      <point x="179" y="38"/>
      <point x="89" y="129"/>
      <point x="89" y="260" type="curve" smooth="yes"/>
      <point x="89" y="391"/>
      <point x="179" y="482"/>
      <point x="305" y="482" type="curve" smooth="yes"/>
      <point x="430" y="482"/>
      <point x="520" y="391"/>
    </contour>
    <contour>
      <point x="980" y="82" type="curve"/>
      <point x="956.0" y="109.0" type="line"/>
      <point x="913" y="63"/>
      <point x="850" y="37"/>
      <point x="779" y="37" type="curve" smooth="yes"/>
      <point x="654.30410272" y="37.0"/>
      <point x="564.313791945" y="124.728010333"/>
      <point x="561.08953" y="255.0" type="curve"/>
      <point x="1023.0" y="255.0" type="line"/>
      <point x="1024" y="411"/>
      <point x="925" y="522"/>
      <point x="776" y="522" type="curve" smooth="yes"/>
      <point x="664.01395472" y="522.0"/>
      <point x="575.886885588" y="456.984289999"/>
      <point x="541.56219" y="356.8897" type="curve"/>
      <point x="507.263675317" y="456.797298174"/>
      <point x="418.693826084" y="522.0"/>
      <point x="305.0" y="522.0" type="curve" smooth="yes"/>
      <point x="156" y="522"/>
      <point x="48" y="413"/>
      <point x="48" y="261" type="curve" smooth="yes"/>
      <point x="48" y="107"/>
      <point x="156" y="-1"/>
      <point x="305" y="-1" type="curve" smooth="yes"/>
      <point x="418.466572509" y="-1.0"/>
      <point x="506.909504441" y="63.3465043415"/>
      <point x="541.35587" y="163.56108" type="curve"/>
      <point x="575.418571193" y="63.5428015908"/>
      <point x="663.360487132" y="-1.0"/>
      <point x="777.0" y="-1.0" type="curve" smooth="yes"/>
      <point x="860" y="-1"/>
      <point x="931" y="30"/>
    </contour>
  </outline>
</glyph>
<glyph name="Uogonek" format="1">
  <advance width="772"/>
  <unicode hex="0172"/>
  <outline>
    <contour>
      <point x="452" y="-200" type="curve" smooth="yes"/>
      <point x="482" y="-200"/>
      <point x="511" y="-181"/>
      <point x="531" y="-155" type="curve"/>
      <point x="513" y="-135" type="line"/>
      <point x="495" y="-155"/>
      <point x="476" y="-169"/>
      <point x="455" y="-169" type="curve" smooth="yes"/>
      <point x="432" y="-169"/>
      <point x="414" y="-153"/>
      <point x="414" y="-125" type="curve" smooth="yes"/>
      <point x="414.0" y="-92.6409042151"/>
      <point x="428.492886921" y="-55.7527812675"/>
      <point x="478.16881" y="9.78783" type="curve"/>
      <point x="600.186841136" y="40.8604394791"/>
      <point x="669.0" y="137.95611766"/>
      <point x="669.0" y="286.0" type="curve"/>
      <point x="669" y="699.0" type="line"/>
      <point x="627" y="699.0" type="line"/>
      <point x="627" y="286" type="line"/>
      <point x="627" y="130"/>
      <point x="539" y="40"/>
      <point x="386" y="40" type="curve"/>
      <point x="234" y="40"/>
      <point x="145" y="130"/>
      <point x="145" y="286" type="curve"/>
      <point x="145" y="699.0" type="line"/>
      <point x="103.0" y="699.0" type="line"/>
      <point x="103.0" y="286" type="line"/>
      <point x="103" y="104"/>
      <point x="207" y="-1"/>
      <point x="386" y="-1" type="curve"/>
      <point x="406.442140026" y="-1.0"/>
      <point x="425.906124513" y="0.369417756327"/>
      <point x="444.34876" y="3.07196" type="curve"/>
      <point x="401.724237008" y="-55.3210296429"/>
      <point x="385.0" y="-94.2510444475"/>
      <point x="385.0" y="-129.0" type="curve" smooth="yes"/>
      <point x="385" y="-174"/>
      <point x="416" y="-200"/>
    </contour>
  </outline>
</glyph>
<glyph name="uogonek" format="1">
  <advance width="640"/>
  <unicode hex="0173"/>
  <outline>
    <contour>
      <point x="500" y="521" type="line"/>
      <point x="500" y="239" type="line"/>
      <point x="491" y="118"/>
      <point x="413" y="42"/>
      <point x="299" y="41" type="curve" smooth="yes"/>
      <point x="194" y="40"/>
      <point x="128" y="102"/>
      <point x="128" y="211" type="curve" smooth="yes"/>
      <point x="128" y="521" type="line"/>
      <point x="87" y="521" type="line"/>
      <point x="87" y="203" type="line" smooth="yes"/>
      <point x="87" y="75"/>
      <point x="159" y="0"/>
      <point x="287" y="0" type="curve" smooth="yes"/>
      <point x="394" y="0"/>
      <point x="466" y="50"/>
      <point x="500" y="134" type="curve"/>
      <point x="500" y="4" type="line"/>
      <point x="507" y="4" type="line"/>
      <point x="458" y="-60"/>
      <point x="443" y="-99"/>
      <point x="443" y="-131" type="curve" smooth="yes"/>
      <point x="443" y="-179"/>
      <point x="477" y="-200"/>
      <point x="509" y="-200" type="curve" smooth="yes"/>
      <point x="538" y="-200"/>
      <point x="567" y="-182"/>
      <point x="589" y="-155" type="curve"/>
      <point x="570" y="-135" type="line"/>
      <point x="552" y="-156"/>
      <point x="534" y="-169"/>
      <point x="512" y="-169" type="curve" smooth="yes"/>
      <point x="489" y="-169"/>
      <point x="472" y="-156"/>
      <point x="472" y="-125" type="curve" smooth="yes"/>
      <point x="472" y="-100"/>
      <point x="482" y="-62"/>
      <point x="534" y="0" type="curve"/>
      <point x="541" y="0" type="line"/>
      <point x="541" y="521" type="line"/>
    </contour>
  </outline>
</glyph>
<glyph name="florin" format="1">
  <advance width="324"/>
  <unicode hex="0192"/>
  <note>
    florin
  </note>
  <outline>
    <contour>
      <point x="378" y="682" type="curve"/>
      <point x="398" y="715" type="line"/>
      <point x="370" y="736"/>
      <point x="330" y="751"/>
      <point x="293" y="752" type="curve" smooth="yes"/>
      <point x="211" y="753"/>
      <point x="151" y="691"/>
      <point x="138" y="596" type="curve" smooth="yes"/>
      <point x="122" y="463" type="line"/>
      <point x="57" y="463" type="line"/>
      <point x="53" y="428" type="line"/>
      <point x="118" y="428" type="line"/>
      <point x="61" y="-35" type="line" smooth="yes"/>
      <point x="52" y="-109"/>
      <point x="24" y="-157"/>
      <point x="-36" y="-156" type="curve" smooth="yes"/>
      <point x="-61" y="-155"/>
      <point x="-90" y="-143"/>
      <point x="-109" y="-125" type="curve"/>
      <point x="-127" y="-158" type="line"/>
      <point x="-103" y="-179"/>
      <point x="-67" y="-194"/>
      <point x="-35" y="-195" type="curve" smooth="yes"/>
      <point x="48" y="-196"/>
      <point x="90" y="-135"/>
      <point x="102" y="-39" type="curve" smooth="yes"/>
      <point x="159" y="428" type="line"/>
      <point x="322" y="428" type="line"/>
      <point x="325" y="463" type="line"/>
      <point x="163" y="463" type="line"/>
      <point x="179" y="592" type="line" smooth="yes"/>
      <point x="188" y="666"/>
      <point x="234" y="714"/>
      <point x="295" y="713" type="curve" smooth="yes"/>
      <point x="323" y="712"/>
      <point x="355" y="700"/>
    </contour>
  </outline>
</glyph>
<glyph name="jdotless" format="1">
  <advance width="232"/>
  <unicode hex="0237"/>
  <outline>
    <contour>
      <point x="120" y="521" type="move" name="abvm"/>
    </contour>
    <contour>
      <point x="101" y="521" type="line"/>
      <point x="101" y="-25" type="line"/>
      <point x="101" y="-111"/>
      <point x="70" y="-156"/>
      <point x="10" y="-155" type="curve"/>
      <point x="-21" y="-154"/>
      <point x="-51" y="-144"/>
      <point x="-76" y="-125" type="curve"/>
      <point x="-92" y="-158" type="line"/>
      <point x="-61" y="-181"/>
      <point x="-24" y="-193"/>
      <point x="15" y="-194" type="curve"/>
      <point x="97" y="-195"/>
      <point x="142" y="-138"/>
      <point x="142" y="-29" type="curve"/>
      <point x="142" y="521" type="line"/>
    </contour>
  </outline>
</glyph>
<glyph name="circumflex" format="1">
  <advance width="350"/>
  <unicode hex="02C6"/>
  <outline>
    <contour>
      <point x="175" y="522" type="move" name="_abvm"/>
    </contour>
    <contour>
      <point x="152" y="739" type="line"/>
      <point x="52" y="622" type="line"/>
      <point x="94" y="622" type="line"/>
      <point x="175" y="715" type="line"/>
      <point x="257" y="622" type="line"/>
      <point x="299" y="622" type="line"/>
      <point x="199" y="739" type="line"/>
    </contour>
  </outline>
</glyph>
<glyph name="caron" format="1">
  <advance width="350"/>
  <unicode hex="02C7"/>
  <outline>
    <contour>
      <point x="176" y="522" type="move" name="_abvm"/>
    </contour>
    <contour>
      <point x="200" y="619" type="line"/>
      <point x="301" y="739" type="line"/>
      <point x="257" y="739" type="line"/>
      <point x="175" y="644" type="line"/>
      <point x="94" y="739" type="line"/>
      <point x="50" y="739" type="line"/>
      <point x="151" y="619" type="line"/>
    </contour>
  </outline>
</glyph>
<glyph name="breve" format="1">
  <advance width="350"/>
  <unicode hex="02D8"/>
  <outline>
    <contour>
      <point x="175" y="521" type="move" name="_abvm"/>
    </contour>
    <contour>
      <point x="255" y="732" type="line"/>
      <point x="253" y="686"/>
      <point x="219" y="652"/>
      <point x="175" y="652" type="curve" smooth="yes"/>
      <point x="131" y="652"/>
      <point x="97" y="686"/>
      <point x="95" y="732" type="curve"/>
      <point x="62" y="732" type="line"/>
      <point x="64" y="665"/>
      <point x="113" y="618"/>
      <point x="175" y="618" type="curve" smooth="yes"/>
      <point x="237" y="618"/>
      <point x="286" y="665"/>
      <point x="288" y="732" type="curve"/>
    </contour>
  </outline>
</glyph>
<glyph name="dotaccent" format="1">
  <advance width="350"/>
  <unicode hex="02D9"/>
  <outline>
    <contour>
      <point x="175" y="521" type="move" name="_abvm"/>
    </contour>
    <contour>
      <point x="140" y="671" type="curve" smooth="yes"/>
      <point x="140" y="650"/>
      <point x="156" y="634"/>
      <point x="175" y="634" type="curve" smooth="yes"/>
      <point x="194" y="634"/>
      <point x="210" y="650"/>
      <point x="210" y="671" type="curve" smooth="yes"/>
      <point x="210" y="691"/>
      <point x="194" y="707"/>
      <point x="175" y="707" type="curve" smooth="yes"/>
      <point x="156" y="707"/>
      <point x="140" y="691"/>
    </contour>
  </outline>
</glyph>
<glyph name="ring" format="1">
  <advance width="350"/>
  <unicode hex="02DA"/>
  <outline>
    <contour>
      <point x="175" y="521" type="move" name="_abvm"/>
    </contour>
    <contour>
      <point x="62" y="671" type="curve" smooth="yes"/>
      <point x="62" y="612"/>
      <point x="113" y="561"/>
      <point x="175" y="561" type="curve" smooth="yes"/>
      <point x="237" y="561"/>
      <point x="289" y="612"/>
      <point x="289" y="671" type="curve" smooth="yes"/>
      <point x="289" y="731"/>
      <point x="237" y="782"/>
      <point x="175" y="782" type="curve" smooth="yes"/>
      <point x="113" y="782"/>
      <point x="62" y="731"/>
    </contour>
    <contour>
      <point x="262" y="671" type="curve" smooth="yes"/>
      <point x="262" y="627"/>
      <point x="222" y="589"/>
      <point x="175" y="589" type="curve" smooth="yes"/>
      <point x="127" y="589"/>
      <point x="88" y="627"/>
      <point x="88" y="671" type="curve" smooth="yes"/>
      <point x="88" y="716"/>
      <point x="127" y="754"/>
      <point x="175" y="754" type="curve" smooth="yes"/>
      <point x="222" y="754"/>
      <point x="262" y="716"/>
    </contour>
  </outline>
</glyph>
<glyph name="ogonek" format="1">
  <advance width="350"/>
  <unicode hex="02DB"/>
  <outline>
    <contour>
      <point x="248" y="10" type="move" name="_ogonek"/>
    </contour>
    <contour>
      <point x="162" y="3" type="line"/>
      <point x="119" y="-56"/>
      <point x="102" y="-95"/>
      <point x="102" y="-129" type="curve" smooth="yes"/>
      <point x="102" y="-174"/>
      <point x="133" y="-200"/>
      <point x="169" y="-200" type="curve" smooth="yes"/>
      <point x="199" y="-200"/>
      <point x="228" y="-181"/>
      <point x="248" y="-155" type="curve"/>
      <point x="230" y="-135" type="line"/>
      <point x="213" y="-155"/>
      <point x="193" y="-169"/>
      <point x="172" y="-169" type="curve" smooth="yes"/>
      <point x="149" y="-169"/>
      <point x="131" y="-153"/>
      <point x="131" y="-125" type="curve" smooth="yes"/>
      <point x="131" y="-95"/>
      <point x="144" y="-60"/>
      <point x="191" y="3" type="curve"/>
    </contour>
  </outline>
</glyph>
<glyph name="tilde" format="1">
  <advance width="350"/>
  <unicode hex="02DC"/>
  <outline>
    <contour>
      <point x="175" y="521" type="move" name="_abvm"/>
    </contour>
    <contour>
      <point x="37" y="637" type="curve"/>
      <point x="69" y="637" type="line"/>
      <point x="69" y="673"/>
      <point x="86" y="694"/>
      <point x="116" y="694" type="curve" smooth="yes"/>
      <point x="158" y="694"/>
      <point x="182" y="628"/>
      <point x="240" y="628" type="curve" smooth="yes"/>
      <point x="287" y="628"/>
      <point x="315" y="661"/>
      <point x="315" y="720" type="curve"/>
      <point x="283" y="720" type="line"/>
      <point x="283" y="684"/>
      <point x="266" y="663"/>
      <point x="235" y="663" type="curve" smooth="yes"/>
      <point x="195" y="663"/>
      <point x="162" y="729"/>
      <point x="112" y="729" type="curve" smooth="yes"/>
      <point x="64" y="729"/>
      <point x="37" y="696"/>
    </contour>
  </outline>
</glyph>
<glyph name="hungarumlaut" format="1">
  <advance width="350"/>
  <unicode hex="02DD"/>
  <outline>
    <contour>
      <point x="153" y="522" type="move" name="_abvm"/>
    </contour>
    <contour>
      <point x="43" y="620" type="line"/>
      <point x="84" y="620" type="line"/>
      <point x="177" y="725" type="line"/>
      <point x="142" y="745" type="line"/>
    </contour>
    <contour>
      <point x="172" y="620" type="line"/>
      <point x="213" y="620" type="line"/>
      <point x="306" y="725" type="line"/>
      <point x="271" y="745" type="line"/>
    </contour>
  </outline>
</glyph>
<glyph name="commaaccentcomb" format="1">
  <advance width="180"/>
  <unicode hex="0326"/>
  <outline>
    <contour>
      <point x="87" y="0" type="move" name="_blwm"/>
    </contour>
    <contour>
      <point x="78" y="-186.0" type="line"/>
      <point x="114.0" y="-129" type="line" smooth="yes"/>
      <point x="121" y="-118"/>
      <point x="126" y="-109"/>
      <point x="126" y="-97" type="curve" smooth="yes"/>
      <point x="126" y="-76"/>
      <point x="110" y="-61"/>
      <point x="92" y="-61" type="curve" smooth="yes"/>
      <point x="74" y="-61"/>
      <point x="58" y="-76"/>
      <point x="58" y="-96" type="curve" smooth="yes"/>
      <point x="58.0" y="-110.147606624"/>
      <point x="64.7953781018" y="-122.441928311"/>
      <point x="77.41504" y="-128.42215" type="curve"/>
      <point x="49.0" y="-186.0" type="line"/>
    </contour>
  </outline>
</glyph>
<glyph name="Delta" format="1">
  <advance width="698"/>
  <unicode hex="0394"/>
  <outline>
    <contour>
      <point x="347" y="651" type="line"/>
      <point x="626.66359" y="38" type="line"/>
      <point x="71.10292" y="38" type="line"/>
    </contour>
    <contour>
      <point x="8" y="0" type="line"/>
      <point x="690" y="0" type="line"/>
      <point x="370.0" y="699.0" type="line"/>
      <point x="326" y="699.0" type="line"/>
    </contour>
  </outline>
</glyph>
<glyph name="Omega" format="1">
  <advance width="916"/>
  <unicode hex="03A9"/>
  <outline>
    <contour>
      <point x="20" y="699" type="move" name="topleft"/>
    </contour>
    <contour>
      <point x="99" y="358" type="curve" smooth="yes"/>
      <point x="99" y="236"/>
      <point x="168" y="107"/>
      <point x="266" y="40" type="curve"/>
      <point x="12" y="40" type="line"/>
      <point x="12" y="0" type="line"/>
      <point x="323" y="0" type="line"/>
      <point x="323" y="38" type="line"/>
      <point x="215" y="95"/>
      <point x="138" y="228"/>
      <point x="138" y="355" type="curve" smooth="yes"/>
      <point x="138" y="531"/>
      <point x="273" y="660"/>
      <point x="458" y="660" type="curve" smooth="yes"/>
      <point x="643" y="660"/>
      <point x="778" y="531"/>
      <point x="778" y="355" type="curve" smooth="yes"/>
      <point x="778" y="228"/>
      <point x="701" y="96"/>
      <point x="594" y="39" type="curve"/>
      <point x="594" y="0" type="line"/>
      <point x="904" y="0" type="line"/>
      <point x="904" y="40" type="line"/>
      <point x="651" y="40" type="line"/>
      <point x="749" y="107"/>
      <point x="817" y="236"/>
      <point x="817" y="358" type="curve" smooth="yes"/>
      <point x="817" y="554"/>
      <point x="664" y="701"/>
      <point x="458" y="701" type="curve" smooth="yes"/>
      <point x="252" y="701"/>
      <point x="99" y="554"/>
    </contour>
  </outline>
</glyph>
<glyph name="pi" format="1">
  <advance width="720"/>
  <unicode hex="03C0"/>
  <outline>
    <contour>
      <point x="224.0" y="0" type="line"/>
      <point x="279.80915" y="484.0" type="line"/>
      <point x="501.0" y="484.0" type="line"/>
      <point x="501.0" y="0" type="line"/>
      <point x="538" y="0" type="line"/>
      <point x="538" y="484.0" type="line"/>
      <point x="712.0" y="484.0" type="line"/>
      <point x="712.0" y="521" type="line"/>
      <point x="162" y="521" type="line"/>
      <point x="68" y="521"/>
      <point x="-3" y="455"/>
      <point x="-2" y="373" type="curve"/>
      <point x="-1" y="336"/>
      <point x="13" y="295"/>
      <point x="35" y="265" type="curve"/>
      <point x="65" y="281" type="line"/>
      <point x="46" y="307"/>
      <point x="34" y="338"/>
      <point x="33" y="368" type="curve"/>
      <point x="32" y="434"/>
      <point x="89" y="484"/>
      <point x="165" y="484" type="curve"/>
      <point x="242.80915" y="484.0" type="line"/>
      <point x="187.0" y="0" type="line"/>
    </contour>
  </outline>
</glyph>
<glyph name="uni0964" format="1">
  <advance width="219"/>
  <unicode hex="0964"/>
  <outline>
    <contour>
      <point x="187" y="-7" type="line"/>
      <point x="187" y="680" type="line"/>
      <point x="147" y="680" type="line"/>
      <point x="147" y="-7" type="line"/>
    </contour>
  </outline>
</glyph>
<glyph name="uni0A01" format="1">
  <advance width="0"/>
  <unicode hex="0A01"/>
  <outline>
    <contour>
      <point x="0" y="690" type="move" name="_abvm_candra"/>
    </contour>
    <contour>
      <point x="0" y="750" type="move" name="abvm_bindu"/>
    </contour>
    <contour>
      <point x="31" y="871" type="curve" smooth="yes"/>
      <point x="31" y="889"/>
      <point x="17" y="903"/>
      <point x="0" y="903" type="curve" smooth="yes"/>
      <point x="-17" y="903"/>
      <point x="-31" y="889"/>
      <point x="-31" y="871" type="curve" smooth="yes"/>
      <point x="-31" y="853"/>
      <point x="-17" y="839"/>
      <point x="0" y="839" type="curve" smooth="yes"/>
      <point x="17" y="839"/>
      <point x="31" y="853"/>
    </contour>
    <contour>
      <point x="146" y="860" type="curve"/>
      <point x="118" y="868" type="line"/>
      <point x="102" y="812"/>
      <point x="54" y="781"/>
      <point x="0" y="781" type="curve" smooth="yes"/>
      <point x="-56" y="781"/>
      <point x="-103" y="813"/>
      <point x="-119" y="867" type="curve"/>
      <point x="-147" y="860" type="line"/>
      <point x="-132" y="789"/>
      <point x="-69" y="749"/>
      <point x="0" y="749" type="curve" smooth="yes"/>
      <point x="68" y="749"/>
      <point x="131" y="789"/>
    </contour>
  </outline>
</glyph>
<glyph name="uni0A05" format="1">
  <advance width="807"/>
  <unicode hex="0A05"/>
  <outline>
    <contour>
      <point x="678" y="682" type="move" name="abvm_bindu"/>
    </contour>
    <contour>
      <point x="678" y="692" type="move" name="abvm_candra"/>
    </contour>
    <contour>
      <point x="681" y="672" type="move" name="abvm"/>
    </contour>
    <contour>
      <point x="701.0" y="0" type="line"/>
      <point x="701.0" y="643" type="line"/>
      <point x="807.0" y="643" type="line"/>
      <point x="807.0" y="682" type="line"/>
      <point x="660" y="682" type="line"/>
      <point x="660" y="390.0" type="line"/>
      <point x="454.92067" y="390.0" type="line"/>
      <point x="452.76397147" y="518.644937149"/>
      <point x="406.556554045" y="592.0"/>
      <point x="307.0" y="592.0" type="curve" smooth="yes"/>
      <point x="237.932629114" y="592.0"/>
      <point x="195.178433638" y="557.377400776"/>
      <point x="168.94176" y="507.69655" type="curve"/>
      <point x="155.224600775" y="630.990111101"/>
      <point x="89.669320965" y="682.0"/>
      <point x="9.0" y="682.0" type="curve" smooth="yes"/>
      <point x="-2" y="682" type="line"/>
      <point x="-2" y="643" type="line"/>
      <point x="12.0" y="643" type="line" smooth="yes"/>
      <point x="110.140464572" y="643.0"/>
      <point x="139.489721515" y="536.686315481"/>
      <point x="140.82591" y="458.35051" type="curve"/>
      <point x="112.869560339" y="384.019807868"/>
      <point x="89.5434475761" y="299.901236527"/>
      <point x="76.0" y="206.0" type="curve"/>
      <point x="111.0" y="196.0" type="line"/>
      <point x="153.286144264" y="300.365802864"/>
      <point x="172.097674718" y="364.258133643"/>
      <point x="174.71743" y="432.92682" type="curve"/>
      <point x="204.255937851" y="519.831940641"/>
      <point x="253.326986077" y="551.0"/>
      <point x="310.0" y="551.0" type="curve" smooth="yes"/>
      <point x="392.523633767" y="551.0"/>
      <point x="416.471960847" y="485.488143837"/>
      <point x="419.05965" y="384.60015" type="curve"/>
      <point x="399.065084203" y="325.111102952"/>
      <point x="382.602977601" y="257.363861531"/>
      <point x="373.0" y="198.0" type="curve" smooth="yes"/>
      <point x="368" y="170"/>
      <point x="360" y="119"/>
      <point x="358" y="100" type="curve"/>
      <point x="394.0" y="94.0" type="line"/>
      <point x="427.183735326" y="184.582628862"/>
      <point x="449.910871841" y="264.708658914"/>
      <point x="454.24611" y="351.0" type="curve"/>
      <point x="660" y="351.0" type="line"/>
      <point x="660" y="0" type="line"/>
    </contour>
  </outline>
</glyph>
<glyph name="uni0A09" format="1">
  <advance width="627"/>
  <unicode hex="0A09"/>
  <outline>
    <contour>
      <point x="623" y="680" type="move" name="abvm_bindu"/>
    </contour>
    <contour>
      <point x="715" y="656" type="move" name="abvm_candra"/>
    </contour>
    <component base="uni0A73"/>
    <component base="uni0A41" xOffset="354"/>
  </outline>
</glyph>
<glyph name="uni0A0A" format="1">
  <advance width="627"/>
  <unicode hex="0A0A"/>
  <outline>
    <contour>
      <point x="623" y="680" type="move" name="abvm_bindu"/>
    </contour>
    <contour>
      <point x="715" y="656" type="move" name="abvm_candra"/>
    </contour>
    <component base="uni0A73"/>
    <component base="uni0A42" xOffset="354"/>
  </outline>
</glyph>
<glyph name="uni0A10" format="1">
  <advance width="807"/>
  <unicode hex="0A10"/>
  <outline>
    <contour>
      <point x="678" y="672" type="move" name="_abvm"/>
    </contour>
    <contour>
      <point x="788" y="680" type="move" name="abvm_bindu"/>
    </contour>
    <contour>
      <point x="845" y="690" type="move" name="abvm_candra"/>
    </contour>
    <contour>
      <point x="762" y="672" type="move" name="abvm"/>
    </contour>
    <contour>
      <point x="701.0" y="0" type="line"/>
      <point x="701.0" y="643" type="line"/>
      <point x="807.0" y="643" type="line"/>
      <point x="807.0" y="682" type="line"/>
      <point x="695.76637" y="682" type="line"/>
      <point x="689.890099818" y="888.771318722"/>
      <point x="576.984598204" y="971.0"/>
      <point x="444.0" y="971.0" type="curve"/>
      <point x="444.0" y="935.0" type="line"/>
      <point x="546.253070727" y="935.0"/>
      <point x="634.336280322" y="885.822246659"/>
      <point x="661.82966" y="749.34652" type="curve"/>
      <point x="620.945850156" y="815.689872551"/>
      <point x="530.374176526" y="851.0"/>
      <point x="439.0" y="851.0" type="curve" smooth="yes"/>
      <point x="389" y="851"/>
      <point x="341" y="842"/>
      <point x="304" y="827" type="curve"/>
      <point x="313" y="793.0" type="line"/>
      <point x="347" y="805"/>
      <point x="394" y="813"/>
      <point x="443" y="813" type="curve" smooth="yes"/>
      <point x="542.867300143" y="813.0"/>
      <point x="649.06696704" y="770.482680365"/>
      <point x="660.07142" y="682" type="curve"/>
      <point x="660" y="682" type="line"/>
      <point x="660" y="390.0" type="line"/>
      <point x="454.92067" y="390.0" type="line"/>
      <point x="452.76397147" y="518.644937149"/>
      <point x="406.556554045" y="592.0"/>
      <point x="307.0" y="592.0" type="curve" smooth="yes"/>
      <point x="237.932629114" y="592.0"/>
      <point x="195.178433638" y="557.377400776"/>
      <point x="168.94176" y="507.69655" type="curve"/>
      <point x="155.224600775" y="630.990111101"/>
      <point x="89.669320965" y="682.0"/>
      <point x="9.0" y="682.0" type="curve" smooth="yes"/>
      <point x="-2" y="682" type="line"/>
      <point x="-2" y="643" type="line"/>
      <point x="12.0" y="643" type="line" smooth="yes"/>
      <point x="110.140464572" y="643.0"/>
      <point x="139.489721515" y="536.686315481"/>
      <point x="140.82591" y="458.35051" type="curve"/>
      <point x="112.869560339" y="384.019807868"/>
      <point x="89.5434475761" y="299.901236527"/>
      <point x="76.0" y="206.0" type="curve"/>
      <point x="111.0" y="196.0" type="line"/>
      <point x="153.286144264" y="300.365802864"/>
      <point x="172.097674718" y="364.258133643"/>
      <point x="174.71743" y="432.92682" type="curve"/>
      <point x="204.255937851" y="519.831940641"/>
      <point x="253.326986077" y="551.0"/>
      <point x="310.0" y="551.0" type="curve" smooth="yes"/>
      <point x="392.523633767" y="551.0"/>
      <point x="416.471960847" y="485.488143837"/>
      <point x="419.05965" y="384.60015" type="curve"/>
      <point x="399.065084203" y="325.111102952"/>
      <point x="382.602977601" y="257.363861531"/>
      <point x="373.0" y="198.0" type="curve" smooth="yes"/>
      <point x="368" y="170"/>
      <point x="360" y="119"/>
      <point x="358" y="100" type="curve"/>
      <point x="394.0" y="94.0" type="line"/>
      <point x="427.183735326" y="184.582628862"/>
      <point x="449.910871841" y="264.708658914"/>
      <point x="454.24611" y="351.0" type="curve"/>
      <point x="660" y="351.0" type="line"/>
      <point x="660" y="0" type="line"/>
    </contour>
  </outline>
</glyph>
<glyph name="uni0A15" format="1">
  <advance width="641"/>
  <unicode hex="0A15"/>
  <outline>
    <contour>
      <point x="515" y="680" type="move" name="abvm_bindu"/>
    </contour>
    <contour>
      <point x="539" y="0" type="move" name="blwm"/>
    </contour>
    <contour>
      <point x="515" y="690" type="move" name="abvm_candra"/>
    </contour>
    <contour>
      <point x="270" y="25" type="move" name="blwm_caret_1"/>
    </contour>
    <contour>
      <point x="97" y="-6" type="move" name="blwm_nukta"/>
    </contour>
    <contour>
      <point x="516" y="670" type="move" name="abvm"/>
    </contour>
    <contour>
      <point x="559" y="0" type="line"/>
      <point x="559" y="33" type="line" smooth="yes"/>
      <point x="559.0" y="146.02587332"/>
      <point x="534.228318222" y="242.537292122"/>
      <point x="494.3517" y="318.12889" type="curve"/>
      <point x="521.013638493" y="391.415118903"/>
      <point x="536.0" y="479.536704713"/>
      <point x="536.0" y="580.0" type="curve" smooth="yes"/>
      <point x="536" y="643" type="line"/>
      <point x="641" y="643" type="line"/>
      <point x="641" y="682" type="line"/>
      <point x="0" y="682" type="line"/>
      <point x="0" y="643" type="line"/>
      <point x="496.0" y="643" type="line"/>
      <point x="496.0" y="582" type="line" smooth="yes"/>
      <point x="496" y="495"/>
      <point x="486" y="421"/>
      <point x="466" y="359" type="curve"/>
      <point x="408" y="445"/>
      <point x="325" y="489"/>
      <point x="236" y="489" type="curve" smooth="yes"/>
      <point x="121" y="489"/>
      <point x="39" y="415"/>
      <point x="39" y="300" type="curve" smooth="yes"/>
      <point x="39" y="180"/>
      <point x="134" y="106"/>
      <point x="243" y="106" type="curve" smooth="yes"/>
      <point x="338.938739816" y="106.0"/>
      <point x="421.991541115" y="162.145874964"/>
      <point x="472.73145" y="272.69514" type="curve"/>
      <point x="501.370185466" y="208.667887548"/>
      <point x="519.0" y="128.826614951"/>
      <point x="519.0" y="34.0" type="curve" smooth="yes"/>
      <point x="519" y="0" type="line"/>
    </contour>
    <contour>
      <point x="243.0" y="145.0" type="curve" smooth="yes"/>
      <point x="151" y="145"/>
      <point x="80" y="205"/>
      <point x="80" y="297" type="curve" smooth="yes"/>
      <point x="80" y="391"/>
      <point x="146" y="450"/>
      <point x="240" y="450" type="curve" smooth="yes"/>
      <point x="322.627612621" y="450.0"/>
      <point x="400.530434677" y="404.642010569"/>
      <point x="453.49962" y="316.67785" type="curve"/>
      <point x="409.796253235" y="203.751745057"/>
      <point x="332.557583761" y="145.0"/>
    </contour>
  </outline>
</glyph>
<glyph name="uni0A17" format="1">
  <advance width="753"/>
  <unicode hex="0A17"/>
  <outline>
    <contour>
      <point x="624" y="680" type="move" name="abvm_bindu"/>
    </contour>
    <contour>
      <point x="627" y="0" type="move" name="blwm"/>
    </contour>
    <contour>
      <point x="624" y="690" type="move" name="abvm_candra"/>
    </contour>
    <contour>
      <point x="424" y="30" type="move" name="blwm_caret_1"/>
    </contour>
    <contour>
      <point x="72" y="0" type="move" name="blwm_nukta"/>
    </contour>
    <contour>
      <point x="627" y="670" type="move" name="abvm"/>
    </contour>
    <contour>
      <point x="448" y="112" type="curve" smooth="yes"/>
      <point x="448.96898" y="643" type="line"/>
      <point x="606" y="643" type="line"/>
      <point x="606" y="0" type="line"/>
      <point x="647" y="0" type="line"/>
      <point x="647" y="643" type="line"/>
      <point x="753.0" y="643" type="line"/>
      <point x="753.0" y="682" type="line"/>
      <point x="0" y="682" type="line"/>
      <point x="0" y="643" type="line"/>
      <point x="408.92609" y="643" type="line"/>
      <point x="408.05217" y="442.0" type="line"/>
      <point x="193.0" y="442.0" type="line" smooth="yes"/>
      <point x="104" y="442"/>
      <point x="48" y="383"/>
      <point x="48" y="283" type="curve" smooth="yes"/>
      <point x="48" y="113"/>
      <point x="219" y="-2"/>
      <point x="343" y="-2" type="curve" smooth="yes"/>
      <point x="404" y="-2"/>
      <point x="448" y="27"/>
    </contour>
    <contour>
      <point x="337" y="37" type="curve" smooth="yes"/>
      <point x="221" y="37"/>
      <point x="89" y="148"/>
      <point x="89" y="277" type="curve" smooth="yes"/>
      <point x="89" y="347"/>
      <point x="126" y="402"/>
      <point x="202" y="402" type="curve" smooth="yes"/>
      <point x="407.96897" y="402.0" type="line"/>
      <point x="407.0" y="121.0" type="line" smooth="yes"/>
      <point x="407" y="70"/>
      <point x="398" y="37"/>
    </contour>
  </outline>
</glyph>
<glyph name="uni0A1A" format="1">
  <advance width="666"/>
  <unicode hex="0A1A"/>
  <outline>
    <contour>
      <point x="535" y="680" type="move" name="abvm_bindu"/>
    </contour>
    <contour>
      <point x="452" y="2" type="move" name="blwm"/>
    </contour>
    <contour>
      <point x="535" y="690" type="move" name="abvm_candra"/>
    </contour>
    <contour>
      <point x="393" y="30" type="move" name="blwm_caret_1"/>
    </contour>
    <contour>
      <point x="153" y="0" type="move" name="blwm_nukta"/>
    </contour>
    <contour>
      <point x="539" y="670" type="move" name="abvm"/>
    </contour>
    <contour>
      <point x="451.0" y="-2.0" type="curve" smooth="yes"/>
      <point x="513" y="-2"/>
      <point x="559" y="27"/>
      <point x="559" y="114" type="curve"/>
      <point x="559" y="643" type="line"/>
      <point x="666" y="643" type="line"/>
      <point x="666" y="682" type="line"/>
      <point x="0" y="682" type="line"/>
      <point x="0" y="643" type="line"/>
      <point x="518" y="643" type="line"/>
      <point x="518" y="387.0" type="line"/>
      <point x="161.79691" y="387.0" type="line"/>
      <point x="134.264037008" y="408.707819125"/>
      <point x="103.248791471" y="411.240770581"/>
      <point x="32.0" y="413.0" type="curve"/>
      <point x="24.0" y="376.0" type="line"/>
      <point x="51.3184307902" y="361.018925051"/>
      <point x="85.6261123062" y="349.144183757"/>
      <point x="124.18562" y="348.59366" type="curve"/>
      <point x="130.848934027" y="138.744458356"/>
      <point x="315.506547069" y="-2.0"/>
    </contour>
    <contour>
      <point x="446" y="37" type="curve" smooth="yes"/>
      <point x="314.968855536" y="37.0"/>
      <point x="169.378526704" y="179.68000681"/>
      <point x="165.09677" y="348.0" type="curve"/>
      <point x="518" y="348.0" type="line"/>
      <point x="518" y="123.0" type="line"/>
      <point x="518" y="70"/>
      <point x="508" y="37"/>
    </contour>
  </outline>
</glyph>
<glyph name="uni0A1B" format="1">
  <advance width="630"/>
  <unicode hex="0A1B"/>
  <outline>
    <contour>
      <point x="497" y="680" type="move" name="abvm_bindu"/>
    </contour>
    <contour>
      <point x="311" y="2" type="move" name="blwm"/>
    </contour>
    <contour>
      <point x="497" y="690" type="move" name="abvm_candra"/>
    </contour>
    <contour>
      <point x="310" y="30" type="move" name="blwm_caret_1"/>
    </contour>
    <contour>
      <point x="74" y="-15" type="move" name="blwm_nukta"/>
    </contour>
    <contour>
      <point x="501" y="670" type="move" name="abvm"/>
    </contour>
    <contour>
      <point x="577" y="137" type="curve" smooth="yes"/>
      <point x="577" y="224"/>
      <point x="484" y="278"/>
      <point x="302" y="278" type="curve" smooth="yes"/>
      <point x="281" y="278"/>
      <point x="261" y="277"/>
      <point x="244" y="277" type="curve" smooth="yes"/>
      <point x="182" y="275"/>
      <point x="118" y="304"/>
      <point x="118" y="366" type="curve" smooth="yes"/>
      <point x="118" y="405"/>
      <point x="145" y="452"/>
      <point x="244" y="452" type="curve" smooth="yes"/>
      <point x="521" y="452.0" type="line"/>
      <point x="521" y="643" type="line"/>
      <point x="630" y="643" type="line"/>
      <point x="630" y="682" type="line"/>
      <point x="0" y="682" type="line"/>
      <point x="0" y="643" type="line"/>
      <point x="480.0" y="643" type="line"/>
      <point x="480.0" y="490.0" type="line"/>
      <point x="228.0" y="490.0" type="line" smooth="yes"/>
      <point x="123" y="490"/>
      <point x="77" y="431"/>
      <point x="77" y="374" type="curve" smooth="yes"/>
      <point x="77" y="321"/>
      <point x="110" y="282"/>
      <point x="167" y="264" type="curve"/>
      <point x="83" y="243"/>
      <point x="48" y="201"/>
      <point x="48" y="142" type="curve" smooth="yes"/>
      <point x="48" y="54"/>
      <point x="128" y="-2"/>
      <point x="313" y="-2" type="curve" smooth="yes"/>
      <point x="499" y="-2"/>
      <point x="577" y="55"/>
    </contour>
    <contour>
      <point x="88.0" y="141.0" type="curve" smooth="yes"/>
      <point x="88.0" y="201.36303756"/>
      <point x="143.925619642" y="238.97667052"/>
      <point x="289" y="240.91646" type="curve"/>
      <point x="289" y="35.29927" type="line"/>
      <point x="143.226838057" y="39.0331991586"/>
      <point x="88.0" y="79.1523035682"/>
    </contour>
    <contour>
      <point x="538.0" y="136.0" type="curve" smooth="yes"/>
      <point x="538.0" y="80.1723057747"/>
      <point x="480.557268301" y="38.2420466379"/>
      <point x="330" y="35.19137" type="curve"/>
      <point x="330" y="240.53157" type="line"/>
      <point x="471.141985137" y="235.937995913"/>
      <point x="538.0" y="196.96538198"/>
    </contour>
  </outline>
</glyph>
<glyph name="uni0A1C" format="1">
  <advance width="634"/>
  <unicode hex="0A1C"/>
  <outline>
    <contour>
      <point x="505" y="680" type="move" name="abvm_bindu"/>
    </contour>
    <contour>
      <point x="508" y="0" type="move" name="blwm"/>
    </contour>
    <contour>
      <point x="505" y="690" type="move" name="abvm_candra"/>
    </contour>
    <contour>
      <point x="322" y="30" type="move" name="blwm_caret_1"/>
    </contour>
    <contour>
      <point x="322" y="-2" type="move" name="blwm_nukta"/>
    </contour>
    <contour>
      <point x="508" y="670" type="move" name="abvm"/>
    </contour>
    <contour>
      <point x="528" y="0" type="line"/>
      <point x="528" y="643" type="line"/>
      <point x="634" y="643" type="line"/>
      <point x="634" y="682" type="line"/>
      <point x="0" y="682" type="line"/>
      <point x="0" y="643" type="line"/>
      <point x="487.0" y="643" type="line"/>
      <point x="487.0" y="358.0" type="line"/>
      <point x="147" y="358.0" type="line"/>
      <point x="124" y="382"/>
      <point x="100" y="388"/>
      <point x="39" y="403" type="curve"/>
      <point x="24.0" y="367.0" type="line"/>
      <point x="46" y="348"/>
      <point x="81" y="328"/>
      <point x="123" y="321" type="curve"/>
      <point x="135" y="286"/>
      <point x="139" y="250"/>
      <point x="139" y="209" type="curve" smooth="yes"/>
      <point x="138" y="141"/>
      <point x="124" y="69"/>
      <point x="107" y="9" type="curve"/>
      <point x="106.0" y="4" type="line"/>
      <point x="146" y="0" type="line"/>
      <point x="164" y="62"/>
      <point x="178" y="137"/>
      <point x="179" y="206" type="curve" smooth="yes"/>
      <point x="179" y="246"/>
      <point x="175" y="283"/>
      <point x="164" y="319" type="curve"/>
      <point x="487.0" y="319" type="line"/>
      <point x="487.0" y="0" type="line"/>
    </contour>
  </outline>
</glyph>
<glyph name="uni0A1F" format="1">
  <advance width="577"/>
  <unicode hex="0A1F"/>
  <outline>
    <contour>
      <point x="454" y="680" type="move" name="abvm_bindu"/>
    </contour>
    <contour>
      <point x="362" y="2" type="move" name="blwm"/>
    </contour>
    <contour>
      <point x="454" y="690" type="move" name="abvm_candra"/>
    </contour>
    <contour>
      <point x="351" y="30" type="move" name="blwm_caret_1"/>
    </contour>
    <contour>
      <point x="100" y="-6" type="move" name="blwm_nukta"/>
    </contour>
    <contour>
      <point x="451" y="670" type="move" name="abvm"/>
    </contour>
    <contour>
      <point x="527" y="31" type="curve"/>
      <point x="516" y="68" type="line"/>
      <point x="474" y="48"/>
      <point x="416" y="37"/>
      <point x="363" y="37" type="curve" smooth="yes"/>
      <point x="185.605952354" y="37.0"/>
      <point x="103.38335865" y="170.240035518"/>
      <point x="87.7236" y="225.19576" type="curve"/>
      <point x="109.93948058" y="278.940986958"/>
      <point x="186.203013393" y="414.081218166"/>
      <point x="460.0" y="415.0" type="curve"/>
      <point x="471.0" y="415.0" type="line"/>
      <point x="471.0" y="643" type="line"/>
      <point x="577" y="643" type="line"/>
      <point x="577" y="682" type="line"/>
      <point x="0" y="682" type="line"/>
      <point x="0" y="643" type="line"/>
      <point x="430.0" y="643" type="line"/>
      <point x="430.0" y="453.84272" type="line"/>
      <point x="157.813364779" y="448.574176286"/>
      <point x="70.5900996969" y="299.823764348"/>
      <point x="48.0" y="235.0" type="curve"/>
      <point x="63" y="152"/>
      <point x="162" y="-2"/>
      <point x="363" y="-2" type="curve" smooth="yes"/>
      <point x="425" y="-2"/>
      <point x="488" y="12"/>
    </contour>
  </outline>
</glyph>
<glyph name="uni0A23" format="1">
  <advance width="586"/>
  <unicode hex="0A23"/>
  <outline>
    <contour>
      <point x="416" y="680" type="move" name="abvm_bindu"/>
    </contour>
    <contour>
      <point x="362" y="2" type="move" name="blwm"/>
    </contour>
    <contour>
      <point x="416" y="690" type="move" name="abvm_candra"/>
    </contour>
    <contour>
      <point x="340" y="30" type="move" name="blwm_caret_1"/>
    </contour>
    <contour>
      <point x="100" y="-7" type="move" name="blwm_nukta"/>
    </contour>
    <contour>
      <point x="416" y="670" type="move" name="abvm"/>
    </contour>
    <contour>
      <point x="528" y="31" type="curve"/>
      <point x="516" y="69" type="line"/>
      <point x="474" y="49"/>
      <point x="416" y="37"/>
      <point x="359" y="37" type="curve" smooth="yes"/>
      <point x="189.508910185" y="37.0"/>
      <point x="104.275750782" y="141.731820044"/>
      <point x="87.22858" y="189.10647" type="curve"/>
      <point x="108.169840979" y="229.022224456"/>
      <point x="181.667844817" y="328.820555469"/>
      <point x="380.0" y="336.0" type="curve"/>
      <point x="380.0" y="438.10664" type="line"/>
      <point x="424.864002122" y="422.725424088"/>
      <point x="475.023573241" y="413.827756668"/>
      <point x="528.0" y="413.0" type="curve"/>
      <point x="529" y="449.0" type="line"/>
      <point x="356.415074436" y="455.637881752"/>
      <point x="232.387691823" y="534.212864174"/>
      <point x="220.87008" y="643" type="curve"/>
      <point x="586" y="643" type="line"/>
      <point x="586" y="682" type="line"/>
      <point x="0" y="682" type="line"/>
      <point x="0" y="643" type="line"/>
      <point x="182.20562" y="643" type="line"/>
      <point x="191.324359388" y="563.428695501"/>
      <point x="251.477482405" y="495.596632458"/>
      <point x="339" y="454.62978" type="curve"/>
      <point x="339" y="371.11813" type="line"/>
      <point x="145.99101806" y="359.557358116"/>
      <point x="66.3189297137" y="247.207709773"/>
      <point x="48.0" y="199.0" type="curve"/>
      <point x="62" y="129"/>
      <point x="162" y="-2"/>
      <point x="361" y="-2" type="curve" smooth="yes"/>
      <point x="427" y="-2"/>
      <point x="489" y="12"/>
    </contour>
  </outline>
</glyph>
